<mxfile host="app.diagrams.net" modified="2023-10-24T00:16:56.588Z" agent="Mozilla/5.0 (Windows NT 10.0; Win64; x64; rv:109.0) Gecko/20100101 Firefox/118.0" etag="mXINA9Kd9EL8D0VQ87Ru" version="22.0.6" type="google">
  <diagram id="-LPtsiYx2Ymb81ymixG_" name="Page-1">
    <mxGraphModel grid="1" page="1" gridSize="10" guides="1" tooltips="1" connect="1" arrows="1" fold="1" pageScale="1" pageWidth="850" pageHeight="1100" math="0" shadow="0">
      <root>
        <mxCell id="0" />
        <mxCell id="1" parent="0" />
        <mxCell id="8zTujfosPJd3p6IDFqLK-922" value="" style="rounded=0;whiteSpace=wrap;html=1;" vertex="1" parent="1">
          <mxGeometry x="85" y="4150" width="5440" height="410" as="geometry" />
        </mxCell>
        <mxCell id="8zTujfosPJd3p6IDFqLK-921" value="" style="rounded=0;whiteSpace=wrap;html=1;" vertex="1" parent="1">
          <mxGeometry x="80" y="3120" width="5440" height="900" as="geometry" />
        </mxCell>
        <mxCell id="8zTujfosPJd3p6IDFqLK-920" value="" style="rounded=0;whiteSpace=wrap;html=1;fillColor=#f8cecc;strokeColor=#b85450;" vertex="1" parent="1">
          <mxGeometry x="4492.5" y="1000" width="1040" height="840" as="geometry" />
        </mxCell>
        <mxCell id="8zTujfosPJd3p6IDFqLK-919" value="" style="rounded=0;whiteSpace=wrap;html=1;fillColor=#ffe6cc;strokeColor=#d79b00;" vertex="1" parent="1">
          <mxGeometry x="3377.5" y="1000" width="1040" height="840" as="geometry" />
        </mxCell>
        <mxCell id="8zTujfosPJd3p6IDFqLK-918" value="" style="rounded=0;whiteSpace=wrap;html=1;fillColor=#d5e8d4;strokeColor=#82b366;" vertex="1" parent="1">
          <mxGeometry x="2260" y="1000" width="1040" height="1280" as="geometry" />
        </mxCell>
        <mxCell id="8zTujfosPJd3p6IDFqLK-917" value="" style="rounded=0;whiteSpace=wrap;html=1;fillColor=#dae8fc;strokeColor=#6c8ebf;" vertex="1" parent="1">
          <mxGeometry x="1140" y="1000" width="1040" height="1280" as="geometry" />
        </mxCell>
        <mxCell id="8zTujfosPJd3p6IDFqLK-916" value="" style="rounded=0;whiteSpace=wrap;html=1;fillColor=#f5f5f5;fontColor=#333333;strokeColor=#666666;" vertex="1" parent="1">
          <mxGeometry x="60" y="1000" width="1040" height="840" as="geometry" />
        </mxCell>
        <mxCell id="8zTujfosPJd3p6IDFqLK-915" value="" style="rounded=0;whiteSpace=wrap;html=1;" vertex="1" parent="1">
          <mxGeometry x="2160" y="2560" width="480" height="320" as="geometry" />
        </mxCell>
        <mxCell id="8zTujfosPJd3p6IDFqLK-914" value="" style="rounded=0;whiteSpace=wrap;html=1;" vertex="1" parent="1">
          <mxGeometry x="2720" y="2480" width="600" height="440" as="geometry" />
        </mxCell>
        <mxCell id="8zTujfosPJd3p6IDFqLK-912" value="" style="rounded=0;whiteSpace=wrap;html=1;" vertex="1" parent="1">
          <mxGeometry x="600" y="1480" width="480" height="320" as="geometry" />
        </mxCell>
        <mxCell id="8zTujfosPJd3p6IDFqLK-913" value="" style="rounded=0;whiteSpace=wrap;html=1;" vertex="1" parent="1">
          <mxGeometry x="80" y="1480" width="480" height="320" as="geometry" />
        </mxCell>
        <mxCell id="8zTujfosPJd3p6IDFqLK-910" value="" style="rounded=0;whiteSpace=wrap;html=1;" vertex="1" parent="1">
          <mxGeometry x="1680" y="1480" width="480" height="320" as="geometry" />
        </mxCell>
        <mxCell id="8zTujfosPJd3p6IDFqLK-911" value="" style="rounded=0;whiteSpace=wrap;html=1;" vertex="1" parent="1">
          <mxGeometry x="1160" y="1480" width="480" height="320" as="geometry" />
        </mxCell>
        <mxCell id="8zTujfosPJd3p6IDFqLK-908" value="" style="rounded=0;whiteSpace=wrap;html=1;" vertex="1" parent="1">
          <mxGeometry x="1680" y="1920" width="480" height="320" as="geometry" />
        </mxCell>
        <mxCell id="8zTujfosPJd3p6IDFqLK-909" value="" style="rounded=0;whiteSpace=wrap;html=1;" vertex="1" parent="1">
          <mxGeometry x="1160" y="1920" width="480" height="320" as="geometry" />
        </mxCell>
        <mxCell id="8zTujfosPJd3p6IDFqLK-906" value="" style="rounded=0;whiteSpace=wrap;html=1;" vertex="1" parent="1">
          <mxGeometry x="2800" y="1920" width="480" height="320" as="geometry" />
        </mxCell>
        <mxCell id="8zTujfosPJd3p6IDFqLK-907" value="" style="rounded=0;whiteSpace=wrap;html=1;" vertex="1" parent="1">
          <mxGeometry x="2280" y="1920" width="480" height="320" as="geometry" />
        </mxCell>
        <mxCell id="8zTujfosPJd3p6IDFqLK-904" value="" style="rounded=0;whiteSpace=wrap;html=1;" vertex="1" parent="1">
          <mxGeometry x="5045" y="1480" width="480" height="320" as="geometry" />
        </mxCell>
        <mxCell id="8zTujfosPJd3p6IDFqLK-905" value="" style="rounded=0;whiteSpace=wrap;html=1;" vertex="1" parent="1">
          <mxGeometry x="4525" y="1480" width="480" height="320" as="geometry" />
        </mxCell>
        <mxCell id="8zTujfosPJd3p6IDFqLK-902" value="" style="rounded=0;whiteSpace=wrap;html=1;" vertex="1" parent="1">
          <mxGeometry x="3920" y="1480" width="480" height="320" as="geometry" />
        </mxCell>
        <mxCell id="8zTujfosPJd3p6IDFqLK-903" value="" style="rounded=0;whiteSpace=wrap;html=1;" vertex="1" parent="1">
          <mxGeometry x="3400" y="1480" width="480" height="320" as="geometry" />
        </mxCell>
        <mxCell id="8zTujfosPJd3p6IDFqLK-900" value="" style="rounded=0;whiteSpace=wrap;html=1;" vertex="1" parent="1">
          <mxGeometry x="2800" y="1480" width="480" height="320" as="geometry" />
        </mxCell>
        <mxCell id="8zTujfosPJd3p6IDFqLK-901" value="" style="rounded=0;whiteSpace=wrap;html=1;" vertex="1" parent="1">
          <mxGeometry x="2280" y="1480" width="480" height="320" as="geometry" />
        </mxCell>
        <mxCell id="8zTujfosPJd3p6IDFqLK-898" value="" style="rounded=0;whiteSpace=wrap;html=1;" vertex="1" parent="1">
          <mxGeometry x="5037.5" y="1040" width="480" height="320" as="geometry" />
        </mxCell>
        <mxCell id="8zTujfosPJd3p6IDFqLK-899" value="" style="rounded=0;whiteSpace=wrap;html=1;" vertex="1" parent="1">
          <mxGeometry x="4517.5" y="1040" width="480" height="320" as="geometry" />
        </mxCell>
        <mxCell id="8zTujfosPJd3p6IDFqLK-896" value="" style="rounded=0;whiteSpace=wrap;html=1;" vertex="1" parent="1">
          <mxGeometry x="3920" y="1040" width="480" height="320" as="geometry" />
        </mxCell>
        <mxCell id="8zTujfosPJd3p6IDFqLK-897" value="" style="rounded=0;whiteSpace=wrap;html=1;" vertex="1" parent="1">
          <mxGeometry x="3400" y="1040" width="480" height="320" as="geometry" />
        </mxCell>
        <mxCell id="8zTujfosPJd3p6IDFqLK-894" value="" style="rounded=0;whiteSpace=wrap;html=1;" vertex="1" parent="1">
          <mxGeometry x="2800" y="1040" width="480" height="320" as="geometry" />
        </mxCell>
        <mxCell id="8zTujfosPJd3p6IDFqLK-895" value="" style="rounded=0;whiteSpace=wrap;html=1;" vertex="1" parent="1">
          <mxGeometry x="2280" y="1040" width="480" height="320" as="geometry" />
        </mxCell>
        <mxCell id="8zTujfosPJd3p6IDFqLK-892" value="" style="rounded=0;whiteSpace=wrap;html=1;" vertex="1" parent="1">
          <mxGeometry x="1680" y="1040" width="480" height="320" as="geometry" />
        </mxCell>
        <mxCell id="8zTujfosPJd3p6IDFqLK-893" value="" style="rounded=0;whiteSpace=wrap;html=1;" vertex="1" parent="1">
          <mxGeometry x="1160" y="1040" width="480" height="320" as="geometry" />
        </mxCell>
        <mxCell id="8zTujfosPJd3p6IDFqLK-890" value="" style="rounded=0;whiteSpace=wrap;html=1;" vertex="1" parent="1">
          <mxGeometry x="600" y="1040" width="480" height="320" as="geometry" />
        </mxCell>
        <mxCell id="8zTujfosPJd3p6IDFqLK-889" value="" style="rounded=0;whiteSpace=wrap;html=1;" vertex="1" parent="1">
          <mxGeometry x="80" y="1040" width="480" height="320" as="geometry" />
        </mxCell>
        <mxCell id="8zTujfosPJd3p6IDFqLK-888" value="" style="rounded=0;whiteSpace=wrap;html=1;" vertex="1" parent="1">
          <mxGeometry x="2720" y="120" width="480" height="520" as="geometry" />
        </mxCell>
        <mxCell id="8zTujfosPJd3p6IDFqLK-887" value="" style="rounded=0;whiteSpace=wrap;html=1;" vertex="1" parent="1">
          <mxGeometry x="2200" y="120" width="480" height="520" as="geometry" />
        </mxCell>
        <mxCell id="8zTujfosPJd3p6IDFqLK-879" value="&lt;font size=&quot;1&quot;&gt;&lt;b style=&quot;font-size: 22px;&quot;&gt;Graph&lt;/b&gt;&lt;/font&gt;&lt;font size=&quot;1&quot;&gt;&lt;b style=&quot;font-size: 22px;&quot;&gt;5&lt;/b&gt;&lt;/font&gt;" style="ellipse;whiteSpace=wrap;html=1;fillColor=#f8cecc;strokeColor=#b85450;" vertex="1" parent="1">
          <mxGeometry x="3070" y="2780" width="120" height="80" as="geometry" />
        </mxCell>
        <mxCell id="8zTujfosPJd3p6IDFqLK-881" value="&lt;font size=&quot;1&quot;&gt;&lt;b style=&quot;font-size: 22px;&quot;&gt;Graph5&lt;/b&gt;&lt;/font&gt;" style="ellipse;whiteSpace=wrap;html=1;fillColor=#f8cecc;strokeColor=#b85450;" vertex="1" parent="1">
          <mxGeometry x="2790" y="2780" width="120" height="80" as="geometry" />
        </mxCell>
        <mxCell id="8zTujfosPJd3p6IDFqLK-882" value="" style="endArrow=none;html=1;rounded=0;entryX=0.5;entryY=1;entryDx=0;entryDy=0;exitX=0;exitY=0.5;exitDx=0;exitDy=0;" edge="1" parent="1">
          <mxGeometry width="50" height="50" relative="1" as="geometry">
            <mxPoint x="3070" y="2819.44" as="sourcePoint" />
            <mxPoint x="2910" y="2819.44" as="targetPoint" />
          </mxGeometry>
        </mxCell>
        <mxCell id="8zTujfosPJd3p6IDFqLK-716" value="" style="ellipse;whiteSpace=wrap;html=1;fillColor=#f8cecc;strokeColor=#b85450;" vertex="1" parent="1">
          <mxGeometry x="5070" y="3695" width="425" height="130" as="geometry" />
        </mxCell>
        <mxCell id="8zTujfosPJd3p6IDFqLK-714" value="" style="ellipse;whiteSpace=wrap;html=1;fillColor=#ffe6cc;strokeColor=#d79b00;strokeWidth=4;" vertex="1" parent="1">
          <mxGeometry x="3950" y="3695" width="425" height="130" as="geometry" />
        </mxCell>
        <mxCell id="8zTujfosPJd3p6IDFqLK-712" value="" style="ellipse;whiteSpace=wrap;html=1;fillColor=#d5e8d4;strokeColor=#82b366;" vertex="1" parent="1">
          <mxGeometry x="2820" y="3500" width="425" height="220" as="geometry" />
        </mxCell>
        <mxCell id="8zTujfosPJd3p6IDFqLK-669" value="" style="ellipse;whiteSpace=wrap;html=1;fillColor=#dae8fc;strokeColor=#6c8ebf;" vertex="1" parent="1">
          <mxGeometry x="1707.5" y="3500" width="425" height="220" as="geometry" />
        </mxCell>
        <mxCell id="8zTujfosPJd3p6IDFqLK-663" value="" style="ellipse;whiteSpace=wrap;html=1;fillColor=#f5f5f5;fontColor=#333333;strokeColor=#666666;strokeWidth=4;" vertex="1" parent="1">
          <mxGeometry x="627.5" y="3500" width="425" height="220" as="geometry" />
        </mxCell>
        <mxCell id="8zTujfosPJd3p6IDFqLK-305" value="" style="ellipse;whiteSpace=wrap;html=1;fillColor=#f8cecc;strokeColor=#b85450;" vertex="1" parent="1">
          <mxGeometry x="4535" y="1220" width="170" height="120" as="geometry" />
        </mxCell>
        <mxCell id="8zTujfosPJd3p6IDFqLK-303" value="" style="ellipse;whiteSpace=wrap;html=1;fillColor=#ffe6cc;strokeColor=#d79b00;" vertex="1" parent="1">
          <mxGeometry x="3695" y="1215" width="170" height="130" as="geometry" />
        </mxCell>
        <mxCell id="8zTujfosPJd3p6IDFqLK-295" value="" style="ellipse;whiteSpace=wrap;html=1;fillColor=#d5e8d4;strokeColor=#82b366;" vertex="1" parent="1">
          <mxGeometry x="2290" y="1065" width="180" height="115" as="geometry" />
        </mxCell>
        <mxCell id="8zTujfosPJd3p6IDFqLK-293" value="" style="ellipse;whiteSpace=wrap;html=1;fillColor=#dae8fc;strokeColor=#6c8ebf;" vertex="1" parent="1">
          <mxGeometry x="1175" y="1055" width="185" height="130" as="geometry" />
        </mxCell>
        <mxCell id="8zTujfosPJd3p6IDFqLK-288" value="" style="ellipse;whiteSpace=wrap;html=1;rotation=-30;fillColor=#f5f5f5;fontColor=#333333;strokeColor=#666666;" vertex="1" parent="1">
          <mxGeometry x="240" y="1080" width="310" height="160" as="geometry" />
        </mxCell>
        <mxCell id="yWlqepLKnhFReXHT1ap5-135" value="&lt;div style=&quot;font-size: 17px;&quot;&gt;&lt;font style=&quot;font-size: 17px;&quot;&gt;&lt;b&gt;- From each node, new graph (cluster) will be initialized.&lt;br&gt;&lt;/b&gt;&lt;/font&gt;&lt;/div&gt;" style="text;html=1;strokeColor=none;fillColor=none;align=center;verticalAlign=middle;whiteSpace=wrap;rounded=0;" vertex="1" parent="1">
          <mxGeometry x="2460" y="840" width="680" height="40" as="geometry" />
        </mxCell>
        <mxCell id="yWlqepLKnhFReXHT1ap5-358" value="&lt;font style=&quot;font-size: 26px;&quot;&gt;&lt;b&gt;Nodes&lt;/b&gt;&lt;/font&gt;" style="text;html=1;strokeColor=none;fillColor=none;align=center;verticalAlign=middle;whiteSpace=wrap;rounded=0;" vertex="1" parent="1">
          <mxGeometry x="2320" y="160" width="200" height="40" as="geometry" />
        </mxCell>
        <mxCell id="yWlqepLKnhFReXHT1ap5-509" value="&lt;div style=&quot;font-size: 17px;&quot;&gt;&lt;font style=&quot;font-size: 17px;&quot;&gt;&lt;b&gt;&lt;font style=&quot;font-size: 17px;&quot;&gt;- Each graph searches perimeters and add new nodes to graph recursively.&lt;/font&gt;&lt;br&gt;&lt;/b&gt;&lt;/font&gt;&lt;/div&gt;" style="text;html=1;strokeColor=none;fillColor=none;align=center;verticalAlign=middle;whiteSpace=wrap;rounded=0;" vertex="1" parent="1">
          <mxGeometry x="2460" y="800" width="680" height="40" as="geometry" />
        </mxCell>
        <mxCell id="yWlqepLKnhFReXHT1ap5-510" value="&lt;font style=&quot;font-size: 24px;&quot;&gt;&lt;b&gt;1st Cycle&lt;br&gt;&lt;/b&gt;&lt;/font&gt;" style="text;html=1;strokeColor=none;fillColor=none;align=center;verticalAlign=middle;whiteSpace=wrap;rounded=0;" vertex="1" parent="1">
          <mxGeometry x="2690" y="760" width="150" height="40" as="geometry" />
        </mxCell>
        <mxCell id="ho9gx_JLgdOQucAHQEbo-1" value="&lt;font size=&quot;1&quot;&gt;&lt;b style=&quot;font-size: 22px;&quot;&gt;Node1&lt;/b&gt;&lt;/font&gt;" style="ellipse;whiteSpace=wrap;html=1;fillColor=#f5f5f5;fontColor=#333333;strokeColor=#666666;" vertex="1" parent="1">
          <mxGeometry x="2240" y="320" width="120" height="80" as="geometry" />
        </mxCell>
        <mxCell id="ho9gx_JLgdOQucAHQEbo-2" value="&lt;font size=&quot;1&quot;&gt;&lt;b style=&quot;font-size: 22px;&quot;&gt;Node2&lt;/b&gt;&lt;/font&gt;" style="ellipse;whiteSpace=wrap;html=1;fillColor=#dae8fc;strokeColor=#6c8ebf;" vertex="1" parent="1">
          <mxGeometry x="2520" y="320" width="120" height="80" as="geometry" />
        </mxCell>
        <mxCell id="ho9gx_JLgdOQucAHQEbo-10" value="&lt;font size=&quot;1&quot;&gt;&lt;b style=&quot;font-size: 22px;&quot;&gt;Node5&lt;/b&gt;&lt;/font&gt;" style="ellipse;whiteSpace=wrap;html=1;fillColor=#f8cecc;strokeColor=#b85450;" vertex="1" parent="1">
          <mxGeometry x="2520" y="480" width="120" height="80" as="geometry" />
        </mxCell>
        <mxCell id="ho9gx_JLgdOQucAHQEbo-27" value="&lt;font size=&quot;1&quot;&gt;&lt;b style=&quot;font-size: 22px;&quot;&gt;Node3&lt;/b&gt;&lt;/font&gt;" style="ellipse;whiteSpace=wrap;html=1;fillColor=#d5e8d4;strokeColor=#82b366;" vertex="1" parent="1">
          <mxGeometry x="2380" y="400" width="120" height="80" as="geometry" />
        </mxCell>
        <mxCell id="ho9gx_JLgdOQucAHQEbo-28" value="&lt;font size=&quot;1&quot;&gt;&lt;b style=&quot;font-size: 22px;&quot;&gt;Node4&lt;/b&gt;&lt;/font&gt;" style="ellipse;whiteSpace=wrap;html=1;fillColor=#ffe6cc;strokeColor=#d79b00;" vertex="1" parent="1">
          <mxGeometry x="2240" y="480" width="120" height="80" as="geometry" />
        </mxCell>
        <mxCell id="ho9gx_JLgdOQucAHQEbo-32" value="" style="endArrow=none;html=1;rounded=0;entryX=0.5;entryY=1;entryDx=0;entryDy=0;exitX=0;exitY=0.5;exitDx=0;exitDy=0;" edge="1" parent="1" source="ho9gx_JLgdOQucAHQEbo-27" target="ho9gx_JLgdOQucAHQEbo-1">
          <mxGeometry width="50" height="50" relative="1" as="geometry">
            <mxPoint x="2380" y="480" as="sourcePoint" />
            <mxPoint x="2620" y="440" as="targetPoint" />
          </mxGeometry>
        </mxCell>
        <mxCell id="ho9gx_JLgdOQucAHQEbo-94" value="&lt;font style=&quot;font-size: 24px;&quot;&gt;&lt;b&gt;Example of Node1:&lt;br&gt;&lt;/b&gt;&lt;/font&gt;" style="text;html=1;strokeColor=none;fillColor=none;align=center;verticalAlign=middle;whiteSpace=wrap;rounded=0;" vertex="1" parent="1">
          <mxGeometry x="440" y="920" width="265" height="40" as="geometry" />
        </mxCell>
        <mxCell id="ho9gx_JLgdOQucAHQEbo-95" value="" style="endArrow=none;html=1;rounded=0;entryX=0.5;entryY=1;entryDx=0;entryDy=0;exitX=0;exitY=0.5;exitDx=0;exitDy=0;" edge="1" parent="1" source="ho9gx_JLgdOQucAHQEbo-2">
          <mxGeometry width="50" height="50" relative="1" as="geometry">
            <mxPoint x="2445" y="440" as="sourcePoint" />
            <mxPoint x="2360" y="360" as="targetPoint" />
          </mxGeometry>
        </mxCell>
        <mxCell id="ho9gx_JLgdOQucAHQEbo-100" value="&lt;b&gt;&lt;font style=&quot;font-size: 24px;&quot;&gt;link (1,2)&lt;/font&gt;&lt;/b&gt;" style="text;html=1;strokeColor=none;fillColor=none;align=center;verticalAlign=middle;whiteSpace=wrap;rounded=0;" vertex="1" parent="1">
          <mxGeometry x="2390" y="330" width="100" height="30" as="geometry" />
        </mxCell>
        <mxCell id="ho9gx_JLgdOQucAHQEbo-104" value="&lt;b&gt;&lt;font style=&quot;font-size: 24px;&quot;&gt;link (1,3)&lt;/font&gt;&lt;/b&gt;" style="text;html=1;strokeColor=none;fillColor=none;align=center;verticalAlign=middle;whiteSpace=wrap;rounded=0;" vertex="1" parent="1">
          <mxGeometry x="2240" y="420" width="120" height="30" as="geometry" />
        </mxCell>
        <mxCell id="ho9gx_JLgdOQucAHQEbo-110" value="&lt;b&gt;&lt;font style=&quot;font-size: 24px;&quot;&gt;link (4,5)&lt;/font&gt;&lt;/b&gt;" style="text;html=1;strokeColor=none;fillColor=none;align=center;verticalAlign=middle;whiteSpace=wrap;rounded=0;" vertex="1" parent="1">
          <mxGeometry x="2370" y="520" width="130" height="30" as="geometry" />
        </mxCell>
        <mxCell id="ho9gx_JLgdOQucAHQEbo-151" value="&lt;font style=&quot;font-size: 24px;&quot;&gt;&lt;b&gt;&amp;nbsp;1st Iteration&lt;br&gt;&lt;/b&gt;&lt;/font&gt;" style="text;html=1;strokeColor=none;fillColor=none;align=center;verticalAlign=middle;whiteSpace=wrap;rounded=0;" vertex="1" parent="1">
          <mxGeometry x="460" y="1000" width="200" height="40" as="geometry" />
        </mxCell>
        <mxCell id="ho9gx_JLgdOQucAHQEbo-193" value="&lt;font style=&quot;font-size: 24px;&quot;&gt;&lt;b&gt;Initial graphs from each node:&lt;br&gt;&lt;/b&gt;&lt;/font&gt;" style="text;html=1;strokeColor=none;fillColor=none;align=center;verticalAlign=middle;whiteSpace=wrap;rounded=0;" vertex="1" parent="1">
          <mxGeometry x="2760" y="240" width="395" height="40" as="geometry" />
        </mxCell>
        <mxCell id="8zTujfosPJd3p6IDFqLK-168" value="" style="endArrow=none;html=1;rounded=0;entryX=0.5;entryY=1;entryDx=0;entryDy=0;exitX=0;exitY=0.5;exitDx=0;exitDy=0;" edge="1" parent="1" source="ho9gx_JLgdOQucAHQEbo-10">
          <mxGeometry width="50" height="50" relative="1" as="geometry">
            <mxPoint x="2440" y="560" as="sourcePoint" />
            <mxPoint x="2360" y="520" as="targetPoint" />
          </mxGeometry>
        </mxCell>
        <mxCell id="8zTujfosPJd3p6IDFqLK-170" value="&lt;font size=&quot;1&quot;&gt;&lt;b style=&quot;font-size: 22px;&quot;&gt;Graph&lt;/b&gt;&lt;/font&gt;&lt;font size=&quot;1&quot;&gt;&lt;b style=&quot;font-size: 22px;&quot;&gt;1&lt;/b&gt;&lt;/font&gt;" style="ellipse;whiteSpace=wrap;html=1;fillColor=#f5f5f5;fontColor=#333333;strokeColor=#666666;" vertex="1" parent="1">
          <mxGeometry x="2760" y="320" width="120" height="80" as="geometry" />
        </mxCell>
        <mxCell id="8zTujfosPJd3p6IDFqLK-171" value="&lt;font size=&quot;1&quot;&gt;&lt;b style=&quot;font-size: 22px;&quot;&gt;Graph&lt;/b&gt;&lt;/font&gt;&lt;font size=&quot;1&quot;&gt;&lt;b style=&quot;font-size: 22px;&quot;&gt;2&lt;/b&gt;&lt;/font&gt;" style="ellipse;whiteSpace=wrap;html=1;fillColor=#dae8fc;strokeColor=#6c8ebf;" vertex="1" parent="1">
          <mxGeometry x="3040" y="320" width="120" height="80" as="geometry" />
        </mxCell>
        <mxCell id="8zTujfosPJd3p6IDFqLK-172" value="&lt;font size=&quot;1&quot;&gt;&lt;b style=&quot;font-size: 22px;&quot;&gt;Graph&lt;/b&gt;&lt;/font&gt;&lt;font size=&quot;1&quot;&gt;&lt;b style=&quot;font-size: 22px;&quot;&gt;5&lt;/b&gt;&lt;/font&gt;" style="ellipse;whiteSpace=wrap;html=1;fillColor=#f8cecc;strokeColor=#b85450;" vertex="1" parent="1">
          <mxGeometry x="3040" y="480" width="120" height="80" as="geometry" />
        </mxCell>
        <mxCell id="8zTujfosPJd3p6IDFqLK-173" value="&lt;font size=&quot;1&quot;&gt;&lt;b style=&quot;font-size: 22px;&quot;&gt;Graph&lt;/b&gt;&lt;/font&gt;&lt;font size=&quot;1&quot;&gt;&lt;b style=&quot;font-size: 22px;&quot;&gt;3&lt;/b&gt;&lt;/font&gt;" style="ellipse;whiteSpace=wrap;html=1;fillColor=#d5e8d4;strokeColor=#82b366;" vertex="1" parent="1">
          <mxGeometry x="2900" y="400" width="120" height="80" as="geometry" />
        </mxCell>
        <mxCell id="8zTujfosPJd3p6IDFqLK-174" value="&lt;font size=&quot;1&quot;&gt;&lt;b style=&quot;font-size: 22px;&quot;&gt;Graph4&lt;/b&gt;&lt;/font&gt;" style="ellipse;whiteSpace=wrap;html=1;fillColor=#ffe6cc;strokeColor=#d79b00;" vertex="1" parent="1">
          <mxGeometry x="2760" y="480" width="120" height="80" as="geometry" />
        </mxCell>
        <mxCell id="8zTujfosPJd3p6IDFqLK-181" value="&lt;font style=&quot;font-size: 26px;&quot;&gt;&lt;b&gt;Graphs&lt;/b&gt;&lt;/font&gt;" style="text;html=1;strokeColor=none;fillColor=none;align=center;verticalAlign=middle;whiteSpace=wrap;rounded=0;" vertex="1" parent="1">
          <mxGeometry x="2860" y="160" width="200" height="40" as="geometry" />
        </mxCell>
        <mxCell id="8zTujfosPJd3p6IDFqLK-182" value="&lt;font size=&quot;1&quot;&gt;&lt;b style=&quot;font-size: 22px;&quot;&gt;Node1&lt;/b&gt;&lt;/font&gt;" style="ellipse;whiteSpace=wrap;html=1;fillColor=#f5f5f5;fontColor=#333333;strokeColor=#666666;" vertex="1" parent="1">
          <mxGeometry x="120" y="1080" width="120" height="80" as="geometry" />
        </mxCell>
        <mxCell id="8zTujfosPJd3p6IDFqLK-183" value="&lt;font size=&quot;1&quot;&gt;&lt;b style=&quot;font-size: 22px;&quot;&gt;Node2&lt;/b&gt;&lt;/font&gt;" style="ellipse;whiteSpace=wrap;html=1;fillColor=#dae8fc;strokeColor=#6c8ebf;" vertex="1" parent="1">
          <mxGeometry x="400" y="1080" width="120" height="80" as="geometry" />
        </mxCell>
        <mxCell id="8zTujfosPJd3p6IDFqLK-184" value="&lt;font size=&quot;1&quot;&gt;&lt;b style=&quot;font-size: 22px;&quot;&gt;Node5&lt;/b&gt;&lt;/font&gt;" style="ellipse;whiteSpace=wrap;html=1;fillColor=#f8cecc;strokeColor=#b85450;" vertex="1" parent="1">
          <mxGeometry x="400" y="1240" width="120" height="80" as="geometry" />
        </mxCell>
        <mxCell id="8zTujfosPJd3p6IDFqLK-185" value="&lt;font size=&quot;1&quot;&gt;&lt;b style=&quot;font-size: 22px;&quot;&gt;Node3&lt;/b&gt;&lt;/font&gt;" style="ellipse;whiteSpace=wrap;html=1;fillColor=#d5e8d4;strokeColor=#82b366;" vertex="1" parent="1">
          <mxGeometry x="260" y="1160" width="120" height="80" as="geometry" />
        </mxCell>
        <mxCell id="8zTujfosPJd3p6IDFqLK-186" value="&lt;font size=&quot;1&quot;&gt;&lt;b style=&quot;font-size: 22px;&quot;&gt;Node4&lt;/b&gt;&lt;/font&gt;" style="ellipse;whiteSpace=wrap;html=1;fillColor=#ffe6cc;strokeColor=#d79b00;" vertex="1" parent="1">
          <mxGeometry x="120" y="1240" width="120" height="80" as="geometry" />
        </mxCell>
        <mxCell id="8zTujfosPJd3p6IDFqLK-187" value="" style="endArrow=none;html=1;rounded=0;entryX=0.5;entryY=1;entryDx=0;entryDy=0;exitX=0;exitY=0.5;exitDx=0;exitDy=0;" edge="1" parent="1" source="8zTujfosPJd3p6IDFqLK-185" target="8zTujfosPJd3p6IDFqLK-182">
          <mxGeometry width="50" height="50" relative="1" as="geometry">
            <mxPoint x="260" y="1240" as="sourcePoint" />
            <mxPoint x="500" y="1200" as="targetPoint" />
          </mxGeometry>
        </mxCell>
        <mxCell id="8zTujfosPJd3p6IDFqLK-188" value="" style="endArrow=none;html=1;rounded=0;entryX=0.5;entryY=1;entryDx=0;entryDy=0;exitX=0;exitY=0.5;exitDx=0;exitDy=0;" edge="1" parent="1" source="8zTujfosPJd3p6IDFqLK-183">
          <mxGeometry width="50" height="50" relative="1" as="geometry">
            <mxPoint x="325" y="1200" as="sourcePoint" />
            <mxPoint x="240" y="1120" as="targetPoint" />
          </mxGeometry>
        </mxCell>
        <mxCell id="8zTujfosPJd3p6IDFqLK-189" value="&lt;b&gt;&lt;font style=&quot;font-size: 24px;&quot;&gt;link (1,2)&lt;/font&gt;&lt;/b&gt;" style="text;html=1;strokeColor=none;fillColor=none;align=center;verticalAlign=middle;whiteSpace=wrap;rounded=0;" vertex="1" parent="1">
          <mxGeometry x="270" y="1090" width="100" height="30" as="geometry" />
        </mxCell>
        <mxCell id="8zTujfosPJd3p6IDFqLK-190" value="&lt;b&gt;&lt;font style=&quot;font-size: 24px;&quot;&gt;link (1,3)&lt;/font&gt;&lt;/b&gt;" style="text;html=1;strokeColor=none;fillColor=none;align=center;verticalAlign=middle;whiteSpace=wrap;rounded=0;" vertex="1" parent="1">
          <mxGeometry x="120" y="1180" width="120" height="30" as="geometry" />
        </mxCell>
        <mxCell id="8zTujfosPJd3p6IDFqLK-191" value="&lt;b&gt;&lt;font style=&quot;font-size: 24px;&quot;&gt;link (4,5)&lt;/font&gt;&lt;/b&gt;" style="text;html=1;strokeColor=none;fillColor=none;align=center;verticalAlign=middle;whiteSpace=wrap;rounded=0;" vertex="1" parent="1">
          <mxGeometry x="250" y="1280" width="130" height="30" as="geometry" />
        </mxCell>
        <mxCell id="8zTujfosPJd3p6IDFqLK-192" value="" style="endArrow=none;html=1;rounded=0;entryX=0.5;entryY=1;entryDx=0;entryDy=0;exitX=0;exitY=0.5;exitDx=0;exitDy=0;" edge="1" parent="1" source="8zTujfosPJd3p6IDFqLK-184">
          <mxGeometry width="50" height="50" relative="1" as="geometry">
            <mxPoint x="320" y="1320" as="sourcePoint" />
            <mxPoint x="240" y="1280" as="targetPoint" />
          </mxGeometry>
        </mxCell>
        <mxCell id="8zTujfosPJd3p6IDFqLK-193" value="&lt;font size=&quot;1&quot;&gt;&lt;b style=&quot;font-size: 22px;&quot;&gt;Graph&lt;/b&gt;&lt;/font&gt;&lt;font size=&quot;1&quot;&gt;&lt;b style=&quot;font-size: 22px;&quot;&gt;1&lt;/b&gt;&lt;/font&gt;" style="ellipse;whiteSpace=wrap;html=1;fillColor=#f5f5f5;fontColor=#333333;strokeColor=#666666;" vertex="1" parent="1">
          <mxGeometry x="640" y="1080" width="120" height="80" as="geometry" />
        </mxCell>
        <mxCell id="8zTujfosPJd3p6IDFqLK-194" value="&lt;font size=&quot;1&quot;&gt;&lt;b style=&quot;font-size: 22px;&quot;&gt;Graph&lt;/b&gt;&lt;/font&gt;&lt;font size=&quot;1&quot;&gt;&lt;b style=&quot;font-size: 22px;&quot;&gt;1&lt;/b&gt;&lt;/font&gt;" style="ellipse;whiteSpace=wrap;html=1;fillColor=#f5f5f5;strokeColor=#666666;fontColor=#333333;" vertex="1" parent="1">
          <mxGeometry x="920" y="1080" width="120" height="80" as="geometry" />
        </mxCell>
        <mxCell id="8zTujfosPJd3p6IDFqLK-195" value="&lt;font size=&quot;1&quot;&gt;&lt;b style=&quot;font-size: 22px;&quot;&gt;Graph&lt;/b&gt;&lt;/font&gt;&lt;font size=&quot;1&quot;&gt;&lt;b style=&quot;font-size: 22px;&quot;&gt;5&lt;/b&gt;&lt;/font&gt;" style="ellipse;whiteSpace=wrap;html=1;fillColor=#f8cecc;strokeColor=#b85450;" vertex="1" parent="1">
          <mxGeometry x="920" y="1240" width="120" height="80" as="geometry" />
        </mxCell>
        <mxCell id="8zTujfosPJd3p6IDFqLK-196" value="&lt;font size=&quot;1&quot;&gt;&lt;b style=&quot;font-size: 22px;&quot;&gt;Graph&lt;/b&gt;&lt;/font&gt;&lt;font size=&quot;1&quot;&gt;&lt;b style=&quot;font-size: 22px;&quot;&gt;1&lt;/b&gt;&lt;/font&gt;" style="ellipse;whiteSpace=wrap;html=1;fillColor=#f5f5f5;strokeColor=#666666;fontColor=#333333;" vertex="1" parent="1">
          <mxGeometry x="780" y="1160" width="120" height="80" as="geometry" />
        </mxCell>
        <mxCell id="8zTujfosPJd3p6IDFqLK-197" value="&lt;font size=&quot;1&quot;&gt;&lt;b style=&quot;font-size: 22px;&quot;&gt;Graph4&lt;/b&gt;&lt;/font&gt;" style="ellipse;whiteSpace=wrap;html=1;fillColor=#ffe6cc;strokeColor=#d79b00;" vertex="1" parent="1">
          <mxGeometry x="640" y="1240" width="120" height="80" as="geometry" />
        </mxCell>
        <mxCell id="8zTujfosPJd3p6IDFqLK-198" value="&lt;font style=&quot;font-size: 24px;&quot;&gt;&lt;b&gt;Example of Node2:&lt;br&gt;&lt;/b&gt;&lt;/font&gt;" style="text;html=1;strokeColor=none;fillColor=none;align=center;verticalAlign=middle;whiteSpace=wrap;rounded=0;" vertex="1" parent="1">
          <mxGeometry x="1520" y="920" width="265" height="40" as="geometry" />
        </mxCell>
        <mxCell id="8zTujfosPJd3p6IDFqLK-199" value="&lt;font style=&quot;font-size: 24px;&quot;&gt;&lt;b&gt;&amp;nbsp;1st Iteration&lt;br&gt;&lt;/b&gt;&lt;/font&gt;" style="text;html=1;strokeColor=none;fillColor=none;align=center;verticalAlign=middle;whiteSpace=wrap;rounded=0;" vertex="1" parent="1">
          <mxGeometry x="1540" y="1000" width="200" height="40" as="geometry" />
        </mxCell>
        <mxCell id="8zTujfosPJd3p6IDFqLK-200" value="&lt;font size=&quot;1&quot;&gt;&lt;b style=&quot;font-size: 22px;&quot;&gt;Node1&lt;/b&gt;&lt;/font&gt;" style="ellipse;whiteSpace=wrap;html=1;fillColor=#f5f5f5;fontColor=#333333;strokeColor=#666666;" vertex="1" parent="1">
          <mxGeometry x="1200" y="1080" width="120" height="80" as="geometry" />
        </mxCell>
        <mxCell id="8zTujfosPJd3p6IDFqLK-201" value="&lt;font size=&quot;1&quot;&gt;&lt;b style=&quot;font-size: 22px;&quot;&gt;Node2&lt;/b&gt;&lt;/font&gt;" style="ellipse;whiteSpace=wrap;html=1;fillColor=#dae8fc;strokeColor=#6c8ebf;" vertex="1" parent="1">
          <mxGeometry x="1480" y="1080" width="120" height="80" as="geometry" />
        </mxCell>
        <mxCell id="8zTujfosPJd3p6IDFqLK-202" value="&lt;font size=&quot;1&quot;&gt;&lt;b style=&quot;font-size: 22px;&quot;&gt;Node5&lt;/b&gt;&lt;/font&gt;" style="ellipse;whiteSpace=wrap;html=1;fillColor=#f8cecc;strokeColor=#b85450;" vertex="1" parent="1">
          <mxGeometry x="1480" y="1240" width="120" height="80" as="geometry" />
        </mxCell>
        <mxCell id="8zTujfosPJd3p6IDFqLK-203" value="&lt;font size=&quot;1&quot;&gt;&lt;b style=&quot;font-size: 22px;&quot;&gt;Node3&lt;/b&gt;&lt;/font&gt;" style="ellipse;whiteSpace=wrap;html=1;fillColor=#d5e8d4;strokeColor=#82b366;" vertex="1" parent="1">
          <mxGeometry x="1340" y="1160" width="120" height="80" as="geometry" />
        </mxCell>
        <mxCell id="8zTujfosPJd3p6IDFqLK-204" value="&lt;font size=&quot;1&quot;&gt;&lt;b style=&quot;font-size: 22px;&quot;&gt;Node4&lt;/b&gt;&lt;/font&gt;" style="ellipse;whiteSpace=wrap;html=1;fillColor=#ffe6cc;strokeColor=#d79b00;" vertex="1" parent="1">
          <mxGeometry x="1200" y="1240" width="120" height="80" as="geometry" />
        </mxCell>
        <mxCell id="8zTujfosPJd3p6IDFqLK-205" value="" style="endArrow=none;html=1;rounded=0;entryX=0.5;entryY=1;entryDx=0;entryDy=0;exitX=0;exitY=0.5;exitDx=0;exitDy=0;" edge="1" parent="1" source="8zTujfosPJd3p6IDFqLK-203" target="8zTujfosPJd3p6IDFqLK-200">
          <mxGeometry width="50" height="50" relative="1" as="geometry">
            <mxPoint x="1340" y="1240" as="sourcePoint" />
            <mxPoint x="1580" y="1200" as="targetPoint" />
          </mxGeometry>
        </mxCell>
        <mxCell id="8zTujfosPJd3p6IDFqLK-206" value="" style="endArrow=none;html=1;rounded=0;entryX=0.5;entryY=1;entryDx=0;entryDy=0;exitX=0;exitY=0.5;exitDx=0;exitDy=0;" edge="1" parent="1" source="8zTujfosPJd3p6IDFqLK-201">
          <mxGeometry width="50" height="50" relative="1" as="geometry">
            <mxPoint x="1405" y="1200" as="sourcePoint" />
            <mxPoint x="1320" y="1120" as="targetPoint" />
          </mxGeometry>
        </mxCell>
        <mxCell id="8zTujfosPJd3p6IDFqLK-207" value="&lt;b&gt;&lt;font style=&quot;font-size: 24px;&quot;&gt;link (1,2)&lt;/font&gt;&lt;/b&gt;" style="text;html=1;strokeColor=none;fillColor=none;align=center;verticalAlign=middle;whiteSpace=wrap;rounded=0;" vertex="1" parent="1">
          <mxGeometry x="1350" y="1090" width="100" height="30" as="geometry" />
        </mxCell>
        <mxCell id="8zTujfosPJd3p6IDFqLK-208" value="&lt;b&gt;&lt;font style=&quot;font-size: 24px;&quot;&gt;link (1,3)&lt;/font&gt;&lt;/b&gt;" style="text;html=1;strokeColor=none;fillColor=none;align=center;verticalAlign=middle;whiteSpace=wrap;rounded=0;" vertex="1" parent="1">
          <mxGeometry x="1200" y="1180" width="120" height="30" as="geometry" />
        </mxCell>
        <mxCell id="8zTujfosPJd3p6IDFqLK-209" value="&lt;b&gt;&lt;font style=&quot;font-size: 24px;&quot;&gt;link (4,5)&lt;/font&gt;&lt;/b&gt;" style="text;html=1;strokeColor=none;fillColor=none;align=center;verticalAlign=middle;whiteSpace=wrap;rounded=0;" vertex="1" parent="1">
          <mxGeometry x="1330" y="1280" width="130" height="30" as="geometry" />
        </mxCell>
        <mxCell id="8zTujfosPJd3p6IDFqLK-210" value="" style="endArrow=none;html=1;rounded=0;entryX=0.5;entryY=1;entryDx=0;entryDy=0;exitX=0;exitY=0.5;exitDx=0;exitDy=0;" edge="1" parent="1" source="8zTujfosPJd3p6IDFqLK-202">
          <mxGeometry width="50" height="50" relative="1" as="geometry">
            <mxPoint x="1400" y="1320" as="sourcePoint" />
            <mxPoint x="1320" y="1280" as="targetPoint" />
          </mxGeometry>
        </mxCell>
        <mxCell id="8zTujfosPJd3p6IDFqLK-211" value="&lt;font size=&quot;1&quot;&gt;&lt;b style=&quot;font-size: 22px;&quot;&gt;Graph&lt;/b&gt;&lt;/font&gt;&lt;font size=&quot;1&quot;&gt;&lt;b style=&quot;font-size: 22px;&quot;&gt;2&lt;/b&gt;&lt;/font&gt;" style="ellipse;whiteSpace=wrap;html=1;fillColor=#dae8fc;strokeColor=#6c8ebf;" vertex="1" parent="1">
          <mxGeometry x="1720" y="1080" width="120" height="80" as="geometry" />
        </mxCell>
        <mxCell id="8zTujfosPJd3p6IDFqLK-212" value="&lt;font size=&quot;1&quot;&gt;&lt;b style=&quot;font-size: 22px;&quot;&gt;Graph&lt;/b&gt;&lt;/font&gt;&lt;font size=&quot;1&quot;&gt;&lt;b style=&quot;font-size: 22px;&quot;&gt;2&lt;/b&gt;&lt;/font&gt;" style="ellipse;whiteSpace=wrap;html=1;fillColor=#dae8fc;strokeColor=#6c8ebf;" vertex="1" parent="1">
          <mxGeometry x="2000" y="1080" width="120" height="80" as="geometry" />
        </mxCell>
        <mxCell id="8zTujfosPJd3p6IDFqLK-213" value="&lt;font size=&quot;1&quot;&gt;&lt;b style=&quot;font-size: 22px;&quot;&gt;Graph&lt;/b&gt;&lt;/font&gt;&lt;font size=&quot;1&quot;&gt;&lt;b style=&quot;font-size: 22px;&quot;&gt;5&lt;/b&gt;&lt;/font&gt;" style="ellipse;whiteSpace=wrap;html=1;fillColor=#f8cecc;strokeColor=#b85450;" vertex="1" parent="1">
          <mxGeometry x="2000" y="1240" width="120" height="80" as="geometry" />
        </mxCell>
        <mxCell id="8zTujfosPJd3p6IDFqLK-214" value="&lt;font size=&quot;1&quot;&gt;&lt;b style=&quot;font-size: 22px;&quot;&gt;Graph&lt;/b&gt;&lt;/font&gt;&lt;font size=&quot;1&quot;&gt;&lt;b style=&quot;font-size: 22px;&quot;&gt;3&lt;/b&gt;&lt;/font&gt;" style="ellipse;whiteSpace=wrap;html=1;fillColor=#d5e8d4;strokeColor=#82b366;" vertex="1" parent="1">
          <mxGeometry x="1860" y="1160" width="120" height="80" as="geometry" />
        </mxCell>
        <mxCell id="8zTujfosPJd3p6IDFqLK-215" value="&lt;font size=&quot;1&quot;&gt;&lt;b style=&quot;font-size: 22px;&quot;&gt;Graph4&lt;/b&gt;&lt;/font&gt;" style="ellipse;whiteSpace=wrap;html=1;fillColor=#ffe6cc;strokeColor=#d79b00;" vertex="1" parent="1">
          <mxGeometry x="1720" y="1240" width="120" height="80" as="geometry" />
        </mxCell>
        <mxCell id="8zTujfosPJd3p6IDFqLK-216" value="&lt;font style=&quot;font-size: 24px;&quot;&gt;&lt;b&gt;Example of Node3:&lt;br&gt;&lt;/b&gt;&lt;/font&gt;" style="text;html=1;strokeColor=none;fillColor=none;align=center;verticalAlign=middle;whiteSpace=wrap;rounded=0;" vertex="1" parent="1">
          <mxGeometry x="2640" y="920" width="265" height="40" as="geometry" />
        </mxCell>
        <mxCell id="8zTujfosPJd3p6IDFqLK-217" value="&lt;font style=&quot;font-size: 24px;&quot;&gt;&lt;b&gt;&amp;nbsp;1st Iteration&lt;br&gt;&lt;/b&gt;&lt;/font&gt;" style="text;html=1;strokeColor=none;fillColor=none;align=center;verticalAlign=middle;whiteSpace=wrap;rounded=0;" vertex="1" parent="1">
          <mxGeometry x="2660" y="1000" width="200" height="40" as="geometry" />
        </mxCell>
        <mxCell id="8zTujfosPJd3p6IDFqLK-218" value="&lt;font size=&quot;1&quot;&gt;&lt;b style=&quot;font-size: 22px;&quot;&gt;Node1&lt;/b&gt;&lt;/font&gt;" style="ellipse;whiteSpace=wrap;html=1;fillColor=#f5f5f5;fontColor=#333333;strokeColor=#666666;" vertex="1" parent="1">
          <mxGeometry x="2320" y="1080" width="120" height="80" as="geometry" />
        </mxCell>
        <mxCell id="8zTujfosPJd3p6IDFqLK-219" value="&lt;font size=&quot;1&quot;&gt;&lt;b style=&quot;font-size: 22px;&quot;&gt;Node2&lt;/b&gt;&lt;/font&gt;" style="ellipse;whiteSpace=wrap;html=1;fillColor=#dae8fc;strokeColor=#6c8ebf;" vertex="1" parent="1">
          <mxGeometry x="2600" y="1080" width="120" height="80" as="geometry" />
        </mxCell>
        <mxCell id="8zTujfosPJd3p6IDFqLK-220" value="&lt;font size=&quot;1&quot;&gt;&lt;b style=&quot;font-size: 22px;&quot;&gt;Node5&lt;/b&gt;&lt;/font&gt;" style="ellipse;whiteSpace=wrap;html=1;fillColor=#f8cecc;strokeColor=#b85450;" vertex="1" parent="1">
          <mxGeometry x="2600" y="1240" width="120" height="80" as="geometry" />
        </mxCell>
        <mxCell id="8zTujfosPJd3p6IDFqLK-221" value="&lt;font size=&quot;1&quot;&gt;&lt;b style=&quot;font-size: 22px;&quot;&gt;Node3&lt;/b&gt;&lt;/font&gt;" style="ellipse;whiteSpace=wrap;html=1;fillColor=#d5e8d4;strokeColor=#82b366;" vertex="1" parent="1">
          <mxGeometry x="2460" y="1160" width="120" height="80" as="geometry" />
        </mxCell>
        <mxCell id="8zTujfosPJd3p6IDFqLK-222" value="&lt;font size=&quot;1&quot;&gt;&lt;b style=&quot;font-size: 22px;&quot;&gt;Node4&lt;/b&gt;&lt;/font&gt;" style="ellipse;whiteSpace=wrap;html=1;fillColor=#ffe6cc;strokeColor=#d79b00;" vertex="1" parent="1">
          <mxGeometry x="2320" y="1240" width="120" height="80" as="geometry" />
        </mxCell>
        <mxCell id="8zTujfosPJd3p6IDFqLK-223" value="" style="endArrow=none;html=1;rounded=0;entryX=0.5;entryY=1;entryDx=0;entryDy=0;exitX=0;exitY=0.5;exitDx=0;exitDy=0;" edge="1" parent="1" source="8zTujfosPJd3p6IDFqLK-221" target="8zTujfosPJd3p6IDFqLK-218">
          <mxGeometry width="50" height="50" relative="1" as="geometry">
            <mxPoint x="2460" y="1240" as="sourcePoint" />
            <mxPoint x="2700" y="1200" as="targetPoint" />
          </mxGeometry>
        </mxCell>
        <mxCell id="8zTujfosPJd3p6IDFqLK-224" value="" style="endArrow=none;html=1;rounded=0;entryX=0.5;entryY=1;entryDx=0;entryDy=0;exitX=0;exitY=0.5;exitDx=0;exitDy=0;" edge="1" parent="1" source="8zTujfosPJd3p6IDFqLK-219">
          <mxGeometry width="50" height="50" relative="1" as="geometry">
            <mxPoint x="2525" y="1200" as="sourcePoint" />
            <mxPoint x="2440" y="1120" as="targetPoint" />
          </mxGeometry>
        </mxCell>
        <mxCell id="8zTujfosPJd3p6IDFqLK-225" value="&lt;b&gt;&lt;font style=&quot;font-size: 24px;&quot;&gt;link (1,2)&lt;/font&gt;&lt;/b&gt;" style="text;html=1;strokeColor=none;fillColor=none;align=center;verticalAlign=middle;whiteSpace=wrap;rounded=0;" vertex="1" parent="1">
          <mxGeometry x="2470" y="1090" width="100" height="30" as="geometry" />
        </mxCell>
        <mxCell id="8zTujfosPJd3p6IDFqLK-226" value="&lt;b&gt;&lt;font style=&quot;font-size: 24px;&quot;&gt;link (1,3)&lt;/font&gt;&lt;/b&gt;" style="text;html=1;strokeColor=none;fillColor=none;align=center;verticalAlign=middle;whiteSpace=wrap;rounded=0;" vertex="1" parent="1">
          <mxGeometry x="2320" y="1180" width="120" height="30" as="geometry" />
        </mxCell>
        <mxCell id="8zTujfosPJd3p6IDFqLK-227" value="&lt;b&gt;&lt;font style=&quot;font-size: 24px;&quot;&gt;link (4,5)&lt;/font&gt;&lt;/b&gt;" style="text;html=1;strokeColor=none;fillColor=none;align=center;verticalAlign=middle;whiteSpace=wrap;rounded=0;" vertex="1" parent="1">
          <mxGeometry x="2450" y="1280" width="130" height="30" as="geometry" />
        </mxCell>
        <mxCell id="8zTujfosPJd3p6IDFqLK-228" value="" style="endArrow=none;html=1;rounded=0;entryX=0.5;entryY=1;entryDx=0;entryDy=0;exitX=0;exitY=0.5;exitDx=0;exitDy=0;" edge="1" parent="1" source="8zTujfosPJd3p6IDFqLK-220">
          <mxGeometry width="50" height="50" relative="1" as="geometry">
            <mxPoint x="2520" y="1320" as="sourcePoint" />
            <mxPoint x="2440" y="1280" as="targetPoint" />
          </mxGeometry>
        </mxCell>
        <mxCell id="8zTujfosPJd3p6IDFqLK-229" value="&lt;font size=&quot;1&quot;&gt;&lt;b style=&quot;font-size: 22px;&quot;&gt;Graph&lt;/b&gt;&lt;/font&gt;&lt;font size=&quot;1&quot;&gt;&lt;b style=&quot;font-size: 22px;&quot;&gt;3&lt;/b&gt;&lt;/font&gt;" style="ellipse;whiteSpace=wrap;html=1;fillColor=#d5e8d4;strokeColor=#82b366;" vertex="1" parent="1">
          <mxGeometry x="2840" y="1080" width="120" height="80" as="geometry" />
        </mxCell>
        <mxCell id="8zTujfosPJd3p6IDFqLK-230" value="&lt;font size=&quot;1&quot;&gt;&lt;b style=&quot;font-size: 22px;&quot;&gt;Graph&lt;/b&gt;&lt;/font&gt;&lt;font size=&quot;1&quot;&gt;&lt;b style=&quot;font-size: 22px;&quot;&gt;2&lt;/b&gt;&lt;/font&gt;" style="ellipse;whiteSpace=wrap;html=1;fillColor=#dae8fc;strokeColor=#6c8ebf;" vertex="1" parent="1">
          <mxGeometry x="3120" y="1080" width="120" height="80" as="geometry" />
        </mxCell>
        <mxCell id="8zTujfosPJd3p6IDFqLK-231" value="&lt;font size=&quot;1&quot;&gt;&lt;b style=&quot;font-size: 22px;&quot;&gt;Graph&lt;/b&gt;&lt;/font&gt;&lt;font size=&quot;1&quot;&gt;&lt;b style=&quot;font-size: 22px;&quot;&gt;5&lt;/b&gt;&lt;/font&gt;" style="ellipse;whiteSpace=wrap;html=1;fillColor=#f8cecc;strokeColor=#b85450;" vertex="1" parent="1">
          <mxGeometry x="3120" y="1240" width="120" height="80" as="geometry" />
        </mxCell>
        <mxCell id="8zTujfosPJd3p6IDFqLK-232" value="&lt;font size=&quot;1&quot;&gt;&lt;b style=&quot;font-size: 22px;&quot;&gt;Graph&lt;/b&gt;&lt;/font&gt;&lt;font size=&quot;1&quot;&gt;&lt;b style=&quot;font-size: 22px;&quot;&gt;3&lt;/b&gt;&lt;/font&gt;" style="ellipse;whiteSpace=wrap;html=1;fillColor=#d5e8d4;strokeColor=#82b366;" vertex="1" parent="1">
          <mxGeometry x="2980" y="1160" width="120" height="80" as="geometry" />
        </mxCell>
        <mxCell id="8zTujfosPJd3p6IDFqLK-233" value="&lt;font size=&quot;1&quot;&gt;&lt;b style=&quot;font-size: 22px;&quot;&gt;Graph4&lt;/b&gt;&lt;/font&gt;" style="ellipse;whiteSpace=wrap;html=1;fillColor=#ffe6cc;strokeColor=#d79b00;" vertex="1" parent="1">
          <mxGeometry x="2840" y="1240" width="120" height="80" as="geometry" />
        </mxCell>
        <mxCell id="8zTujfosPJd3p6IDFqLK-252" value="&lt;font style=&quot;font-size: 24px;&quot;&gt;&lt;b&gt;Example of Node4:&lt;br&gt;&lt;/b&gt;&lt;/font&gt;" style="text;html=1;strokeColor=none;fillColor=none;align=center;verticalAlign=middle;whiteSpace=wrap;rounded=0;" vertex="1" parent="1">
          <mxGeometry x="3760" y="920" width="265" height="40" as="geometry" />
        </mxCell>
        <mxCell id="8zTujfosPJd3p6IDFqLK-253" value="&lt;font style=&quot;font-size: 24px;&quot;&gt;&lt;b&gt;&amp;nbsp;1st Iteration&lt;br&gt;&lt;/b&gt;&lt;/font&gt;" style="text;html=1;strokeColor=none;fillColor=none;align=center;verticalAlign=middle;whiteSpace=wrap;rounded=0;" vertex="1" parent="1">
          <mxGeometry x="3780" y="1000" width="200" height="40" as="geometry" />
        </mxCell>
        <mxCell id="8zTujfosPJd3p6IDFqLK-254" value="&lt;font size=&quot;1&quot;&gt;&lt;b style=&quot;font-size: 22px;&quot;&gt;Node1&lt;/b&gt;&lt;/font&gt;" style="ellipse;whiteSpace=wrap;html=1;fillColor=#f5f5f5;fontColor=#333333;strokeColor=#666666;" vertex="1" parent="1">
          <mxGeometry x="3440" y="1080" width="120" height="80" as="geometry" />
        </mxCell>
        <mxCell id="8zTujfosPJd3p6IDFqLK-255" value="&lt;font size=&quot;1&quot;&gt;&lt;b style=&quot;font-size: 22px;&quot;&gt;Node2&lt;/b&gt;&lt;/font&gt;" style="ellipse;whiteSpace=wrap;html=1;fillColor=#dae8fc;strokeColor=#6c8ebf;" vertex="1" parent="1">
          <mxGeometry x="3720" y="1080" width="120" height="80" as="geometry" />
        </mxCell>
        <mxCell id="8zTujfosPJd3p6IDFqLK-256" value="&lt;font size=&quot;1&quot;&gt;&lt;b style=&quot;font-size: 22px;&quot;&gt;Node5&lt;/b&gt;&lt;/font&gt;" style="ellipse;whiteSpace=wrap;html=1;fillColor=#f8cecc;strokeColor=#b85450;" vertex="1" parent="1">
          <mxGeometry x="3720" y="1240" width="120" height="80" as="geometry" />
        </mxCell>
        <mxCell id="8zTujfosPJd3p6IDFqLK-257" value="&lt;font size=&quot;1&quot;&gt;&lt;b style=&quot;font-size: 22px;&quot;&gt;Node3&lt;/b&gt;&lt;/font&gt;" style="ellipse;whiteSpace=wrap;html=1;fillColor=#d5e8d4;strokeColor=#82b366;" vertex="1" parent="1">
          <mxGeometry x="3580" y="1160" width="120" height="80" as="geometry" />
        </mxCell>
        <mxCell id="8zTujfosPJd3p6IDFqLK-258" value="&lt;font size=&quot;1&quot;&gt;&lt;b style=&quot;font-size: 22px;&quot;&gt;Node4&lt;/b&gt;&lt;/font&gt;" style="ellipse;whiteSpace=wrap;html=1;fillColor=#ffe6cc;strokeColor=#d79b00;" vertex="1" parent="1">
          <mxGeometry x="3440" y="1240" width="120" height="80" as="geometry" />
        </mxCell>
        <mxCell id="8zTujfosPJd3p6IDFqLK-259" value="" style="endArrow=none;html=1;rounded=0;entryX=0.5;entryY=1;entryDx=0;entryDy=0;exitX=0;exitY=0.5;exitDx=0;exitDy=0;" edge="1" parent="1" source="8zTujfosPJd3p6IDFqLK-257" target="8zTujfosPJd3p6IDFqLK-254">
          <mxGeometry width="50" height="50" relative="1" as="geometry">
            <mxPoint x="3580" y="1240" as="sourcePoint" />
            <mxPoint x="3820" y="1200" as="targetPoint" />
          </mxGeometry>
        </mxCell>
        <mxCell id="8zTujfosPJd3p6IDFqLK-260" value="" style="endArrow=none;html=1;rounded=0;entryX=0.5;entryY=1;entryDx=0;entryDy=0;exitX=0;exitY=0.5;exitDx=0;exitDy=0;" edge="1" parent="1" source="8zTujfosPJd3p6IDFqLK-255">
          <mxGeometry width="50" height="50" relative="1" as="geometry">
            <mxPoint x="3645" y="1200" as="sourcePoint" />
            <mxPoint x="3560" y="1120" as="targetPoint" />
          </mxGeometry>
        </mxCell>
        <mxCell id="8zTujfosPJd3p6IDFqLK-261" value="&lt;b&gt;&lt;font style=&quot;font-size: 24px;&quot;&gt;link (1,2)&lt;/font&gt;&lt;/b&gt;" style="text;html=1;strokeColor=none;fillColor=none;align=center;verticalAlign=middle;whiteSpace=wrap;rounded=0;" vertex="1" parent="1">
          <mxGeometry x="3590" y="1090" width="100" height="30" as="geometry" />
        </mxCell>
        <mxCell id="8zTujfosPJd3p6IDFqLK-262" value="&lt;b&gt;&lt;font style=&quot;font-size: 24px;&quot;&gt;link (1,3)&lt;/font&gt;&lt;/b&gt;" style="text;html=1;strokeColor=none;fillColor=none;align=center;verticalAlign=middle;whiteSpace=wrap;rounded=0;" vertex="1" parent="1">
          <mxGeometry x="3440" y="1180" width="120" height="30" as="geometry" />
        </mxCell>
        <mxCell id="8zTujfosPJd3p6IDFqLK-263" value="&lt;b&gt;&lt;font style=&quot;font-size: 24px;&quot;&gt;link (4,5)&lt;/font&gt;&lt;/b&gt;" style="text;html=1;strokeColor=none;fillColor=none;align=center;verticalAlign=middle;whiteSpace=wrap;rounded=0;" vertex="1" parent="1">
          <mxGeometry x="3570" y="1280" width="130" height="30" as="geometry" />
        </mxCell>
        <mxCell id="8zTujfosPJd3p6IDFqLK-264" value="" style="endArrow=none;html=1;rounded=0;entryX=0.5;entryY=1;entryDx=0;entryDy=0;exitX=0;exitY=0.5;exitDx=0;exitDy=0;" edge="1" parent="1" source="8zTujfosPJd3p6IDFqLK-256">
          <mxGeometry width="50" height="50" relative="1" as="geometry">
            <mxPoint x="3640" y="1320" as="sourcePoint" />
            <mxPoint x="3560" y="1280" as="targetPoint" />
          </mxGeometry>
        </mxCell>
        <mxCell id="8zTujfosPJd3p6IDFqLK-265" value="&lt;font size=&quot;1&quot;&gt;&lt;b style=&quot;font-size: 22px;&quot;&gt;Graph&lt;/b&gt;&lt;/font&gt;&lt;font size=&quot;1&quot;&gt;&lt;b style=&quot;font-size: 22px;&quot;&gt;1&lt;/b&gt;&lt;/font&gt;" style="ellipse;whiteSpace=wrap;html=1;fillColor=#f5f5f5;fontColor=#333333;strokeColor=#666666;" vertex="1" parent="1">
          <mxGeometry x="3960" y="1080" width="120" height="80" as="geometry" />
        </mxCell>
        <mxCell id="8zTujfosPJd3p6IDFqLK-266" value="&lt;font size=&quot;1&quot;&gt;&lt;b style=&quot;font-size: 22px;&quot;&gt;Graph&lt;/b&gt;&lt;/font&gt;&lt;font size=&quot;1&quot;&gt;&lt;b style=&quot;font-size: 22px;&quot;&gt;2&lt;/b&gt;&lt;/font&gt;" style="ellipse;whiteSpace=wrap;html=1;fillColor=#dae8fc;strokeColor=#6c8ebf;" vertex="1" parent="1">
          <mxGeometry x="4240" y="1080" width="120" height="80" as="geometry" />
        </mxCell>
        <mxCell id="8zTujfosPJd3p6IDFqLK-267" value="&lt;font size=&quot;1&quot;&gt;&lt;b style=&quot;font-size: 22px;&quot;&gt;Graph&lt;/b&gt;&lt;/font&gt;&lt;font size=&quot;1&quot;&gt;&lt;b style=&quot;font-size: 22px;&quot;&gt;4&lt;/b&gt;&lt;/font&gt;" style="ellipse;whiteSpace=wrap;html=1;fillColor=#ffe6cc;strokeColor=#d79b00;" vertex="1" parent="1">
          <mxGeometry x="4240" y="1240" width="120" height="80" as="geometry" />
        </mxCell>
        <mxCell id="8zTujfosPJd3p6IDFqLK-268" value="&lt;font size=&quot;1&quot;&gt;&lt;b style=&quot;font-size: 22px;&quot;&gt;Graph&lt;/b&gt;&lt;/font&gt;&lt;font size=&quot;1&quot;&gt;&lt;b style=&quot;font-size: 22px;&quot;&gt;3&lt;/b&gt;&lt;/font&gt;" style="ellipse;whiteSpace=wrap;html=1;fillColor=#d5e8d4;strokeColor=#82b366;" vertex="1" parent="1">
          <mxGeometry x="4100" y="1160" width="120" height="80" as="geometry" />
        </mxCell>
        <mxCell id="8zTujfosPJd3p6IDFqLK-269" value="&lt;font size=&quot;1&quot;&gt;&lt;b style=&quot;font-size: 22px;&quot;&gt;Graph4&lt;/b&gt;&lt;/font&gt;" style="ellipse;whiteSpace=wrap;html=1;fillColor=#ffe6cc;strokeColor=#d79b00;" vertex="1" parent="1">
          <mxGeometry x="3960" y="1240" width="120" height="80" as="geometry" />
        </mxCell>
        <mxCell id="8zTujfosPJd3p6IDFqLK-270" value="&lt;font style=&quot;font-size: 24px;&quot;&gt;&lt;b&gt;Example of Node5:&lt;br&gt;&lt;/b&gt;&lt;/font&gt;" style="text;html=1;strokeColor=none;fillColor=none;align=center;verticalAlign=middle;whiteSpace=wrap;rounded=0;" vertex="1" parent="1">
          <mxGeometry x="4880" y="920" width="265" height="40" as="geometry" />
        </mxCell>
        <mxCell id="8zTujfosPJd3p6IDFqLK-271" value="&lt;font style=&quot;font-size: 24px;&quot;&gt;&lt;b&gt;&amp;nbsp;1st Iteration&lt;br&gt;&lt;/b&gt;&lt;/font&gt;" style="text;html=1;strokeColor=none;fillColor=none;align=center;verticalAlign=middle;whiteSpace=wrap;rounded=0;" vertex="1" parent="1">
          <mxGeometry x="4900" y="1000" width="200" height="40" as="geometry" />
        </mxCell>
        <mxCell id="8zTujfosPJd3p6IDFqLK-272" value="&lt;font size=&quot;1&quot;&gt;&lt;b style=&quot;font-size: 22px;&quot;&gt;Node1&lt;/b&gt;&lt;/font&gt;" style="ellipse;whiteSpace=wrap;html=1;fillColor=#f5f5f5;fontColor=#333333;strokeColor=#666666;" vertex="1" parent="1">
          <mxGeometry x="4560" y="1080" width="120" height="80" as="geometry" />
        </mxCell>
        <mxCell id="8zTujfosPJd3p6IDFqLK-273" value="&lt;font size=&quot;1&quot;&gt;&lt;b style=&quot;font-size: 22px;&quot;&gt;Node2&lt;/b&gt;&lt;/font&gt;" style="ellipse;whiteSpace=wrap;html=1;fillColor=#dae8fc;strokeColor=#6c8ebf;" vertex="1" parent="1">
          <mxGeometry x="4840" y="1080" width="120" height="80" as="geometry" />
        </mxCell>
        <mxCell id="8zTujfosPJd3p6IDFqLK-274" value="&lt;font size=&quot;1&quot;&gt;&lt;b style=&quot;font-size: 22px;&quot;&gt;Node5&lt;/b&gt;&lt;/font&gt;" style="ellipse;whiteSpace=wrap;html=1;fillColor=#f8cecc;strokeColor=#b85450;" vertex="1" parent="1">
          <mxGeometry x="4840" y="1240" width="120" height="80" as="geometry" />
        </mxCell>
        <mxCell id="8zTujfosPJd3p6IDFqLK-275" value="&lt;font size=&quot;1&quot;&gt;&lt;b style=&quot;font-size: 22px;&quot;&gt;Node3&lt;/b&gt;&lt;/font&gt;" style="ellipse;whiteSpace=wrap;html=1;fillColor=#d5e8d4;strokeColor=#82b366;" vertex="1" parent="1">
          <mxGeometry x="4700" y="1160" width="120" height="80" as="geometry" />
        </mxCell>
        <mxCell id="8zTujfosPJd3p6IDFqLK-276" value="&lt;font size=&quot;1&quot;&gt;&lt;b style=&quot;font-size: 22px;&quot;&gt;Node4&lt;/b&gt;&lt;/font&gt;" style="ellipse;whiteSpace=wrap;html=1;fillColor=#ffe6cc;strokeColor=#d79b00;" vertex="1" parent="1">
          <mxGeometry x="4560" y="1240" width="120" height="80" as="geometry" />
        </mxCell>
        <mxCell id="8zTujfosPJd3p6IDFqLK-277" value="" style="endArrow=none;html=1;rounded=0;entryX=0.5;entryY=1;entryDx=0;entryDy=0;exitX=0;exitY=0.5;exitDx=0;exitDy=0;" edge="1" parent="1" source="8zTujfosPJd3p6IDFqLK-275" target="8zTujfosPJd3p6IDFqLK-272">
          <mxGeometry width="50" height="50" relative="1" as="geometry">
            <mxPoint x="4700" y="1240" as="sourcePoint" />
            <mxPoint x="4940" y="1200" as="targetPoint" />
          </mxGeometry>
        </mxCell>
        <mxCell id="8zTujfosPJd3p6IDFqLK-278" value="" style="endArrow=none;html=1;rounded=0;entryX=0.5;entryY=1;entryDx=0;entryDy=0;exitX=0;exitY=0.5;exitDx=0;exitDy=0;" edge="1" parent="1" source="8zTujfosPJd3p6IDFqLK-273">
          <mxGeometry width="50" height="50" relative="1" as="geometry">
            <mxPoint x="4765" y="1200" as="sourcePoint" />
            <mxPoint x="4680" y="1120" as="targetPoint" />
          </mxGeometry>
        </mxCell>
        <mxCell id="8zTujfosPJd3p6IDFqLK-279" value="&lt;b&gt;&lt;font style=&quot;font-size: 24px;&quot;&gt;link (1,2)&lt;/font&gt;&lt;/b&gt;" style="text;html=1;strokeColor=none;fillColor=none;align=center;verticalAlign=middle;whiteSpace=wrap;rounded=0;" vertex="1" parent="1">
          <mxGeometry x="4710" y="1090" width="100" height="30" as="geometry" />
        </mxCell>
        <mxCell id="8zTujfosPJd3p6IDFqLK-280" value="&lt;b&gt;&lt;font style=&quot;font-size: 24px;&quot;&gt;link (1,3)&lt;/font&gt;&lt;/b&gt;" style="text;html=1;strokeColor=none;fillColor=none;align=center;verticalAlign=middle;whiteSpace=wrap;rounded=0;" vertex="1" parent="1">
          <mxGeometry x="4560" y="1180" width="120" height="30" as="geometry" />
        </mxCell>
        <mxCell id="8zTujfosPJd3p6IDFqLK-281" value="&lt;b&gt;&lt;font style=&quot;font-size: 24px;&quot;&gt;link (4,5)&lt;/font&gt;&lt;/b&gt;" style="text;html=1;strokeColor=none;fillColor=none;align=center;verticalAlign=middle;whiteSpace=wrap;rounded=0;" vertex="1" parent="1">
          <mxGeometry x="4690" y="1280" width="130" height="30" as="geometry" />
        </mxCell>
        <mxCell id="8zTujfosPJd3p6IDFqLK-282" value="" style="endArrow=none;html=1;rounded=0;entryX=0.5;entryY=1;entryDx=0;entryDy=0;exitX=0;exitY=0.5;exitDx=0;exitDy=0;" edge="1" parent="1" source="8zTujfosPJd3p6IDFqLK-274">
          <mxGeometry width="50" height="50" relative="1" as="geometry">
            <mxPoint x="4760" y="1320" as="sourcePoint" />
            <mxPoint x="4680" y="1280" as="targetPoint" />
          </mxGeometry>
        </mxCell>
        <mxCell id="8zTujfosPJd3p6IDFqLK-283" value="&lt;font size=&quot;1&quot;&gt;&lt;b style=&quot;font-size: 22px;&quot;&gt;Graph&lt;/b&gt;&lt;/font&gt;&lt;font size=&quot;1&quot;&gt;&lt;b style=&quot;font-size: 22px;&quot;&gt;1&lt;/b&gt;&lt;/font&gt;" style="ellipse;whiteSpace=wrap;html=1;fillColor=#f5f5f5;fontColor=#333333;strokeColor=#666666;" vertex="1" parent="1">
          <mxGeometry x="5080" y="1080" width="120" height="80" as="geometry" />
        </mxCell>
        <mxCell id="8zTujfosPJd3p6IDFqLK-284" value="&lt;font size=&quot;1&quot;&gt;&lt;b style=&quot;font-size: 22px;&quot;&gt;Graph&lt;/b&gt;&lt;/font&gt;&lt;font size=&quot;1&quot;&gt;&lt;b style=&quot;font-size: 22px;&quot;&gt;2&lt;/b&gt;&lt;/font&gt;" style="ellipse;whiteSpace=wrap;html=1;fillColor=#dae8fc;strokeColor=#6c8ebf;" vertex="1" parent="1">
          <mxGeometry x="5360" y="1080" width="120" height="80" as="geometry" />
        </mxCell>
        <mxCell id="8zTujfosPJd3p6IDFqLK-285" value="&lt;font size=&quot;1&quot;&gt;&lt;b style=&quot;font-size: 22px;&quot;&gt;Graph&lt;/b&gt;&lt;/font&gt;&lt;font size=&quot;1&quot;&gt;&lt;b style=&quot;font-size: 22px;&quot;&gt;5&lt;/b&gt;&lt;/font&gt;" style="ellipse;whiteSpace=wrap;html=1;fillColor=#f8cecc;strokeColor=#b85450;" vertex="1" parent="1">
          <mxGeometry x="5360" y="1240" width="120" height="80" as="geometry" />
        </mxCell>
        <mxCell id="8zTujfosPJd3p6IDFqLK-286" value="&lt;font size=&quot;1&quot;&gt;&lt;b style=&quot;font-size: 22px;&quot;&gt;Graph&lt;/b&gt;&lt;/font&gt;&lt;font size=&quot;1&quot;&gt;&lt;b style=&quot;font-size: 22px;&quot;&gt;3&lt;/b&gt;&lt;/font&gt;" style="ellipse;whiteSpace=wrap;html=1;fillColor=#d5e8d4;strokeColor=#82b366;" vertex="1" parent="1">
          <mxGeometry x="5220" y="1160" width="120" height="80" as="geometry" />
        </mxCell>
        <mxCell id="8zTujfosPJd3p6IDFqLK-287" value="&lt;font size=&quot;1&quot;&gt;&lt;b style=&quot;font-size: 22px;&quot;&gt;Graph5&lt;/b&gt;&lt;/font&gt;" style="ellipse;whiteSpace=wrap;html=1;fillColor=#f8cecc;strokeColor=#b85450;" vertex="1" parent="1">
          <mxGeometry x="5080" y="1240" width="120" height="80" as="geometry" />
        </mxCell>
        <mxCell id="8zTujfosPJd3p6IDFqLK-290" value="" style="endArrow=none;html=1;rounded=0;entryX=0.5;entryY=1;entryDx=0;entryDy=0;exitX=0;exitY=0.5;exitDx=0;exitDy=0;" edge="1" parent="1">
          <mxGeometry width="50" height="50" relative="1" as="geometry">
            <mxPoint x="780" y="1200" as="sourcePoint" />
            <mxPoint x="700" y="1160" as="targetPoint" />
          </mxGeometry>
        </mxCell>
        <mxCell id="8zTujfosPJd3p6IDFqLK-291" value="" style="endArrow=none;html=1;rounded=0;entryX=0.5;entryY=1;entryDx=0;entryDy=0;exitX=0;exitY=0.5;exitDx=0;exitDy=0;" edge="1" parent="1">
          <mxGeometry width="50" height="50" relative="1" as="geometry">
            <mxPoint x="920" y="1120" as="sourcePoint" />
            <mxPoint x="760" y="1120" as="targetPoint" />
          </mxGeometry>
        </mxCell>
        <mxCell id="8zTujfosPJd3p6IDFqLK-292" value="&lt;b&gt;&lt;font style=&quot;font-size: 24px;&quot;&gt;Perimeter&lt;/font&gt;&lt;/b&gt;" style="text;html=1;strokeColor=none;fillColor=none;align=center;verticalAlign=middle;whiteSpace=wrap;rounded=0;" vertex="1" parent="1">
          <mxGeometry x="435" y="1170" width="100" height="30" as="geometry" />
        </mxCell>
        <mxCell id="8zTujfosPJd3p6IDFqLK-294" value="&lt;b&gt;&lt;font style=&quot;font-size: 24px;&quot;&gt;Perimeter&lt;/font&gt;&lt;/b&gt;" style="text;html=1;strokeColor=none;fillColor=none;align=center;verticalAlign=middle;whiteSpace=wrap;rounded=0;" vertex="1" parent="1">
          <mxGeometry x="1210" y="1050" width="100" height="30" as="geometry" />
        </mxCell>
        <mxCell id="8zTujfosPJd3p6IDFqLK-296" value="&lt;b&gt;&lt;font style=&quot;font-size: 24px;&quot;&gt;Perimeter&lt;/font&gt;&lt;/b&gt;" style="text;html=1;strokeColor=none;fillColor=none;align=center;verticalAlign=middle;whiteSpace=wrap;rounded=0;" vertex="1" parent="1">
          <mxGeometry x="2330" y="1050" width="100" height="30" as="geometry" />
        </mxCell>
        <mxCell id="8zTujfosPJd3p6IDFqLK-297" value="&lt;b&gt;&lt;font style=&quot;font-size: 24px;&quot;&gt;Perimeter&lt;/font&gt;&lt;/b&gt;" style="text;html=1;strokeColor=none;fillColor=none;align=center;verticalAlign=middle;whiteSpace=wrap;rounded=0;" vertex="1" parent="1">
          <mxGeometry x="3730" y="1200" width="100" height="30" as="geometry" />
        </mxCell>
        <mxCell id="8zTujfosPJd3p6IDFqLK-299" value="&lt;b&gt;&lt;font style=&quot;font-size: 24px;&quot;&gt;Perimeter&lt;/font&gt;&lt;/b&gt;" style="text;html=1;strokeColor=none;fillColor=none;align=center;verticalAlign=middle;whiteSpace=wrap;rounded=0;" vertex="1" parent="1">
          <mxGeometry x="4570" y="1320" width="100" height="30" as="geometry" />
        </mxCell>
        <mxCell id="8zTujfosPJd3p6IDFqLK-301" value="" style="endArrow=none;html=1;rounded=0;entryX=0.5;entryY=1;entryDx=0;entryDy=0;exitX=0;exitY=0.5;exitDx=0;exitDy=0;" edge="1" parent="1">
          <mxGeometry width="50" height="50" relative="1" as="geometry">
            <mxPoint x="2000" y="1122.21" as="sourcePoint" />
            <mxPoint x="1840" y="1122.21" as="targetPoint" />
          </mxGeometry>
        </mxCell>
        <mxCell id="8zTujfosPJd3p6IDFqLK-302" value="" style="endArrow=none;html=1;rounded=0;entryX=0.5;entryY=1;entryDx=0;entryDy=0;exitX=0;exitY=0.5;exitDx=0;exitDy=0;" edge="1" parent="1">
          <mxGeometry width="50" height="50" relative="1" as="geometry">
            <mxPoint x="2980" y="1200" as="sourcePoint" />
            <mxPoint x="2900" y="1160" as="targetPoint" />
          </mxGeometry>
        </mxCell>
        <mxCell id="8zTujfosPJd3p6IDFqLK-304" value="" style="endArrow=none;html=1;rounded=0;entryX=0.5;entryY=1;entryDx=0;entryDy=0;exitX=0;exitY=0.5;exitDx=0;exitDy=0;" edge="1" parent="1">
          <mxGeometry width="50" height="50" relative="1" as="geometry">
            <mxPoint x="4240" y="1279.43" as="sourcePoint" />
            <mxPoint x="4080" y="1279.43" as="targetPoint" />
          </mxGeometry>
        </mxCell>
        <mxCell id="8zTujfosPJd3p6IDFqLK-307" value="" style="endArrow=none;html=1;rounded=0;entryX=0.5;entryY=1;entryDx=0;entryDy=0;exitX=0;exitY=0.5;exitDx=0;exitDy=0;" edge="1" parent="1">
          <mxGeometry width="50" height="50" relative="1" as="geometry">
            <mxPoint x="5360" y="1279.44" as="sourcePoint" />
            <mxPoint x="5200" y="1279.44" as="targetPoint" />
          </mxGeometry>
        </mxCell>
        <mxCell id="8zTujfosPJd3p6IDFqLK-310" value="" style="ellipse;whiteSpace=wrap;html=1;fillColor=#d5e8d4;strokeColor=#82b366;" vertex="1" parent="1">
          <mxGeometry x="2570" y="1502.5" width="180" height="115" as="geometry" />
        </mxCell>
        <mxCell id="8zTujfosPJd3p6IDFqLK-311" value="" style="ellipse;whiteSpace=wrap;html=1;fillColor=#dae8fc;strokeColor=#6c8ebf;" vertex="1" parent="1">
          <mxGeometry x="1317.5" y="1575" width="185" height="130" as="geometry" />
        </mxCell>
        <mxCell id="8zTujfosPJd3p6IDFqLK-313" value="&lt;font style=&quot;font-size: 24px;&quot;&gt;&lt;b&gt;&amp;nbsp;End of Iterations&lt;br&gt;&lt;/b&gt;&lt;/font&gt;" style="text;html=1;strokeColor=none;fillColor=none;align=center;verticalAlign=middle;whiteSpace=wrap;rounded=0;" vertex="1" parent="1">
          <mxGeometry x="460" y="1440" width="200" height="40" as="geometry" />
        </mxCell>
        <mxCell id="8zTujfosPJd3p6IDFqLK-314" value="&lt;font size=&quot;1&quot;&gt;&lt;b style=&quot;font-size: 22px;&quot;&gt;Node1&lt;/b&gt;&lt;/font&gt;" style="ellipse;whiteSpace=wrap;html=1;fillColor=#f5f5f5;fontColor=#333333;strokeColor=#666666;" vertex="1" parent="1">
          <mxGeometry x="120" y="1520" width="120" height="80" as="geometry" />
        </mxCell>
        <mxCell id="8zTujfosPJd3p6IDFqLK-315" value="&lt;font size=&quot;1&quot;&gt;&lt;b style=&quot;font-size: 22px;&quot;&gt;Node2&lt;/b&gt;&lt;/font&gt;" style="ellipse;whiteSpace=wrap;html=1;fillColor=#f5f5f5;strokeColor=#666666;fontColor=#333333;" vertex="1" parent="1">
          <mxGeometry x="400" y="1520" width="120" height="80" as="geometry" />
        </mxCell>
        <mxCell id="8zTujfosPJd3p6IDFqLK-317" value="&lt;font size=&quot;1&quot;&gt;&lt;b style=&quot;font-size: 22px;&quot;&gt;Node3&lt;/b&gt;&lt;/font&gt;" style="ellipse;whiteSpace=wrap;html=1;fillColor=#f5f5f5;strokeColor=#666666;fontColor=#333333;" vertex="1" parent="1">
          <mxGeometry x="260" y="1600" width="120" height="80" as="geometry" />
        </mxCell>
        <mxCell id="8zTujfosPJd3p6IDFqLK-319" value="" style="endArrow=none;html=1;rounded=0;entryX=0.5;entryY=1;entryDx=0;entryDy=0;exitX=0;exitY=0.5;exitDx=0;exitDy=0;" edge="1" parent="1" source="8zTujfosPJd3p6IDFqLK-317" target="8zTujfosPJd3p6IDFqLK-314">
          <mxGeometry width="50" height="50" relative="1" as="geometry">
            <mxPoint x="260" y="1680" as="sourcePoint" />
            <mxPoint x="500" y="1640" as="targetPoint" />
          </mxGeometry>
        </mxCell>
        <mxCell id="8zTujfosPJd3p6IDFqLK-320" value="" style="endArrow=none;html=1;rounded=0;entryX=0.5;entryY=1;entryDx=0;entryDy=0;exitX=0;exitY=0.5;exitDx=0;exitDy=0;" edge="1" parent="1" source="8zTujfosPJd3p6IDFqLK-315">
          <mxGeometry width="50" height="50" relative="1" as="geometry">
            <mxPoint x="325" y="1640" as="sourcePoint" />
            <mxPoint x="240" y="1560" as="targetPoint" />
          </mxGeometry>
        </mxCell>
        <mxCell id="8zTujfosPJd3p6IDFqLK-321" value="&lt;b&gt;&lt;font style=&quot;font-size: 24px;&quot;&gt;link (1,2)&lt;/font&gt;&lt;/b&gt;" style="text;html=1;strokeColor=none;fillColor=none;align=center;verticalAlign=middle;whiteSpace=wrap;rounded=0;" vertex="1" parent="1">
          <mxGeometry x="270" y="1530" width="100" height="30" as="geometry" />
        </mxCell>
        <mxCell id="8zTujfosPJd3p6IDFqLK-322" value="&lt;b&gt;&lt;font style=&quot;font-size: 24px;&quot;&gt;link (1,3)&lt;/font&gt;&lt;/b&gt;" style="text;html=1;strokeColor=none;fillColor=none;align=center;verticalAlign=middle;whiteSpace=wrap;rounded=0;" vertex="1" parent="1">
          <mxGeometry x="120" y="1620" width="120" height="30" as="geometry" />
        </mxCell>
        <mxCell id="8zTujfosPJd3p6IDFqLK-325" value="&lt;font size=&quot;1&quot;&gt;&lt;b style=&quot;font-size: 22px;&quot;&gt;Graph&lt;/b&gt;&lt;/font&gt;&lt;font size=&quot;1&quot;&gt;&lt;b style=&quot;font-size: 22px;&quot;&gt;1&lt;/b&gt;&lt;/font&gt;" style="ellipse;whiteSpace=wrap;html=1;fillColor=#f5f5f5;fontColor=#333333;strokeColor=#666666;" vertex="1" parent="1">
          <mxGeometry x="640" y="1520" width="120" height="80" as="geometry" />
        </mxCell>
        <mxCell id="8zTujfosPJd3p6IDFqLK-326" value="&lt;font size=&quot;1&quot;&gt;&lt;b style=&quot;font-size: 22px;&quot;&gt;Graph&lt;/b&gt;&lt;/font&gt;&lt;font size=&quot;1&quot;&gt;&lt;b style=&quot;font-size: 22px;&quot;&gt;1&lt;/b&gt;&lt;/font&gt;" style="ellipse;whiteSpace=wrap;html=1;fillColor=#f5f5f5;strokeColor=#666666;fontColor=#333333;" vertex="1" parent="1">
          <mxGeometry x="920" y="1520" width="120" height="80" as="geometry" />
        </mxCell>
        <mxCell id="8zTujfosPJd3p6IDFqLK-328" value="&lt;font size=&quot;1&quot;&gt;&lt;b style=&quot;font-size: 22px;&quot;&gt;Graph&lt;/b&gt;&lt;/font&gt;&lt;font size=&quot;1&quot;&gt;&lt;b style=&quot;font-size: 22px;&quot;&gt;1&lt;/b&gt;&lt;/font&gt;" style="ellipse;whiteSpace=wrap;html=1;fillColor=#f5f5f5;strokeColor=#666666;fontColor=#333333;" vertex="1" parent="1">
          <mxGeometry x="780" y="1600" width="120" height="80" as="geometry" />
        </mxCell>
        <mxCell id="8zTujfosPJd3p6IDFqLK-330" value="&lt;font style=&quot;font-size: 24px;&quot;&gt;&lt;b&gt;2nd Iteration&lt;br&gt;&lt;/b&gt;&lt;/font&gt;" style="text;html=1;strokeColor=none;fillColor=none;align=center;verticalAlign=middle;whiteSpace=wrap;rounded=0;" vertex="1" parent="1">
          <mxGeometry x="1540" y="1440" width="200" height="40" as="geometry" />
        </mxCell>
        <mxCell id="8zTujfosPJd3p6IDFqLK-331" value="&lt;font size=&quot;1&quot;&gt;&lt;b style=&quot;font-size: 22px;&quot;&gt;Node1&lt;/b&gt;&lt;/font&gt;" style="ellipse;whiteSpace=wrap;html=1;fillColor=#dae8fc;strokeColor=#6c8ebf;" vertex="1" parent="1">
          <mxGeometry x="1200" y="1520" width="120" height="80" as="geometry" />
        </mxCell>
        <mxCell id="8zTujfosPJd3p6IDFqLK-332" value="&lt;font size=&quot;1&quot;&gt;&lt;b style=&quot;font-size: 22px;&quot;&gt;Node2&lt;/b&gt;&lt;/font&gt;" style="ellipse;whiteSpace=wrap;html=1;fillColor=#dae8fc;strokeColor=#6c8ebf;" vertex="1" parent="1">
          <mxGeometry x="1480" y="1520" width="120" height="80" as="geometry" />
        </mxCell>
        <mxCell id="8zTujfosPJd3p6IDFqLK-333" value="&lt;font size=&quot;1&quot;&gt;&lt;b style=&quot;font-size: 22px;&quot;&gt;Node5&lt;/b&gt;&lt;/font&gt;" style="ellipse;whiteSpace=wrap;html=1;fillColor=#f8cecc;strokeColor=#b85450;" vertex="1" parent="1">
          <mxGeometry x="1480" y="1680" width="120" height="80" as="geometry" />
        </mxCell>
        <mxCell id="8zTujfosPJd3p6IDFqLK-334" value="&lt;font size=&quot;1&quot;&gt;&lt;b style=&quot;font-size: 22px;&quot;&gt;Node3&lt;/b&gt;&lt;/font&gt;" style="ellipse;whiteSpace=wrap;html=1;fillColor=#d5e8d4;strokeColor=#82b366;" vertex="1" parent="1">
          <mxGeometry x="1340" y="1600" width="120" height="80" as="geometry" />
        </mxCell>
        <mxCell id="8zTujfosPJd3p6IDFqLK-335" value="&lt;font size=&quot;1&quot;&gt;&lt;b style=&quot;font-size: 22px;&quot;&gt;Node4&lt;/b&gt;&lt;/font&gt;" style="ellipse;whiteSpace=wrap;html=1;fillColor=#ffe6cc;strokeColor=#d79b00;" vertex="1" parent="1">
          <mxGeometry x="1200" y="1680" width="120" height="80" as="geometry" />
        </mxCell>
        <mxCell id="8zTujfosPJd3p6IDFqLK-336" value="" style="endArrow=none;html=1;rounded=0;entryX=0.5;entryY=1;entryDx=0;entryDy=0;exitX=0;exitY=0.5;exitDx=0;exitDy=0;" edge="1" parent="1" source="8zTujfosPJd3p6IDFqLK-334" target="8zTujfosPJd3p6IDFqLK-331">
          <mxGeometry width="50" height="50" relative="1" as="geometry">
            <mxPoint x="1340" y="1680" as="sourcePoint" />
            <mxPoint x="1580" y="1640" as="targetPoint" />
          </mxGeometry>
        </mxCell>
        <mxCell id="8zTujfosPJd3p6IDFqLK-337" value="" style="endArrow=none;html=1;rounded=0;entryX=0.5;entryY=1;entryDx=0;entryDy=0;exitX=0;exitY=0.5;exitDx=0;exitDy=0;" edge="1" parent="1" source="8zTujfosPJd3p6IDFqLK-332">
          <mxGeometry width="50" height="50" relative="1" as="geometry">
            <mxPoint x="1405" y="1640" as="sourcePoint" />
            <mxPoint x="1320" y="1560" as="targetPoint" />
          </mxGeometry>
        </mxCell>
        <mxCell id="8zTujfosPJd3p6IDFqLK-338" value="&lt;b&gt;&lt;font style=&quot;font-size: 24px;&quot;&gt;link (1,2)&lt;/font&gt;&lt;/b&gt;" style="text;html=1;strokeColor=none;fillColor=none;align=center;verticalAlign=middle;whiteSpace=wrap;rounded=0;" vertex="1" parent="1">
          <mxGeometry x="1350" y="1530" width="100" height="30" as="geometry" />
        </mxCell>
        <mxCell id="8zTujfosPJd3p6IDFqLK-339" value="&lt;b&gt;&lt;font style=&quot;font-size: 24px;&quot;&gt;link (1,3)&lt;/font&gt;&lt;/b&gt;" style="text;html=1;strokeColor=none;fillColor=none;align=center;verticalAlign=middle;whiteSpace=wrap;rounded=0;" vertex="1" parent="1">
          <mxGeometry x="1200" y="1620" width="120" height="30" as="geometry" />
        </mxCell>
        <mxCell id="8zTujfosPJd3p6IDFqLK-340" value="&lt;b&gt;&lt;font style=&quot;font-size: 24px;&quot;&gt;link (4,5)&lt;/font&gt;&lt;/b&gt;" style="text;html=1;strokeColor=none;fillColor=none;align=center;verticalAlign=middle;whiteSpace=wrap;rounded=0;" vertex="1" parent="1">
          <mxGeometry x="1330" y="1720" width="130" height="30" as="geometry" />
        </mxCell>
        <mxCell id="8zTujfosPJd3p6IDFqLK-341" value="" style="endArrow=none;html=1;rounded=0;entryX=0.5;entryY=1;entryDx=0;entryDy=0;exitX=0;exitY=0.5;exitDx=0;exitDy=0;" edge="1" parent="1" source="8zTujfosPJd3p6IDFqLK-333">
          <mxGeometry width="50" height="50" relative="1" as="geometry">
            <mxPoint x="1400" y="1760" as="sourcePoint" />
            <mxPoint x="1320" y="1720" as="targetPoint" />
          </mxGeometry>
        </mxCell>
        <mxCell id="8zTujfosPJd3p6IDFqLK-342" value="&lt;font size=&quot;1&quot;&gt;&lt;b style=&quot;font-size: 22px;&quot;&gt;Graph&lt;/b&gt;&lt;/font&gt;&lt;font size=&quot;1&quot;&gt;&lt;b style=&quot;font-size: 22px;&quot;&gt;2&lt;/b&gt;&lt;/font&gt;" style="ellipse;whiteSpace=wrap;html=1;fillColor=#dae8fc;strokeColor=#6c8ebf;" vertex="1" parent="1">
          <mxGeometry x="1720" y="1520" width="120" height="80" as="geometry" />
        </mxCell>
        <mxCell id="8zTujfosPJd3p6IDFqLK-343" value="&lt;font size=&quot;1&quot;&gt;&lt;b style=&quot;font-size: 22px;&quot;&gt;Graph&lt;/b&gt;&lt;/font&gt;&lt;font size=&quot;1&quot;&gt;&lt;b style=&quot;font-size: 22px;&quot;&gt;2&lt;/b&gt;&lt;/font&gt;" style="ellipse;whiteSpace=wrap;html=1;fillColor=#dae8fc;strokeColor=#6c8ebf;" vertex="1" parent="1">
          <mxGeometry x="2000" y="1520" width="120" height="80" as="geometry" />
        </mxCell>
        <mxCell id="8zTujfosPJd3p6IDFqLK-344" value="&lt;font size=&quot;1&quot;&gt;&lt;b style=&quot;font-size: 22px;&quot;&gt;Graph&lt;/b&gt;&lt;/font&gt;&lt;font size=&quot;1&quot;&gt;&lt;b style=&quot;font-size: 22px;&quot;&gt;5&lt;/b&gt;&lt;/font&gt;" style="ellipse;whiteSpace=wrap;html=1;fillColor=#f8cecc;strokeColor=#b85450;" vertex="1" parent="1">
          <mxGeometry x="2000" y="1680" width="120" height="80" as="geometry" />
        </mxCell>
        <mxCell id="8zTujfosPJd3p6IDFqLK-345" value="&lt;font size=&quot;1&quot;&gt;&lt;b style=&quot;font-size: 22px;&quot;&gt;Graph2&lt;/b&gt;&lt;/font&gt;" style="ellipse;whiteSpace=wrap;html=1;fillColor=#dae8fc;strokeColor=#6c8ebf;" vertex="1" parent="1">
          <mxGeometry x="1860" y="1600" width="120" height="80" as="geometry" />
        </mxCell>
        <mxCell id="8zTujfosPJd3p6IDFqLK-346" value="&lt;font size=&quot;1&quot;&gt;&lt;b style=&quot;font-size: 22px;&quot;&gt;Graph4&lt;/b&gt;&lt;/font&gt;" style="ellipse;whiteSpace=wrap;html=1;fillColor=#ffe6cc;strokeColor=#d79b00;" vertex="1" parent="1">
          <mxGeometry x="1720" y="1680" width="120" height="80" as="geometry" />
        </mxCell>
        <mxCell id="8zTujfosPJd3p6IDFqLK-347" value="&lt;font style=&quot;font-size: 24px;&quot;&gt;&lt;b&gt;&amp;nbsp;2nd Iteration&lt;br&gt;&lt;/b&gt;&lt;/font&gt;" style="text;html=1;strokeColor=none;fillColor=none;align=center;verticalAlign=middle;whiteSpace=wrap;rounded=0;" vertex="1" parent="1">
          <mxGeometry x="2660" y="1440" width="200" height="40" as="geometry" />
        </mxCell>
        <mxCell id="8zTujfosPJd3p6IDFqLK-348" value="&lt;font size=&quot;1&quot;&gt;&lt;b style=&quot;font-size: 22px;&quot;&gt;Node1&lt;/b&gt;&lt;/font&gt;" style="ellipse;whiteSpace=wrap;html=1;fillColor=#d5e8d4;strokeColor=#82b366;" vertex="1" parent="1">
          <mxGeometry x="2320" y="1520" width="120" height="80" as="geometry" />
        </mxCell>
        <mxCell id="8zTujfosPJd3p6IDFqLK-349" value="&lt;font size=&quot;1&quot;&gt;&lt;b style=&quot;font-size: 22px;&quot;&gt;Node2&lt;/b&gt;&lt;/font&gt;" style="ellipse;whiteSpace=wrap;html=1;fillColor=#dae8fc;strokeColor=#6c8ebf;" vertex="1" parent="1">
          <mxGeometry x="2600" y="1520" width="120" height="80" as="geometry" />
        </mxCell>
        <mxCell id="8zTujfosPJd3p6IDFqLK-350" value="&lt;font size=&quot;1&quot;&gt;&lt;b style=&quot;font-size: 22px;&quot;&gt;Node5&lt;/b&gt;&lt;/font&gt;" style="ellipse;whiteSpace=wrap;html=1;fillColor=#f8cecc;strokeColor=#b85450;" vertex="1" parent="1">
          <mxGeometry x="2600" y="1680" width="120" height="80" as="geometry" />
        </mxCell>
        <mxCell id="8zTujfosPJd3p6IDFqLK-351" value="&lt;font size=&quot;1&quot;&gt;&lt;b style=&quot;font-size: 22px;&quot;&gt;Node3&lt;/b&gt;&lt;/font&gt;" style="ellipse;whiteSpace=wrap;html=1;fillColor=#d5e8d4;strokeColor=#82b366;" vertex="1" parent="1">
          <mxGeometry x="2460" y="1600" width="120" height="80" as="geometry" />
        </mxCell>
        <mxCell id="8zTujfosPJd3p6IDFqLK-352" value="&lt;font size=&quot;1&quot;&gt;&lt;b style=&quot;font-size: 22px;&quot;&gt;Node4&lt;/b&gt;&lt;/font&gt;" style="ellipse;whiteSpace=wrap;html=1;fillColor=#ffe6cc;strokeColor=#d79b00;" vertex="1" parent="1">
          <mxGeometry x="2320" y="1680" width="120" height="80" as="geometry" />
        </mxCell>
        <mxCell id="8zTujfosPJd3p6IDFqLK-353" value="" style="endArrow=none;html=1;rounded=0;entryX=0.5;entryY=1;entryDx=0;entryDy=0;exitX=0;exitY=0.5;exitDx=0;exitDy=0;" edge="1" parent="1" source="8zTujfosPJd3p6IDFqLK-351" target="8zTujfosPJd3p6IDFqLK-348">
          <mxGeometry width="50" height="50" relative="1" as="geometry">
            <mxPoint x="2460" y="1680" as="sourcePoint" />
            <mxPoint x="2700" y="1640" as="targetPoint" />
          </mxGeometry>
        </mxCell>
        <mxCell id="8zTujfosPJd3p6IDFqLK-354" value="" style="endArrow=none;html=1;rounded=0;entryX=0.5;entryY=1;entryDx=0;entryDy=0;exitX=0;exitY=0.5;exitDx=0;exitDy=0;" edge="1" parent="1" source="8zTujfosPJd3p6IDFqLK-349">
          <mxGeometry width="50" height="50" relative="1" as="geometry">
            <mxPoint x="2525" y="1640" as="sourcePoint" />
            <mxPoint x="2440" y="1560" as="targetPoint" />
          </mxGeometry>
        </mxCell>
        <mxCell id="8zTujfosPJd3p6IDFqLK-355" value="&lt;b&gt;&lt;font style=&quot;font-size: 24px;&quot;&gt;link (1,2)&lt;/font&gt;&lt;/b&gt;" style="text;html=1;strokeColor=none;fillColor=none;align=center;verticalAlign=middle;whiteSpace=wrap;rounded=0;" vertex="1" parent="1">
          <mxGeometry x="2470" y="1530" width="100" height="30" as="geometry" />
        </mxCell>
        <mxCell id="8zTujfosPJd3p6IDFqLK-356" value="&lt;b&gt;&lt;font style=&quot;font-size: 24px;&quot;&gt;link (1,3)&lt;/font&gt;&lt;/b&gt;" style="text;html=1;strokeColor=none;fillColor=none;align=center;verticalAlign=middle;whiteSpace=wrap;rounded=0;" vertex="1" parent="1">
          <mxGeometry x="2320" y="1620" width="120" height="30" as="geometry" />
        </mxCell>
        <mxCell id="8zTujfosPJd3p6IDFqLK-357" value="&lt;b&gt;&lt;font style=&quot;font-size: 24px;&quot;&gt;link (4,5)&lt;/font&gt;&lt;/b&gt;" style="text;html=1;strokeColor=none;fillColor=none;align=center;verticalAlign=middle;whiteSpace=wrap;rounded=0;" vertex="1" parent="1">
          <mxGeometry x="2450" y="1720" width="130" height="30" as="geometry" />
        </mxCell>
        <mxCell id="8zTujfosPJd3p6IDFqLK-358" value="" style="endArrow=none;html=1;rounded=0;entryX=0.5;entryY=1;entryDx=0;entryDy=0;exitX=0;exitY=0.5;exitDx=0;exitDy=0;" edge="1" parent="1" source="8zTujfosPJd3p6IDFqLK-350">
          <mxGeometry width="50" height="50" relative="1" as="geometry">
            <mxPoint x="2520" y="1760" as="sourcePoint" />
            <mxPoint x="2440" y="1720" as="targetPoint" />
          </mxGeometry>
        </mxCell>
        <mxCell id="8zTujfosPJd3p6IDFqLK-359" value="&lt;font size=&quot;1&quot;&gt;&lt;b style=&quot;font-size: 22px;&quot;&gt;Graph&lt;/b&gt;&lt;/font&gt;&lt;font size=&quot;1&quot;&gt;&lt;b style=&quot;font-size: 22px;&quot;&gt;3&lt;/b&gt;&lt;/font&gt;" style="ellipse;whiteSpace=wrap;html=1;fillColor=#d5e8d4;strokeColor=#82b366;" vertex="1" parent="1">
          <mxGeometry x="2840" y="1520" width="120" height="80" as="geometry" />
        </mxCell>
        <mxCell id="8zTujfosPJd3p6IDFqLK-360" value="&lt;font size=&quot;1&quot;&gt;&lt;b style=&quot;font-size: 22px;&quot;&gt;Graph&lt;/b&gt;&lt;/font&gt;&lt;font size=&quot;1&quot;&gt;&lt;b style=&quot;font-size: 22px;&quot;&gt;3&lt;/b&gt;&lt;/font&gt;" style="ellipse;whiteSpace=wrap;html=1;fillColor=#d5e8d4;strokeColor=#82b366;" vertex="1" parent="1">
          <mxGeometry x="3120" y="1520" width="120" height="80" as="geometry" />
        </mxCell>
        <mxCell id="8zTujfosPJd3p6IDFqLK-361" value="&lt;font size=&quot;1&quot;&gt;&lt;b style=&quot;font-size: 22px;&quot;&gt;Graph&lt;/b&gt;&lt;/font&gt;&lt;font size=&quot;1&quot;&gt;&lt;b style=&quot;font-size: 22px;&quot;&gt;5&lt;/b&gt;&lt;/font&gt;" style="ellipse;whiteSpace=wrap;html=1;fillColor=#f8cecc;strokeColor=#b85450;" vertex="1" parent="1">
          <mxGeometry x="3120" y="1680" width="120" height="80" as="geometry" />
        </mxCell>
        <mxCell id="8zTujfosPJd3p6IDFqLK-362" value="&lt;font size=&quot;1&quot;&gt;&lt;b style=&quot;font-size: 22px;&quot;&gt;Graph&lt;/b&gt;&lt;/font&gt;&lt;font size=&quot;1&quot;&gt;&lt;b style=&quot;font-size: 22px;&quot;&gt;3&lt;/b&gt;&lt;/font&gt;" style="ellipse;whiteSpace=wrap;html=1;fillColor=#d5e8d4;strokeColor=#82b366;" vertex="1" parent="1">
          <mxGeometry x="2980" y="1600" width="120" height="80" as="geometry" />
        </mxCell>
        <mxCell id="8zTujfosPJd3p6IDFqLK-363" value="&lt;font size=&quot;1&quot;&gt;&lt;b style=&quot;font-size: 22px;&quot;&gt;Graph4&lt;/b&gt;&lt;/font&gt;" style="ellipse;whiteSpace=wrap;html=1;fillColor=#ffe6cc;strokeColor=#d79b00;" vertex="1" parent="1">
          <mxGeometry x="2840" y="1680" width="120" height="80" as="geometry" />
        </mxCell>
        <mxCell id="8zTujfosPJd3p6IDFqLK-364" value="&lt;font style=&quot;font-size: 24px;&quot;&gt;&lt;b&gt;&amp;nbsp;End of Iterations&lt;br&gt;&lt;/b&gt;&lt;/font&gt;" style="text;html=1;strokeColor=none;fillColor=none;align=center;verticalAlign=middle;whiteSpace=wrap;rounded=0;" vertex="1" parent="1">
          <mxGeometry x="3780" y="1440" width="200" height="40" as="geometry" />
        </mxCell>
        <mxCell id="8zTujfosPJd3p6IDFqLK-367" value="&lt;font size=&quot;1&quot;&gt;&lt;b style=&quot;font-size: 22px;&quot;&gt;Node5&lt;/b&gt;&lt;/font&gt;" style="ellipse;whiteSpace=wrap;html=1;fillColor=#ffe6cc;strokeColor=#d79b00;" vertex="1" parent="1">
          <mxGeometry x="3720" y="1680" width="120" height="80" as="geometry" />
        </mxCell>
        <mxCell id="8zTujfosPJd3p6IDFqLK-369" value="&lt;font size=&quot;1&quot;&gt;&lt;b style=&quot;font-size: 22px;&quot;&gt;Node4&lt;/b&gt;&lt;/font&gt;" style="ellipse;whiteSpace=wrap;html=1;fillColor=#ffe6cc;strokeColor=#d79b00;" vertex="1" parent="1">
          <mxGeometry x="3440" y="1680" width="120" height="80" as="geometry" />
        </mxCell>
        <mxCell id="8zTujfosPJd3p6IDFqLK-374" value="&lt;b&gt;&lt;font style=&quot;font-size: 24px;&quot;&gt;link (4,5)&lt;/font&gt;&lt;/b&gt;" style="text;html=1;strokeColor=none;fillColor=none;align=center;verticalAlign=middle;whiteSpace=wrap;rounded=0;" vertex="1" parent="1">
          <mxGeometry x="3570" y="1720" width="130" height="30" as="geometry" />
        </mxCell>
        <mxCell id="8zTujfosPJd3p6IDFqLK-375" value="" style="endArrow=none;html=1;rounded=0;entryX=0.5;entryY=1;entryDx=0;entryDy=0;exitX=0;exitY=0.5;exitDx=0;exitDy=0;" edge="1" parent="1" source="8zTujfosPJd3p6IDFqLK-367">
          <mxGeometry width="50" height="50" relative="1" as="geometry">
            <mxPoint x="3640" y="1760" as="sourcePoint" />
            <mxPoint x="3560" y="1720" as="targetPoint" />
          </mxGeometry>
        </mxCell>
        <mxCell id="8zTujfosPJd3p6IDFqLK-378" value="&lt;font size=&quot;1&quot;&gt;&lt;b style=&quot;font-size: 22px;&quot;&gt;Graph&lt;/b&gt;&lt;/font&gt;&lt;font size=&quot;1&quot;&gt;&lt;b style=&quot;font-size: 22px;&quot;&gt;4&lt;/b&gt;&lt;/font&gt;" style="ellipse;whiteSpace=wrap;html=1;fillColor=#ffe6cc;strokeColor=#d79b00;" vertex="1" parent="1">
          <mxGeometry x="4240" y="1680" width="120" height="80" as="geometry" />
        </mxCell>
        <mxCell id="8zTujfosPJd3p6IDFqLK-380" value="&lt;font size=&quot;1&quot;&gt;&lt;b style=&quot;font-size: 22px;&quot;&gt;Graph4&lt;/b&gt;&lt;/font&gt;" style="ellipse;whiteSpace=wrap;html=1;fillColor=#ffe6cc;strokeColor=#d79b00;" vertex="1" parent="1">
          <mxGeometry x="3960" y="1680" width="120" height="80" as="geometry" />
        </mxCell>
        <mxCell id="8zTujfosPJd3p6IDFqLK-381" value="&lt;font style=&quot;font-size: 24px;&quot;&gt;&lt;b&gt;&amp;nbsp;End of Iterations&lt;br&gt;&lt;/b&gt;&lt;/font&gt;" style="text;html=1;strokeColor=none;fillColor=none;align=center;verticalAlign=middle;whiteSpace=wrap;rounded=0;" vertex="1" parent="1">
          <mxGeometry x="4900" y="1440" width="200" height="40" as="geometry" />
        </mxCell>
        <mxCell id="8zTujfosPJd3p6IDFqLK-384" value="&lt;font size=&quot;1&quot;&gt;&lt;b style=&quot;font-size: 22px;&quot;&gt;Node5&lt;/b&gt;&lt;/font&gt;" style="ellipse;whiteSpace=wrap;html=1;fillColor=#f8cecc;strokeColor=#b85450;" vertex="1" parent="1">
          <mxGeometry x="4840" y="1680" width="120" height="80" as="geometry" />
        </mxCell>
        <mxCell id="8zTujfosPJd3p6IDFqLK-386" value="&lt;font size=&quot;1&quot;&gt;&lt;b style=&quot;font-size: 22px;&quot;&gt;Node4&lt;/b&gt;&lt;/font&gt;" style="ellipse;whiteSpace=wrap;html=1;fillColor=#f8cecc;strokeColor=#b85450;" vertex="1" parent="1">
          <mxGeometry x="4560" y="1680" width="120" height="80" as="geometry" />
        </mxCell>
        <mxCell id="8zTujfosPJd3p6IDFqLK-391" value="&lt;b&gt;&lt;font style=&quot;font-size: 24px;&quot;&gt;link (4,5)&lt;/font&gt;&lt;/b&gt;" style="text;html=1;strokeColor=none;fillColor=none;align=center;verticalAlign=middle;whiteSpace=wrap;rounded=0;" vertex="1" parent="1">
          <mxGeometry x="4690" y="1720" width="130" height="30" as="geometry" />
        </mxCell>
        <mxCell id="8zTujfosPJd3p6IDFqLK-392" value="" style="endArrow=none;html=1;rounded=0;entryX=0.5;entryY=1;entryDx=0;entryDy=0;exitX=0;exitY=0.5;exitDx=0;exitDy=0;" edge="1" parent="1" source="8zTujfosPJd3p6IDFqLK-384">
          <mxGeometry width="50" height="50" relative="1" as="geometry">
            <mxPoint x="4760" y="1760" as="sourcePoint" />
            <mxPoint x="4680" y="1720" as="targetPoint" />
          </mxGeometry>
        </mxCell>
        <mxCell id="8zTujfosPJd3p6IDFqLK-395" value="&lt;font size=&quot;1&quot;&gt;&lt;b style=&quot;font-size: 22px;&quot;&gt;Graph&lt;/b&gt;&lt;/font&gt;&lt;font size=&quot;1&quot;&gt;&lt;b style=&quot;font-size: 22px;&quot;&gt;5&lt;/b&gt;&lt;/font&gt;" style="ellipse;whiteSpace=wrap;html=1;fillColor=#f8cecc;strokeColor=#b85450;" vertex="1" parent="1">
          <mxGeometry x="5360" y="1680" width="120" height="80" as="geometry" />
        </mxCell>
        <mxCell id="8zTujfosPJd3p6IDFqLK-397" value="&lt;font size=&quot;1&quot;&gt;&lt;b style=&quot;font-size: 22px;&quot;&gt;Graph5&lt;/b&gt;&lt;/font&gt;" style="ellipse;whiteSpace=wrap;html=1;fillColor=#f8cecc;strokeColor=#b85450;" vertex="1" parent="1">
          <mxGeometry x="5080" y="1680" width="120" height="80" as="geometry" />
        </mxCell>
        <mxCell id="8zTujfosPJd3p6IDFqLK-398" value="" style="endArrow=none;html=1;rounded=0;entryX=0.5;entryY=1;entryDx=0;entryDy=0;exitX=0;exitY=0.5;exitDx=0;exitDy=0;" edge="1" parent="1">
          <mxGeometry width="50" height="50" relative="1" as="geometry">
            <mxPoint x="780" y="1640" as="sourcePoint" />
            <mxPoint x="700" y="1600" as="targetPoint" />
          </mxGeometry>
        </mxCell>
        <mxCell id="8zTujfosPJd3p6IDFqLK-399" value="" style="endArrow=none;html=1;rounded=0;entryX=0.5;entryY=1;entryDx=0;entryDy=0;exitX=0;exitY=0.5;exitDx=0;exitDy=0;" edge="1" parent="1">
          <mxGeometry width="50" height="50" relative="1" as="geometry">
            <mxPoint x="920" y="1560" as="sourcePoint" />
            <mxPoint x="760" y="1560" as="targetPoint" />
          </mxGeometry>
        </mxCell>
        <mxCell id="8zTujfosPJd3p6IDFqLK-401" value="&lt;b&gt;&lt;font style=&quot;font-size: 24px;&quot;&gt;Perimeter&lt;/font&gt;&lt;/b&gt;" style="text;html=1;strokeColor=none;fillColor=none;align=center;verticalAlign=middle;whiteSpace=wrap;rounded=0;" vertex="1" parent="1">
          <mxGeometry x="1360" y="1570" width="100" height="30" as="geometry" />
        </mxCell>
        <mxCell id="8zTujfosPJd3p6IDFqLK-402" value="&lt;b&gt;&lt;font style=&quot;font-size: 24px;&quot;&gt;Perimeter&lt;/font&gt;&lt;/b&gt;" style="text;html=1;strokeColor=none;fillColor=none;align=center;verticalAlign=middle;whiteSpace=wrap;rounded=0;" vertex="1" parent="1">
          <mxGeometry x="2610" y="1490" width="100" height="30" as="geometry" />
        </mxCell>
        <mxCell id="8zTujfosPJd3p6IDFqLK-405" value="" style="endArrow=none;html=1;rounded=0;entryX=0.5;entryY=1;entryDx=0;entryDy=0;exitX=0;exitY=0.5;exitDx=0;exitDy=0;" edge="1" parent="1">
          <mxGeometry width="50" height="50" relative="1" as="geometry">
            <mxPoint x="2000" y="1562.21" as="sourcePoint" />
            <mxPoint x="1840" y="1562.21" as="targetPoint" />
          </mxGeometry>
        </mxCell>
        <mxCell id="8zTujfosPJd3p6IDFqLK-406" value="" style="endArrow=none;html=1;rounded=0;entryX=0.5;entryY=1;entryDx=0;entryDy=0;exitX=0;exitY=0.5;exitDx=0;exitDy=0;" edge="1" parent="1">
          <mxGeometry width="50" height="50" relative="1" as="geometry">
            <mxPoint x="2980" y="1640" as="sourcePoint" />
            <mxPoint x="2900" y="1600" as="targetPoint" />
          </mxGeometry>
        </mxCell>
        <mxCell id="8zTujfosPJd3p6IDFqLK-407" value="" style="endArrow=none;html=1;rounded=0;entryX=0.5;entryY=1;entryDx=0;entryDy=0;exitX=0;exitY=0.5;exitDx=0;exitDy=0;" edge="1" parent="1">
          <mxGeometry width="50" height="50" relative="1" as="geometry">
            <mxPoint x="4240" y="1719.43" as="sourcePoint" />
            <mxPoint x="4080" y="1719.43" as="targetPoint" />
          </mxGeometry>
        </mxCell>
        <mxCell id="8zTujfosPJd3p6IDFqLK-408" value="" style="endArrow=none;html=1;rounded=0;entryX=0.5;entryY=1;entryDx=0;entryDy=0;exitX=0;exitY=0.5;exitDx=0;exitDy=0;" edge="1" parent="1">
          <mxGeometry width="50" height="50" relative="1" as="geometry">
            <mxPoint x="5360" y="1719.44" as="sourcePoint" />
            <mxPoint x="5200" y="1719.44" as="targetPoint" />
          </mxGeometry>
        </mxCell>
        <mxCell id="8zTujfosPJd3p6IDFqLK-409" value="" style="endArrow=none;html=1;rounded=0;entryX=0.5;entryY=1;entryDx=0;entryDy=0;exitX=0;exitY=0.5;exitDx=0;exitDy=0;" edge="1" parent="1">
          <mxGeometry width="50" height="50" relative="1" as="geometry">
            <mxPoint x="1860" y="1640" as="sourcePoint" />
            <mxPoint x="1780" y="1600" as="targetPoint" />
          </mxGeometry>
        </mxCell>
        <mxCell id="8zTujfosPJd3p6IDFqLK-412" value="" style="endArrow=none;html=1;rounded=0;entryX=0.5;entryY=1;entryDx=0;entryDy=0;exitX=0;exitY=0.5;exitDx=0;exitDy=0;" edge="1" parent="1">
          <mxGeometry width="50" height="50" relative="1" as="geometry">
            <mxPoint x="3120" y="1558.95" as="sourcePoint" />
            <mxPoint x="2960" y="1558.95" as="targetPoint" />
          </mxGeometry>
        </mxCell>
        <mxCell id="8zTujfosPJd3p6IDFqLK-415" value="&lt;font style=&quot;font-size: 24px;&quot;&gt;&lt;b&gt;End of Iterations&lt;br&gt;&lt;/b&gt;&lt;/font&gt;" style="text;html=1;strokeColor=none;fillColor=none;align=center;verticalAlign=middle;whiteSpace=wrap;rounded=0;" vertex="1" parent="1">
          <mxGeometry x="1540" y="1880" width="200" height="40" as="geometry" />
        </mxCell>
        <mxCell id="8zTujfosPJd3p6IDFqLK-416" value="&lt;font size=&quot;1&quot;&gt;&lt;b style=&quot;font-size: 22px;&quot;&gt;Node1&lt;/b&gt;&lt;/font&gt;" style="ellipse;whiteSpace=wrap;html=1;fillColor=#dae8fc;strokeColor=#6c8ebf;" vertex="1" parent="1">
          <mxGeometry x="1200" y="1960" width="120" height="80" as="geometry" />
        </mxCell>
        <mxCell id="8zTujfosPJd3p6IDFqLK-417" value="&lt;font size=&quot;1&quot;&gt;&lt;b style=&quot;font-size: 22px;&quot;&gt;Node2&lt;/b&gt;&lt;/font&gt;" style="ellipse;whiteSpace=wrap;html=1;fillColor=#dae8fc;strokeColor=#6c8ebf;" vertex="1" parent="1">
          <mxGeometry x="1480" y="1960" width="120" height="80" as="geometry" />
        </mxCell>
        <mxCell id="8zTujfosPJd3p6IDFqLK-419" value="&lt;font size=&quot;1&quot;&gt;&lt;b style=&quot;font-size: 22px;&quot;&gt;Node3&lt;/b&gt;&lt;/font&gt;" style="ellipse;whiteSpace=wrap;html=1;fillColor=#dae8fc;strokeColor=#6c8ebf;" vertex="1" parent="1">
          <mxGeometry x="1340" y="2040" width="120" height="80" as="geometry" />
        </mxCell>
        <mxCell id="8zTujfosPJd3p6IDFqLK-421" value="" style="endArrow=none;html=1;rounded=0;entryX=0.5;entryY=1;entryDx=0;entryDy=0;exitX=0;exitY=0.5;exitDx=0;exitDy=0;" edge="1" parent="1" source="8zTujfosPJd3p6IDFqLK-419" target="8zTujfosPJd3p6IDFqLK-416">
          <mxGeometry width="50" height="50" relative="1" as="geometry">
            <mxPoint x="1340" y="2120" as="sourcePoint" />
            <mxPoint x="1580" y="2080" as="targetPoint" />
          </mxGeometry>
        </mxCell>
        <mxCell id="8zTujfosPJd3p6IDFqLK-422" value="" style="endArrow=none;html=1;rounded=0;entryX=0.5;entryY=1;entryDx=0;entryDy=0;exitX=0;exitY=0.5;exitDx=0;exitDy=0;" edge="1" parent="1" source="8zTujfosPJd3p6IDFqLK-417">
          <mxGeometry width="50" height="50" relative="1" as="geometry">
            <mxPoint x="1405" y="2080" as="sourcePoint" />
            <mxPoint x="1320" y="2000" as="targetPoint" />
          </mxGeometry>
        </mxCell>
        <mxCell id="8zTujfosPJd3p6IDFqLK-423" value="&lt;b&gt;&lt;font style=&quot;font-size: 24px;&quot;&gt;link (1,2)&lt;/font&gt;&lt;/b&gt;" style="text;html=1;strokeColor=none;fillColor=none;align=center;verticalAlign=middle;whiteSpace=wrap;rounded=0;" vertex="1" parent="1">
          <mxGeometry x="1350" y="1970" width="100" height="30" as="geometry" />
        </mxCell>
        <mxCell id="8zTujfosPJd3p6IDFqLK-424" value="&lt;b&gt;&lt;font style=&quot;font-size: 24px;&quot;&gt;link (1,3)&lt;/font&gt;&lt;/b&gt;" style="text;html=1;strokeColor=none;fillColor=none;align=center;verticalAlign=middle;whiteSpace=wrap;rounded=0;" vertex="1" parent="1">
          <mxGeometry x="1200" y="2060" width="120" height="30" as="geometry" />
        </mxCell>
        <mxCell id="8zTujfosPJd3p6IDFqLK-427" value="&lt;font size=&quot;1&quot;&gt;&lt;b style=&quot;font-size: 22px;&quot;&gt;Graph&lt;/b&gt;&lt;/font&gt;&lt;font size=&quot;1&quot;&gt;&lt;b style=&quot;font-size: 22px;&quot;&gt;2&lt;/b&gt;&lt;/font&gt;" style="ellipse;whiteSpace=wrap;html=1;fillColor=#dae8fc;strokeColor=#6c8ebf;" vertex="1" parent="1">
          <mxGeometry x="1720" y="1960" width="120" height="80" as="geometry" />
        </mxCell>
        <mxCell id="8zTujfosPJd3p6IDFqLK-428" value="&lt;font size=&quot;1&quot;&gt;&lt;b style=&quot;font-size: 22px;&quot;&gt;Graph&lt;/b&gt;&lt;/font&gt;&lt;font size=&quot;1&quot;&gt;&lt;b style=&quot;font-size: 22px;&quot;&gt;2&lt;/b&gt;&lt;/font&gt;" style="ellipse;whiteSpace=wrap;html=1;fillColor=#dae8fc;strokeColor=#6c8ebf;" vertex="1" parent="1">
          <mxGeometry x="2000" y="1960" width="120" height="80" as="geometry" />
        </mxCell>
        <mxCell id="8zTujfosPJd3p6IDFqLK-430" value="&lt;font size=&quot;1&quot;&gt;&lt;b style=&quot;font-size: 22px;&quot;&gt;Graph2&lt;/b&gt;&lt;/font&gt;" style="ellipse;whiteSpace=wrap;html=1;fillColor=#dae8fc;strokeColor=#6c8ebf;" vertex="1" parent="1">
          <mxGeometry x="1860" y="2040" width="120" height="80" as="geometry" />
        </mxCell>
        <mxCell id="8zTujfosPJd3p6IDFqLK-432" value="&lt;font style=&quot;font-size: 24px;&quot;&gt;&lt;b&gt;&amp;nbsp;End of Iterations&lt;br&gt;&lt;/b&gt;&lt;/font&gt;" style="text;html=1;strokeColor=none;fillColor=none;align=center;verticalAlign=middle;whiteSpace=wrap;rounded=0;" vertex="1" parent="1">
          <mxGeometry x="2660" y="1880" width="200" height="40" as="geometry" />
        </mxCell>
        <mxCell id="8zTujfosPJd3p6IDFqLK-433" value="&lt;font size=&quot;1&quot;&gt;&lt;b style=&quot;font-size: 22px;&quot;&gt;Node1&lt;/b&gt;&lt;/font&gt;" style="ellipse;whiteSpace=wrap;html=1;fillColor=#d5e8d4;strokeColor=#82b366;" vertex="1" parent="1">
          <mxGeometry x="2320" y="1960" width="120" height="80" as="geometry" />
        </mxCell>
        <mxCell id="8zTujfosPJd3p6IDFqLK-434" value="&lt;font size=&quot;1&quot;&gt;&lt;b style=&quot;font-size: 22px;&quot;&gt;Node2&lt;/b&gt;&lt;/font&gt;" style="ellipse;whiteSpace=wrap;html=1;fillColor=#d5e8d4;strokeColor=#82b366;" vertex="1" parent="1">
          <mxGeometry x="2600" y="1960" width="120" height="80" as="geometry" />
        </mxCell>
        <mxCell id="8zTujfosPJd3p6IDFqLK-436" value="&lt;font size=&quot;1&quot;&gt;&lt;b style=&quot;font-size: 22px;&quot;&gt;Node3&lt;/b&gt;&lt;/font&gt;" style="ellipse;whiteSpace=wrap;html=1;fillColor=#d5e8d4;strokeColor=#82b366;" vertex="1" parent="1">
          <mxGeometry x="2460" y="2040" width="120" height="80" as="geometry" />
        </mxCell>
        <mxCell id="8zTujfosPJd3p6IDFqLK-438" value="" style="endArrow=none;html=1;rounded=0;entryX=0.5;entryY=1;entryDx=0;entryDy=0;exitX=0;exitY=0.5;exitDx=0;exitDy=0;" edge="1" parent="1" source="8zTujfosPJd3p6IDFqLK-436" target="8zTujfosPJd3p6IDFqLK-433">
          <mxGeometry width="50" height="50" relative="1" as="geometry">
            <mxPoint x="2460" y="2120" as="sourcePoint" />
            <mxPoint x="2700" y="2080" as="targetPoint" />
          </mxGeometry>
        </mxCell>
        <mxCell id="8zTujfosPJd3p6IDFqLK-439" value="" style="endArrow=none;html=1;rounded=0;entryX=0.5;entryY=1;entryDx=0;entryDy=0;exitX=0;exitY=0.5;exitDx=0;exitDy=0;" edge="1" parent="1" source="8zTujfosPJd3p6IDFqLK-434">
          <mxGeometry width="50" height="50" relative="1" as="geometry">
            <mxPoint x="2525" y="2080" as="sourcePoint" />
            <mxPoint x="2440" y="2000" as="targetPoint" />
          </mxGeometry>
        </mxCell>
        <mxCell id="8zTujfosPJd3p6IDFqLK-440" value="&lt;b&gt;&lt;font style=&quot;font-size: 24px;&quot;&gt;link (1,2)&lt;/font&gt;&lt;/b&gt;" style="text;html=1;strokeColor=none;fillColor=none;align=center;verticalAlign=middle;whiteSpace=wrap;rounded=0;" vertex="1" parent="1">
          <mxGeometry x="2470" y="1970" width="100" height="30" as="geometry" />
        </mxCell>
        <mxCell id="8zTujfosPJd3p6IDFqLK-441" value="&lt;b&gt;&lt;font style=&quot;font-size: 24px;&quot;&gt;link (1,3)&lt;/font&gt;&lt;/b&gt;" style="text;html=1;strokeColor=none;fillColor=none;align=center;verticalAlign=middle;whiteSpace=wrap;rounded=0;" vertex="1" parent="1">
          <mxGeometry x="2320" y="2060" width="120" height="30" as="geometry" />
        </mxCell>
        <mxCell id="8zTujfosPJd3p6IDFqLK-444" value="&lt;font size=&quot;1&quot;&gt;&lt;b style=&quot;font-size: 22px;&quot;&gt;Graph&lt;/b&gt;&lt;/font&gt;&lt;font size=&quot;1&quot;&gt;&lt;b style=&quot;font-size: 22px;&quot;&gt;3&lt;/b&gt;&lt;/font&gt;" style="ellipse;whiteSpace=wrap;html=1;fillColor=#d5e8d4;strokeColor=#82b366;" vertex="1" parent="1">
          <mxGeometry x="2840" y="1960" width="120" height="80" as="geometry" />
        </mxCell>
        <mxCell id="8zTujfosPJd3p6IDFqLK-445" value="&lt;font size=&quot;1&quot;&gt;&lt;b style=&quot;font-size: 22px;&quot;&gt;Graph&lt;/b&gt;&lt;/font&gt;&lt;font size=&quot;1&quot;&gt;&lt;b style=&quot;font-size: 22px;&quot;&gt;3&lt;/b&gt;&lt;/font&gt;" style="ellipse;whiteSpace=wrap;html=1;fillColor=#d5e8d4;strokeColor=#82b366;" vertex="1" parent="1">
          <mxGeometry x="3120" y="1960" width="120" height="80" as="geometry" />
        </mxCell>
        <mxCell id="8zTujfosPJd3p6IDFqLK-447" value="&lt;font size=&quot;1&quot;&gt;&lt;b style=&quot;font-size: 22px;&quot;&gt;Graph&lt;/b&gt;&lt;/font&gt;&lt;font size=&quot;1&quot;&gt;&lt;b style=&quot;font-size: 22px;&quot;&gt;3&lt;/b&gt;&lt;/font&gt;" style="ellipse;whiteSpace=wrap;html=1;fillColor=#d5e8d4;strokeColor=#82b366;" vertex="1" parent="1">
          <mxGeometry x="2980" y="2040" width="120" height="80" as="geometry" />
        </mxCell>
        <mxCell id="8zTujfosPJd3p6IDFqLK-451" value="" style="endArrow=none;html=1;rounded=0;entryX=0.5;entryY=1;entryDx=0;entryDy=0;exitX=0;exitY=0.5;exitDx=0;exitDy=0;" edge="1" parent="1">
          <mxGeometry width="50" height="50" relative="1" as="geometry">
            <mxPoint x="2000" y="2002.21" as="sourcePoint" />
            <mxPoint x="1840" y="2002.21" as="targetPoint" />
          </mxGeometry>
        </mxCell>
        <mxCell id="8zTujfosPJd3p6IDFqLK-452" value="" style="endArrow=none;html=1;rounded=0;entryX=0.5;entryY=1;entryDx=0;entryDy=0;exitX=0;exitY=0.5;exitDx=0;exitDy=0;" edge="1" parent="1">
          <mxGeometry width="50" height="50" relative="1" as="geometry">
            <mxPoint x="2980" y="2080" as="sourcePoint" />
            <mxPoint x="2900" y="2040" as="targetPoint" />
          </mxGeometry>
        </mxCell>
        <mxCell id="8zTujfosPJd3p6IDFqLK-453" value="" style="endArrow=none;html=1;rounded=0;entryX=0.5;entryY=1;entryDx=0;entryDy=0;exitX=0;exitY=0.5;exitDx=0;exitDy=0;" edge="1" parent="1">
          <mxGeometry width="50" height="50" relative="1" as="geometry">
            <mxPoint x="1860" y="2080" as="sourcePoint" />
            <mxPoint x="1780" y="2040" as="targetPoint" />
          </mxGeometry>
        </mxCell>
        <mxCell id="8zTujfosPJd3p6IDFqLK-454" value="" style="endArrow=none;html=1;rounded=0;entryX=0.5;entryY=1;entryDx=0;entryDy=0;exitX=0;exitY=0.5;exitDx=0;exitDy=0;" edge="1" parent="1">
          <mxGeometry width="50" height="50" relative="1" as="geometry">
            <mxPoint x="3120" y="1998.9499999999998" as="sourcePoint" />
            <mxPoint x="2960" y="1998.9499999999998" as="targetPoint" />
          </mxGeometry>
        </mxCell>
        <mxCell id="8zTujfosPJd3p6IDFqLK-556" value="&lt;font style=&quot;font-size: 24px;&quot;&gt;&lt;b&gt;2nd Cycle&lt;br&gt;&lt;/b&gt;&lt;/font&gt;" style="text;html=1;strokeColor=none;fillColor=none;align=center;verticalAlign=middle;whiteSpace=wrap;rounded=0;" vertex="1" parent="1">
          <mxGeometry x="2680" y="3070" width="150" height="40" as="geometry" />
        </mxCell>
        <mxCell id="8zTujfosPJd3p6IDFqLK-557" value="&lt;font size=&quot;1&quot;&gt;&lt;b style=&quot;font-size: 22px;&quot;&gt;Node1&lt;/b&gt;&lt;/font&gt;" style="ellipse;whiteSpace=wrap;html=1;fillColor=#f5f5f5;fontColor=#333333;strokeColor=#666666;" vertex="1" parent="1">
          <mxGeometry x="120" y="3560" width="120" height="80" as="geometry" />
        </mxCell>
        <mxCell id="8zTujfosPJd3p6IDFqLK-558" value="&lt;font size=&quot;1&quot;&gt;&lt;b style=&quot;font-size: 22px;&quot;&gt;Node2&lt;/b&gt;&lt;/font&gt;" style="ellipse;whiteSpace=wrap;html=1;fillColor=#f5f5f5;strokeColor=#666666;fontColor=#333333;" vertex="1" parent="1">
          <mxGeometry x="400" y="3560" width="120" height="80" as="geometry" />
        </mxCell>
        <mxCell id="8zTujfosPJd3p6IDFqLK-559" value="&lt;font size=&quot;1&quot;&gt;&lt;b style=&quot;font-size: 22px;&quot;&gt;Node5&lt;/b&gt;&lt;/font&gt;" style="ellipse;whiteSpace=wrap;html=1;fillColor=#f8cecc;strokeColor=#b85450;" vertex="1" parent="1">
          <mxGeometry x="400" y="3720" width="120" height="80" as="geometry" />
        </mxCell>
        <mxCell id="8zTujfosPJd3p6IDFqLK-560" value="&lt;font size=&quot;1&quot;&gt;&lt;b style=&quot;font-size: 22px;&quot;&gt;Node3&lt;/b&gt;&lt;/font&gt;" style="ellipse;whiteSpace=wrap;html=1;fillColor=#f5f5f5;strokeColor=#666666;fontColor=#333333;" vertex="1" parent="1">
          <mxGeometry x="260" y="3640" width="120" height="80" as="geometry" />
        </mxCell>
        <mxCell id="8zTujfosPJd3p6IDFqLK-561" value="&lt;font size=&quot;1&quot;&gt;&lt;b style=&quot;font-size: 22px;&quot;&gt;Node4&lt;/b&gt;&lt;/font&gt;" style="ellipse;whiteSpace=wrap;html=1;fillColor=#ffe6cc;strokeColor=#d79b00;" vertex="1" parent="1">
          <mxGeometry x="120" y="3720" width="120" height="80" as="geometry" />
        </mxCell>
        <mxCell id="8zTujfosPJd3p6IDFqLK-562" value="" style="endArrow=none;html=1;rounded=0;entryX=0.5;entryY=1;entryDx=0;entryDy=0;exitX=0;exitY=0.5;exitDx=0;exitDy=0;" edge="1" parent="1" source="8zTujfosPJd3p6IDFqLK-560" target="8zTujfosPJd3p6IDFqLK-557">
          <mxGeometry width="50" height="50" relative="1" as="geometry">
            <mxPoint x="260" y="3720" as="sourcePoint" />
            <mxPoint x="500" y="3680" as="targetPoint" />
          </mxGeometry>
        </mxCell>
        <mxCell id="8zTujfosPJd3p6IDFqLK-563" value="" style="endArrow=none;html=1;rounded=0;entryX=0.5;entryY=1;entryDx=0;entryDy=0;exitX=0;exitY=0.5;exitDx=0;exitDy=0;" edge="1" parent="1" source="8zTujfosPJd3p6IDFqLK-558">
          <mxGeometry width="50" height="50" relative="1" as="geometry">
            <mxPoint x="325" y="3680" as="sourcePoint" />
            <mxPoint x="240" y="3600" as="targetPoint" />
          </mxGeometry>
        </mxCell>
        <mxCell id="8zTujfosPJd3p6IDFqLK-564" value="&lt;b&gt;&lt;font style=&quot;font-size: 24px;&quot;&gt;link (1,2)&lt;/font&gt;&lt;/b&gt;" style="text;html=1;strokeColor=none;fillColor=none;align=center;verticalAlign=middle;whiteSpace=wrap;rounded=0;" vertex="1" parent="1">
          <mxGeometry x="270" y="3570" width="100" height="30" as="geometry" />
        </mxCell>
        <mxCell id="8zTujfosPJd3p6IDFqLK-565" value="&lt;b&gt;&lt;font style=&quot;font-size: 24px;&quot;&gt;link (1,3)&lt;/font&gt;&lt;/b&gt;" style="text;html=1;strokeColor=none;fillColor=none;align=center;verticalAlign=middle;whiteSpace=wrap;rounded=0;" vertex="1" parent="1">
          <mxGeometry x="120" y="3660" width="120" height="30" as="geometry" />
        </mxCell>
        <mxCell id="8zTujfosPJd3p6IDFqLK-566" value="&lt;b&gt;&lt;font style=&quot;font-size: 24px;&quot;&gt;link (4,5)&lt;/font&gt;&lt;/b&gt;" style="text;html=1;strokeColor=none;fillColor=none;align=center;verticalAlign=middle;whiteSpace=wrap;rounded=0;" vertex="1" parent="1">
          <mxGeometry x="250" y="3760" width="130" height="30" as="geometry" />
        </mxCell>
        <mxCell id="8zTujfosPJd3p6IDFqLK-567" value="" style="endArrow=none;html=1;rounded=0;entryX=0.5;entryY=1;entryDx=0;entryDy=0;exitX=0;exitY=0.5;exitDx=0;exitDy=0;" edge="1" parent="1" source="8zTujfosPJd3p6IDFqLK-559">
          <mxGeometry width="50" height="50" relative="1" as="geometry">
            <mxPoint x="320" y="3800" as="sourcePoint" />
            <mxPoint x="240" y="3760" as="targetPoint" />
          </mxGeometry>
        </mxCell>
        <mxCell id="8zTujfosPJd3p6IDFqLK-568" value="&lt;font size=&quot;1&quot;&gt;&lt;b style=&quot;font-size: 22px;&quot;&gt;Graph&lt;/b&gt;&lt;/font&gt;&lt;font size=&quot;1&quot;&gt;&lt;b style=&quot;font-size: 22px;&quot;&gt;1&lt;/b&gt;&lt;/font&gt;" style="ellipse;whiteSpace=wrap;html=1;fillColor=#f5f5f5;fontColor=#333333;strokeColor=#666666;" vertex="1" parent="1">
          <mxGeometry x="640" y="3560" width="120" height="80" as="geometry" />
        </mxCell>
        <mxCell id="8zTujfosPJd3p6IDFqLK-569" value="&lt;font size=&quot;1&quot;&gt;&lt;b style=&quot;font-size: 22px;&quot;&gt;Graph&lt;/b&gt;&lt;/font&gt;&lt;font size=&quot;1&quot;&gt;&lt;b style=&quot;font-size: 22px;&quot;&gt;1&lt;/b&gt;&lt;/font&gt;" style="ellipse;whiteSpace=wrap;html=1;fillColor=#f5f5f5;strokeColor=#666666;fontColor=#333333;" vertex="1" parent="1">
          <mxGeometry x="920" y="3560" width="120" height="80" as="geometry" />
        </mxCell>
        <mxCell id="8zTujfosPJd3p6IDFqLK-570" value="&lt;font size=&quot;1&quot;&gt;&lt;b style=&quot;font-size: 22px;&quot;&gt;Graph&lt;/b&gt;&lt;/font&gt;&lt;font size=&quot;1&quot;&gt;&lt;b style=&quot;font-size: 22px;&quot;&gt;5&lt;/b&gt;&lt;/font&gt;" style="ellipse;whiteSpace=wrap;html=1;fillColor=#f8cecc;strokeColor=#b85450;" vertex="1" parent="1">
          <mxGeometry x="920" y="3720" width="120" height="80" as="geometry" />
        </mxCell>
        <mxCell id="8zTujfosPJd3p6IDFqLK-571" value="&lt;font size=&quot;1&quot;&gt;&lt;b style=&quot;font-size: 22px;&quot;&gt;Graph&lt;/b&gt;&lt;/font&gt;&lt;font size=&quot;1&quot;&gt;&lt;b style=&quot;font-size: 22px;&quot;&gt;1&lt;/b&gt;&lt;/font&gt;" style="ellipse;whiteSpace=wrap;html=1;fillColor=#f5f5f5;strokeColor=#666666;fontColor=#333333;" vertex="1" parent="1">
          <mxGeometry x="780" y="3640" width="120" height="80" as="geometry" />
        </mxCell>
        <mxCell id="8zTujfosPJd3p6IDFqLK-572" value="&lt;font size=&quot;1&quot;&gt;&lt;b style=&quot;font-size: 22px;&quot;&gt;Graph4&lt;/b&gt;&lt;/font&gt;" style="ellipse;whiteSpace=wrap;html=1;fillColor=#ffe6cc;strokeColor=#d79b00;" vertex="1" parent="1">
          <mxGeometry x="640" y="3720" width="120" height="80" as="geometry" />
        </mxCell>
        <mxCell id="8zTujfosPJd3p6IDFqLK-573" value="" style="endArrow=none;html=1;rounded=0;entryX=0.5;entryY=1;entryDx=0;entryDy=0;exitX=0;exitY=0.5;exitDx=0;exitDy=0;" edge="1" parent="1">
          <mxGeometry width="50" height="50" relative="1" as="geometry">
            <mxPoint x="780" y="3680" as="sourcePoint" />
            <mxPoint x="700" y="3640" as="targetPoint" />
          </mxGeometry>
        </mxCell>
        <mxCell id="8zTujfosPJd3p6IDFqLK-574" value="" style="endArrow=none;html=1;rounded=0;entryX=0.5;entryY=1;entryDx=0;entryDy=0;exitX=0;exitY=0.5;exitDx=0;exitDy=0;" edge="1" parent="1">
          <mxGeometry width="50" height="50" relative="1" as="geometry">
            <mxPoint x="920" y="3600" as="sourcePoint" />
            <mxPoint x="760" y="3600" as="targetPoint" />
          </mxGeometry>
        </mxCell>
        <mxCell id="8zTujfosPJd3p6IDFqLK-575" value="&lt;font size=&quot;1&quot;&gt;&lt;b style=&quot;font-size: 22px;&quot;&gt;Node1&lt;/b&gt;&lt;/font&gt;" style="ellipse;whiteSpace=wrap;html=1;fillColor=#dae8fc;strokeColor=#6c8ebf;" vertex="1" parent="1">
          <mxGeometry x="1200" y="3560" width="120" height="80" as="geometry" />
        </mxCell>
        <mxCell id="8zTujfosPJd3p6IDFqLK-576" value="&lt;font size=&quot;1&quot;&gt;&lt;b style=&quot;font-size: 22px;&quot;&gt;Node2&lt;/b&gt;&lt;/font&gt;" style="ellipse;whiteSpace=wrap;html=1;fillColor=#dae8fc;strokeColor=#6c8ebf;" vertex="1" parent="1">
          <mxGeometry x="1480" y="3560" width="120" height="80" as="geometry" />
        </mxCell>
        <mxCell id="8zTujfosPJd3p6IDFqLK-577" value="&lt;font size=&quot;1&quot;&gt;&lt;b style=&quot;font-size: 22px;&quot;&gt;Node5&lt;/b&gt;&lt;/font&gt;" style="ellipse;whiteSpace=wrap;html=1;fillColor=#f8cecc;strokeColor=#b85450;" vertex="1" parent="1">
          <mxGeometry x="1480" y="3720" width="120" height="80" as="geometry" />
        </mxCell>
        <mxCell id="8zTujfosPJd3p6IDFqLK-578" value="&lt;font size=&quot;1&quot;&gt;&lt;b style=&quot;font-size: 22px;&quot;&gt;Node3&lt;/b&gt;&lt;/font&gt;" style="ellipse;whiteSpace=wrap;html=1;fillColor=#dae8fc;strokeColor=#6c8ebf;" vertex="1" parent="1">
          <mxGeometry x="1340" y="3640" width="120" height="80" as="geometry" />
        </mxCell>
        <mxCell id="8zTujfosPJd3p6IDFqLK-579" value="&lt;font size=&quot;1&quot;&gt;&lt;b style=&quot;font-size: 22px;&quot;&gt;Node4&lt;/b&gt;&lt;/font&gt;" style="ellipse;whiteSpace=wrap;html=1;fillColor=#ffe6cc;strokeColor=#d79b00;" vertex="1" parent="1">
          <mxGeometry x="1200" y="3720" width="120" height="80" as="geometry" />
        </mxCell>
        <mxCell id="8zTujfosPJd3p6IDFqLK-580" value="" style="endArrow=none;html=1;rounded=0;entryX=0.5;entryY=1;entryDx=0;entryDy=0;exitX=0;exitY=0.5;exitDx=0;exitDy=0;" edge="1" parent="1" source="8zTujfosPJd3p6IDFqLK-578" target="8zTujfosPJd3p6IDFqLK-575">
          <mxGeometry width="50" height="50" relative="1" as="geometry">
            <mxPoint x="1340" y="3720" as="sourcePoint" />
            <mxPoint x="1580" y="3680" as="targetPoint" />
          </mxGeometry>
        </mxCell>
        <mxCell id="8zTujfosPJd3p6IDFqLK-581" value="" style="endArrow=none;html=1;rounded=0;entryX=0.5;entryY=1;entryDx=0;entryDy=0;exitX=0;exitY=0.5;exitDx=0;exitDy=0;" edge="1" parent="1" source="8zTujfosPJd3p6IDFqLK-576">
          <mxGeometry width="50" height="50" relative="1" as="geometry">
            <mxPoint x="1405" y="3680" as="sourcePoint" />
            <mxPoint x="1320" y="3600" as="targetPoint" />
          </mxGeometry>
        </mxCell>
        <mxCell id="8zTujfosPJd3p6IDFqLK-582" value="&lt;b&gt;&lt;font style=&quot;font-size: 24px;&quot;&gt;link (1,2)&lt;/font&gt;&lt;/b&gt;" style="text;html=1;strokeColor=none;fillColor=none;align=center;verticalAlign=middle;whiteSpace=wrap;rounded=0;" vertex="1" parent="1">
          <mxGeometry x="1350" y="3570" width="100" height="30" as="geometry" />
        </mxCell>
        <mxCell id="8zTujfosPJd3p6IDFqLK-583" value="&lt;b&gt;&lt;font style=&quot;font-size: 24px;&quot;&gt;link (1,3)&lt;/font&gt;&lt;/b&gt;" style="text;html=1;strokeColor=none;fillColor=none;align=center;verticalAlign=middle;whiteSpace=wrap;rounded=0;" vertex="1" parent="1">
          <mxGeometry x="1200" y="3660" width="120" height="30" as="geometry" />
        </mxCell>
        <mxCell id="8zTujfosPJd3p6IDFqLK-584" value="&lt;b&gt;&lt;font style=&quot;font-size: 24px;&quot;&gt;link (4,5)&lt;/font&gt;&lt;/b&gt;" style="text;html=1;strokeColor=none;fillColor=none;align=center;verticalAlign=middle;whiteSpace=wrap;rounded=0;" vertex="1" parent="1">
          <mxGeometry x="1330" y="3760" width="130" height="30" as="geometry" />
        </mxCell>
        <mxCell id="8zTujfosPJd3p6IDFqLK-585" value="" style="endArrow=none;html=1;rounded=0;entryX=0.5;entryY=1;entryDx=0;entryDy=0;exitX=0;exitY=0.5;exitDx=0;exitDy=0;" edge="1" parent="1" source="8zTujfosPJd3p6IDFqLK-577">
          <mxGeometry width="50" height="50" relative="1" as="geometry">
            <mxPoint x="1400" y="3800" as="sourcePoint" />
            <mxPoint x="1320" y="3760" as="targetPoint" />
          </mxGeometry>
        </mxCell>
        <mxCell id="8zTujfosPJd3p6IDFqLK-586" value="&lt;font size=&quot;1&quot;&gt;&lt;b style=&quot;font-size: 22px;&quot;&gt;Graph&lt;/b&gt;&lt;/font&gt;&lt;font size=&quot;1&quot;&gt;&lt;b style=&quot;font-size: 22px;&quot;&gt;2&lt;/b&gt;&lt;/font&gt;" style="ellipse;whiteSpace=wrap;html=1;fillColor=#dae8fc;strokeColor=#6c8ebf;" vertex="1" parent="1">
          <mxGeometry x="1720" y="3560" width="120" height="80" as="geometry" />
        </mxCell>
        <mxCell id="8zTujfosPJd3p6IDFqLK-587" value="&lt;font size=&quot;1&quot;&gt;&lt;b style=&quot;font-size: 22px;&quot;&gt;Graph&lt;/b&gt;&lt;/font&gt;&lt;font size=&quot;1&quot;&gt;&lt;b style=&quot;font-size: 22px;&quot;&gt;2&lt;/b&gt;&lt;/font&gt;" style="ellipse;whiteSpace=wrap;html=1;fillColor=#dae8fc;strokeColor=#6c8ebf;" vertex="1" parent="1">
          <mxGeometry x="2000" y="3560" width="120" height="80" as="geometry" />
        </mxCell>
        <mxCell id="8zTujfosPJd3p6IDFqLK-588" value="&lt;font size=&quot;1&quot;&gt;&lt;b style=&quot;font-size: 22px;&quot;&gt;Graph&lt;/b&gt;&lt;/font&gt;&lt;font size=&quot;1&quot;&gt;&lt;b style=&quot;font-size: 22px;&quot;&gt;5&lt;/b&gt;&lt;/font&gt;" style="ellipse;whiteSpace=wrap;html=1;fillColor=#f8cecc;strokeColor=#b85450;" vertex="1" parent="1">
          <mxGeometry x="2000" y="3720" width="120" height="80" as="geometry" />
        </mxCell>
        <mxCell id="8zTujfosPJd3p6IDFqLK-589" value="&lt;font size=&quot;1&quot;&gt;&lt;b style=&quot;font-size: 22px;&quot;&gt;Graph2&lt;/b&gt;&lt;/font&gt;" style="ellipse;whiteSpace=wrap;html=1;fillColor=#dae8fc;strokeColor=#6c8ebf;" vertex="1" parent="1">
          <mxGeometry x="1860" y="3640" width="120" height="80" as="geometry" />
        </mxCell>
        <mxCell id="8zTujfosPJd3p6IDFqLK-590" value="&lt;font size=&quot;1&quot;&gt;&lt;b style=&quot;font-size: 22px;&quot;&gt;Graph4&lt;/b&gt;&lt;/font&gt;" style="ellipse;whiteSpace=wrap;html=1;fillColor=#ffe6cc;strokeColor=#d79b00;" vertex="1" parent="1">
          <mxGeometry x="1720" y="3720" width="120" height="80" as="geometry" />
        </mxCell>
        <mxCell id="8zTujfosPJd3p6IDFqLK-591" value="&lt;font size=&quot;1&quot;&gt;&lt;b style=&quot;font-size: 22px;&quot;&gt;Node1&lt;/b&gt;&lt;/font&gt;" style="ellipse;whiteSpace=wrap;html=1;fillColor=#d5e8d4;strokeColor=#82b366;" vertex="1" parent="1">
          <mxGeometry x="2320" y="3560" width="120" height="80" as="geometry" />
        </mxCell>
        <mxCell id="8zTujfosPJd3p6IDFqLK-592" value="&lt;font size=&quot;1&quot;&gt;&lt;b style=&quot;font-size: 22px;&quot;&gt;Node2&lt;/b&gt;&lt;/font&gt;" style="ellipse;whiteSpace=wrap;html=1;fillColor=#d5e8d4;strokeColor=#82b366;" vertex="1" parent="1">
          <mxGeometry x="2600" y="3560" width="120" height="80" as="geometry" />
        </mxCell>
        <mxCell id="8zTujfosPJd3p6IDFqLK-593" value="&lt;font size=&quot;1&quot;&gt;&lt;b style=&quot;font-size: 22px;&quot;&gt;Node5&lt;/b&gt;&lt;/font&gt;" style="ellipse;whiteSpace=wrap;html=1;fillColor=#f8cecc;strokeColor=#b85450;" vertex="1" parent="1">
          <mxGeometry x="2600" y="3720" width="120" height="80" as="geometry" />
        </mxCell>
        <mxCell id="8zTujfosPJd3p6IDFqLK-594" value="&lt;font size=&quot;1&quot;&gt;&lt;b style=&quot;font-size: 22px;&quot;&gt;Node3&lt;/b&gt;&lt;/font&gt;" style="ellipse;whiteSpace=wrap;html=1;fillColor=#d5e8d4;strokeColor=#82b366;" vertex="1" parent="1">
          <mxGeometry x="2460" y="3640" width="120" height="80" as="geometry" />
        </mxCell>
        <mxCell id="8zTujfosPJd3p6IDFqLK-595" value="&lt;font size=&quot;1&quot;&gt;&lt;b style=&quot;font-size: 22px;&quot;&gt;Node4&lt;/b&gt;&lt;/font&gt;" style="ellipse;whiteSpace=wrap;html=1;fillColor=#ffe6cc;strokeColor=#d79b00;" vertex="1" parent="1">
          <mxGeometry x="2320" y="3720" width="120" height="80" as="geometry" />
        </mxCell>
        <mxCell id="8zTujfosPJd3p6IDFqLK-596" value="" style="endArrow=none;html=1;rounded=0;entryX=0.5;entryY=1;entryDx=0;entryDy=0;exitX=0;exitY=0.5;exitDx=0;exitDy=0;" edge="1" parent="1" source="8zTujfosPJd3p6IDFqLK-594" target="8zTujfosPJd3p6IDFqLK-591">
          <mxGeometry width="50" height="50" relative="1" as="geometry">
            <mxPoint x="2460" y="3720" as="sourcePoint" />
            <mxPoint x="2700" y="3680" as="targetPoint" />
          </mxGeometry>
        </mxCell>
        <mxCell id="8zTujfosPJd3p6IDFqLK-597" value="" style="endArrow=none;html=1;rounded=0;entryX=0.5;entryY=1;entryDx=0;entryDy=0;exitX=0;exitY=0.5;exitDx=0;exitDy=0;" edge="1" parent="1" source="8zTujfosPJd3p6IDFqLK-592">
          <mxGeometry width="50" height="50" relative="1" as="geometry">
            <mxPoint x="2525" y="3680" as="sourcePoint" />
            <mxPoint x="2440" y="3600" as="targetPoint" />
          </mxGeometry>
        </mxCell>
        <mxCell id="8zTujfosPJd3p6IDFqLK-598" value="&lt;b&gt;&lt;font style=&quot;font-size: 24px;&quot;&gt;link (1,2)&lt;/font&gt;&lt;/b&gt;" style="text;html=1;strokeColor=none;fillColor=none;align=center;verticalAlign=middle;whiteSpace=wrap;rounded=0;" vertex="1" parent="1">
          <mxGeometry x="2470" y="3570" width="100" height="30" as="geometry" />
        </mxCell>
        <mxCell id="8zTujfosPJd3p6IDFqLK-599" value="&lt;b&gt;&lt;font style=&quot;font-size: 24px;&quot;&gt;link (1,3)&lt;/font&gt;&lt;/b&gt;" style="text;html=1;strokeColor=none;fillColor=none;align=center;verticalAlign=middle;whiteSpace=wrap;rounded=0;" vertex="1" parent="1">
          <mxGeometry x="2320" y="3660" width="120" height="30" as="geometry" />
        </mxCell>
        <mxCell id="8zTujfosPJd3p6IDFqLK-600" value="&lt;b&gt;&lt;font style=&quot;font-size: 24px;&quot;&gt;link (4,5)&lt;/font&gt;&lt;/b&gt;" style="text;html=1;strokeColor=none;fillColor=none;align=center;verticalAlign=middle;whiteSpace=wrap;rounded=0;" vertex="1" parent="1">
          <mxGeometry x="2450" y="3760" width="130" height="30" as="geometry" />
        </mxCell>
        <mxCell id="8zTujfosPJd3p6IDFqLK-601" value="" style="endArrow=none;html=1;rounded=0;entryX=0.5;entryY=1;entryDx=0;entryDy=0;exitX=0;exitY=0.5;exitDx=0;exitDy=0;" edge="1" parent="1" source="8zTujfosPJd3p6IDFqLK-593">
          <mxGeometry width="50" height="50" relative="1" as="geometry">
            <mxPoint x="2520" y="3800" as="sourcePoint" />
            <mxPoint x="2440" y="3760" as="targetPoint" />
          </mxGeometry>
        </mxCell>
        <mxCell id="8zTujfosPJd3p6IDFqLK-602" value="&lt;font size=&quot;1&quot;&gt;&lt;b style=&quot;font-size: 22px;&quot;&gt;Graph&lt;/b&gt;&lt;/font&gt;&lt;font size=&quot;1&quot;&gt;&lt;b style=&quot;font-size: 22px;&quot;&gt;3&lt;/b&gt;&lt;/font&gt;" style="ellipse;whiteSpace=wrap;html=1;fillColor=#d5e8d4;strokeColor=#82b366;" vertex="1" parent="1">
          <mxGeometry x="2840" y="3560" width="120" height="80" as="geometry" />
        </mxCell>
        <mxCell id="8zTujfosPJd3p6IDFqLK-603" value="&lt;font size=&quot;1&quot;&gt;&lt;b style=&quot;font-size: 22px;&quot;&gt;Graph&lt;/b&gt;&lt;/font&gt;&lt;font size=&quot;1&quot;&gt;&lt;b style=&quot;font-size: 22px;&quot;&gt;3&lt;/b&gt;&lt;/font&gt;" style="ellipse;whiteSpace=wrap;html=1;fillColor=#d5e8d4;strokeColor=#82b366;" vertex="1" parent="1">
          <mxGeometry x="3120" y="3560" width="120" height="80" as="geometry" />
        </mxCell>
        <mxCell id="8zTujfosPJd3p6IDFqLK-604" value="&lt;font size=&quot;1&quot;&gt;&lt;b style=&quot;font-size: 22px;&quot;&gt;Graph&lt;/b&gt;&lt;/font&gt;&lt;font size=&quot;1&quot;&gt;&lt;b style=&quot;font-size: 22px;&quot;&gt;5&lt;/b&gt;&lt;/font&gt;" style="ellipse;whiteSpace=wrap;html=1;fillColor=#f8cecc;strokeColor=#b85450;" vertex="1" parent="1">
          <mxGeometry x="3120" y="3720" width="120" height="80" as="geometry" />
        </mxCell>
        <mxCell id="8zTujfosPJd3p6IDFqLK-605" value="&lt;font size=&quot;1&quot;&gt;&lt;b style=&quot;font-size: 22px;&quot;&gt;Graph&lt;/b&gt;&lt;/font&gt;&lt;font size=&quot;1&quot;&gt;&lt;b style=&quot;font-size: 22px;&quot;&gt;3&lt;/b&gt;&lt;/font&gt;" style="ellipse;whiteSpace=wrap;html=1;fillColor=#d5e8d4;strokeColor=#82b366;" vertex="1" parent="1">
          <mxGeometry x="2980" y="3640" width="120" height="80" as="geometry" />
        </mxCell>
        <mxCell id="8zTujfosPJd3p6IDFqLK-606" value="&lt;font size=&quot;1&quot;&gt;&lt;b style=&quot;font-size: 22px;&quot;&gt;Graph4&lt;/b&gt;&lt;/font&gt;" style="ellipse;whiteSpace=wrap;html=1;fillColor=#ffe6cc;strokeColor=#d79b00;" vertex="1" parent="1">
          <mxGeometry x="2840" y="3720" width="120" height="80" as="geometry" />
        </mxCell>
        <mxCell id="8zTujfosPJd3p6IDFqLK-607" value="" style="endArrow=none;html=1;rounded=0;entryX=0.5;entryY=1;entryDx=0;entryDy=0;exitX=0;exitY=0.5;exitDx=0;exitDy=0;" edge="1" parent="1">
          <mxGeometry width="50" height="50" relative="1" as="geometry">
            <mxPoint x="2000" y="3602.21" as="sourcePoint" />
            <mxPoint x="1840" y="3602.21" as="targetPoint" />
          </mxGeometry>
        </mxCell>
        <mxCell id="8zTujfosPJd3p6IDFqLK-608" value="" style="endArrow=none;html=1;rounded=0;entryX=0.5;entryY=1;entryDx=0;entryDy=0;exitX=0;exitY=0.5;exitDx=0;exitDy=0;" edge="1" parent="1">
          <mxGeometry width="50" height="50" relative="1" as="geometry">
            <mxPoint x="2980" y="3680" as="sourcePoint" />
            <mxPoint x="2900" y="3640" as="targetPoint" />
          </mxGeometry>
        </mxCell>
        <mxCell id="8zTujfosPJd3p6IDFqLK-609" value="" style="endArrow=none;html=1;rounded=0;entryX=0.5;entryY=1;entryDx=0;entryDy=0;exitX=0;exitY=0.5;exitDx=0;exitDy=0;" edge="1" parent="1">
          <mxGeometry width="50" height="50" relative="1" as="geometry">
            <mxPoint x="1860" y="3680" as="sourcePoint" />
            <mxPoint x="1780" y="3640" as="targetPoint" />
          </mxGeometry>
        </mxCell>
        <mxCell id="8zTujfosPJd3p6IDFqLK-610" value="" style="endArrow=none;html=1;rounded=0;entryX=0.5;entryY=1;entryDx=0;entryDy=0;exitX=0;exitY=0.5;exitDx=0;exitDy=0;" edge="1" parent="1">
          <mxGeometry width="50" height="50" relative="1" as="geometry">
            <mxPoint x="3120" y="3598.95" as="sourcePoint" />
            <mxPoint x="2960" y="3598.95" as="targetPoint" />
          </mxGeometry>
        </mxCell>
        <mxCell id="8zTujfosPJd3p6IDFqLK-611" value="&lt;font size=&quot;1&quot;&gt;&lt;b style=&quot;font-size: 22px;&quot;&gt;Node1&lt;/b&gt;&lt;/font&gt;" style="ellipse;whiteSpace=wrap;html=1;fillColor=#f5f5f5;fontColor=#333333;strokeColor=#666666;" vertex="1" parent="1">
          <mxGeometry x="3440" y="3560" width="120" height="80" as="geometry" />
        </mxCell>
        <mxCell id="8zTujfosPJd3p6IDFqLK-612" value="&lt;font size=&quot;1&quot;&gt;&lt;b style=&quot;font-size: 22px;&quot;&gt;Node2&lt;/b&gt;&lt;/font&gt;" style="ellipse;whiteSpace=wrap;html=1;fillColor=#dae8fc;strokeColor=#6c8ebf;" vertex="1" parent="1">
          <mxGeometry x="3720" y="3560" width="120" height="80" as="geometry" />
        </mxCell>
        <mxCell id="8zTujfosPJd3p6IDFqLK-613" value="&lt;font size=&quot;1&quot;&gt;&lt;b style=&quot;font-size: 22px;&quot;&gt;Node5&lt;/b&gt;&lt;/font&gt;" style="ellipse;whiteSpace=wrap;html=1;fillColor=#ffe6cc;strokeColor=#d79b00;" vertex="1" parent="1">
          <mxGeometry x="3720" y="3720" width="120" height="80" as="geometry" />
        </mxCell>
        <mxCell id="8zTujfosPJd3p6IDFqLK-614" value="&lt;font size=&quot;1&quot;&gt;&lt;b style=&quot;font-size: 22px;&quot;&gt;Node3&lt;/b&gt;&lt;/font&gt;" style="ellipse;whiteSpace=wrap;html=1;fillColor=#d5e8d4;strokeColor=#82b366;" vertex="1" parent="1">
          <mxGeometry x="3580" y="3640" width="120" height="80" as="geometry" />
        </mxCell>
        <mxCell id="8zTujfosPJd3p6IDFqLK-615" value="&lt;font size=&quot;1&quot;&gt;&lt;b style=&quot;font-size: 22px;&quot;&gt;Node4&lt;/b&gt;&lt;/font&gt;" style="ellipse;whiteSpace=wrap;html=1;fillColor=#ffe6cc;strokeColor=#d79b00;" vertex="1" parent="1">
          <mxGeometry x="3440" y="3720" width="120" height="80" as="geometry" />
        </mxCell>
        <mxCell id="8zTujfosPJd3p6IDFqLK-616" value="" style="endArrow=none;html=1;rounded=0;entryX=0.5;entryY=1;entryDx=0;entryDy=0;exitX=0;exitY=0.5;exitDx=0;exitDy=0;" edge="1" parent="1" source="8zTujfosPJd3p6IDFqLK-614" target="8zTujfosPJd3p6IDFqLK-611">
          <mxGeometry width="50" height="50" relative="1" as="geometry">
            <mxPoint x="3580" y="3720" as="sourcePoint" />
            <mxPoint x="3820" y="3680" as="targetPoint" />
          </mxGeometry>
        </mxCell>
        <mxCell id="8zTujfosPJd3p6IDFqLK-617" value="" style="endArrow=none;html=1;rounded=0;entryX=0.5;entryY=1;entryDx=0;entryDy=0;exitX=0;exitY=0.5;exitDx=0;exitDy=0;" edge="1" parent="1" source="8zTujfosPJd3p6IDFqLK-612">
          <mxGeometry width="50" height="50" relative="1" as="geometry">
            <mxPoint x="3645" y="3680" as="sourcePoint" />
            <mxPoint x="3560" y="3600" as="targetPoint" />
          </mxGeometry>
        </mxCell>
        <mxCell id="8zTujfosPJd3p6IDFqLK-618" value="&lt;b&gt;&lt;font style=&quot;font-size: 24px;&quot;&gt;link (1,2)&lt;/font&gt;&lt;/b&gt;" style="text;html=1;strokeColor=none;fillColor=none;align=center;verticalAlign=middle;whiteSpace=wrap;rounded=0;" vertex="1" parent="1">
          <mxGeometry x="3590" y="3570" width="100" height="30" as="geometry" />
        </mxCell>
        <mxCell id="8zTujfosPJd3p6IDFqLK-619" value="&lt;b&gt;&lt;font style=&quot;font-size: 24px;&quot;&gt;link (1,3)&lt;/font&gt;&lt;/b&gt;" style="text;html=1;strokeColor=none;fillColor=none;align=center;verticalAlign=middle;whiteSpace=wrap;rounded=0;" vertex="1" parent="1">
          <mxGeometry x="3440" y="3660" width="120" height="30" as="geometry" />
        </mxCell>
        <mxCell id="8zTujfosPJd3p6IDFqLK-620" value="&lt;b&gt;&lt;font style=&quot;font-size: 24px;&quot;&gt;link (4,5)&lt;/font&gt;&lt;/b&gt;" style="text;html=1;strokeColor=none;fillColor=none;align=center;verticalAlign=middle;whiteSpace=wrap;rounded=0;" vertex="1" parent="1">
          <mxGeometry x="3570" y="3760" width="130" height="30" as="geometry" />
        </mxCell>
        <mxCell id="8zTujfosPJd3p6IDFqLK-621" value="" style="endArrow=none;html=1;rounded=0;entryX=0.5;entryY=1;entryDx=0;entryDy=0;exitX=0;exitY=0.5;exitDx=0;exitDy=0;" edge="1" parent="1" source="8zTujfosPJd3p6IDFqLK-613">
          <mxGeometry width="50" height="50" relative="1" as="geometry">
            <mxPoint x="3640" y="3800" as="sourcePoint" />
            <mxPoint x="3560" y="3760" as="targetPoint" />
          </mxGeometry>
        </mxCell>
        <mxCell id="8zTujfosPJd3p6IDFqLK-622" value="&lt;font size=&quot;1&quot;&gt;&lt;b style=&quot;font-size: 22px;&quot;&gt;Graph&lt;/b&gt;&lt;/font&gt;&lt;font size=&quot;1&quot;&gt;&lt;b style=&quot;font-size: 22px;&quot;&gt;1&lt;/b&gt;&lt;/font&gt;" style="ellipse;whiteSpace=wrap;html=1;fillColor=#f5f5f5;fontColor=#333333;strokeColor=#666666;" vertex="1" parent="1">
          <mxGeometry x="3960" y="3560" width="120" height="80" as="geometry" />
        </mxCell>
        <mxCell id="8zTujfosPJd3p6IDFqLK-623" value="&lt;font size=&quot;1&quot;&gt;&lt;b style=&quot;font-size: 22px;&quot;&gt;Graph&lt;/b&gt;&lt;/font&gt;&lt;font size=&quot;1&quot;&gt;&lt;b style=&quot;font-size: 22px;&quot;&gt;2&lt;/b&gt;&lt;/font&gt;" style="ellipse;whiteSpace=wrap;html=1;fillColor=#dae8fc;strokeColor=#6c8ebf;" vertex="1" parent="1">
          <mxGeometry x="4240" y="3560" width="120" height="80" as="geometry" />
        </mxCell>
        <mxCell id="8zTujfosPJd3p6IDFqLK-624" value="&lt;font size=&quot;1&quot;&gt;&lt;b style=&quot;font-size: 22px;&quot;&gt;Graph&lt;/b&gt;&lt;/font&gt;&lt;font size=&quot;1&quot;&gt;&lt;b style=&quot;font-size: 22px;&quot;&gt;4&lt;/b&gt;&lt;/font&gt;" style="ellipse;whiteSpace=wrap;html=1;fillColor=#ffe6cc;strokeColor=#d79b00;" vertex="1" parent="1">
          <mxGeometry x="4240" y="3720" width="120" height="80" as="geometry" />
        </mxCell>
        <mxCell id="8zTujfosPJd3p6IDFqLK-625" value="&lt;font size=&quot;1&quot;&gt;&lt;b style=&quot;font-size: 22px;&quot;&gt;Graph&lt;/b&gt;&lt;/font&gt;&lt;font size=&quot;1&quot;&gt;&lt;b style=&quot;font-size: 22px;&quot;&gt;3&lt;/b&gt;&lt;/font&gt;" style="ellipse;whiteSpace=wrap;html=1;fillColor=#d5e8d4;strokeColor=#82b366;" vertex="1" parent="1">
          <mxGeometry x="4100" y="3640" width="120" height="80" as="geometry" />
        </mxCell>
        <mxCell id="8zTujfosPJd3p6IDFqLK-626" value="&lt;font size=&quot;1&quot;&gt;&lt;b style=&quot;font-size: 22px;&quot;&gt;Graph4&lt;/b&gt;&lt;/font&gt;" style="ellipse;whiteSpace=wrap;html=1;fillColor=#ffe6cc;strokeColor=#d79b00;" vertex="1" parent="1">
          <mxGeometry x="3960" y="3720" width="120" height="80" as="geometry" />
        </mxCell>
        <mxCell id="8zTujfosPJd3p6IDFqLK-627" value="&lt;font size=&quot;1&quot;&gt;&lt;b style=&quot;font-size: 22px;&quot;&gt;Node1&lt;/b&gt;&lt;/font&gt;" style="ellipse;whiteSpace=wrap;html=1;fillColor=#f5f5f5;fontColor=#333333;strokeColor=#666666;" vertex="1" parent="1">
          <mxGeometry x="4560" y="3560" width="120" height="80" as="geometry" />
        </mxCell>
        <mxCell id="8zTujfosPJd3p6IDFqLK-628" value="&lt;font size=&quot;1&quot;&gt;&lt;b style=&quot;font-size: 22px;&quot;&gt;Node2&lt;/b&gt;&lt;/font&gt;" style="ellipse;whiteSpace=wrap;html=1;fillColor=#dae8fc;strokeColor=#6c8ebf;" vertex="1" parent="1">
          <mxGeometry x="4840" y="3560" width="120" height="80" as="geometry" />
        </mxCell>
        <mxCell id="8zTujfosPJd3p6IDFqLK-629" value="&lt;font size=&quot;1&quot;&gt;&lt;b style=&quot;font-size: 22px;&quot;&gt;Node5&lt;/b&gt;&lt;/font&gt;" style="ellipse;whiteSpace=wrap;html=1;fillColor=#f8cecc;strokeColor=#b85450;" vertex="1" parent="1">
          <mxGeometry x="4840" y="3720" width="120" height="80" as="geometry" />
        </mxCell>
        <mxCell id="8zTujfosPJd3p6IDFqLK-630" value="&lt;font size=&quot;1&quot;&gt;&lt;b style=&quot;font-size: 22px;&quot;&gt;Node3&lt;/b&gt;&lt;/font&gt;" style="ellipse;whiteSpace=wrap;html=1;fillColor=#d5e8d4;strokeColor=#82b366;" vertex="1" parent="1">
          <mxGeometry x="4700" y="3640" width="120" height="80" as="geometry" />
        </mxCell>
        <mxCell id="8zTujfosPJd3p6IDFqLK-631" value="&lt;font size=&quot;1&quot;&gt;&lt;b style=&quot;font-size: 22px;&quot;&gt;Node4&lt;/b&gt;&lt;/font&gt;" style="ellipse;whiteSpace=wrap;html=1;fillColor=#f8cecc;strokeColor=#b85450;" vertex="1" parent="1">
          <mxGeometry x="4560" y="3720" width="120" height="80" as="geometry" />
        </mxCell>
        <mxCell id="8zTujfosPJd3p6IDFqLK-632" value="" style="endArrow=none;html=1;rounded=0;entryX=0.5;entryY=1;entryDx=0;entryDy=0;exitX=0;exitY=0.5;exitDx=0;exitDy=0;" edge="1" parent="1" source="8zTujfosPJd3p6IDFqLK-630" target="8zTujfosPJd3p6IDFqLK-627">
          <mxGeometry width="50" height="50" relative="1" as="geometry">
            <mxPoint x="4700" y="3720" as="sourcePoint" />
            <mxPoint x="4940" y="3680" as="targetPoint" />
          </mxGeometry>
        </mxCell>
        <mxCell id="8zTujfosPJd3p6IDFqLK-633" value="" style="endArrow=none;html=1;rounded=0;entryX=0.5;entryY=1;entryDx=0;entryDy=0;exitX=0;exitY=0.5;exitDx=0;exitDy=0;" edge="1" parent="1" source="8zTujfosPJd3p6IDFqLK-628">
          <mxGeometry width="50" height="50" relative="1" as="geometry">
            <mxPoint x="4765" y="3680" as="sourcePoint" />
            <mxPoint x="4680" y="3600" as="targetPoint" />
          </mxGeometry>
        </mxCell>
        <mxCell id="8zTujfosPJd3p6IDFqLK-634" value="&lt;b&gt;&lt;font style=&quot;font-size: 24px;&quot;&gt;link (1,2)&lt;/font&gt;&lt;/b&gt;" style="text;html=1;strokeColor=none;fillColor=none;align=center;verticalAlign=middle;whiteSpace=wrap;rounded=0;" vertex="1" parent="1">
          <mxGeometry x="4710" y="3570" width="100" height="30" as="geometry" />
        </mxCell>
        <mxCell id="8zTujfosPJd3p6IDFqLK-635" value="&lt;b&gt;&lt;font style=&quot;font-size: 24px;&quot;&gt;link (1,3)&lt;/font&gt;&lt;/b&gt;" style="text;html=1;strokeColor=none;fillColor=none;align=center;verticalAlign=middle;whiteSpace=wrap;rounded=0;" vertex="1" parent="1">
          <mxGeometry x="4560" y="3660" width="120" height="30" as="geometry" />
        </mxCell>
        <mxCell id="8zTujfosPJd3p6IDFqLK-636" value="&lt;b&gt;&lt;font style=&quot;font-size: 24px;&quot;&gt;link (4,5)&lt;/font&gt;&lt;/b&gt;" style="text;html=1;strokeColor=none;fillColor=none;align=center;verticalAlign=middle;whiteSpace=wrap;rounded=0;" vertex="1" parent="1">
          <mxGeometry x="4690" y="3760" width="130" height="30" as="geometry" />
        </mxCell>
        <mxCell id="8zTujfosPJd3p6IDFqLK-637" value="" style="endArrow=none;html=1;rounded=0;entryX=0.5;entryY=1;entryDx=0;entryDy=0;exitX=0;exitY=0.5;exitDx=0;exitDy=0;" edge="1" parent="1" source="8zTujfosPJd3p6IDFqLK-629">
          <mxGeometry width="50" height="50" relative="1" as="geometry">
            <mxPoint x="4760" y="3800" as="sourcePoint" />
            <mxPoint x="4680" y="3760" as="targetPoint" />
          </mxGeometry>
        </mxCell>
        <mxCell id="8zTujfosPJd3p6IDFqLK-638" value="&lt;font size=&quot;1&quot;&gt;&lt;b style=&quot;font-size: 22px;&quot;&gt;Graph&lt;/b&gt;&lt;/font&gt;&lt;font size=&quot;1&quot;&gt;&lt;b style=&quot;font-size: 22px;&quot;&gt;1&lt;/b&gt;&lt;/font&gt;" style="ellipse;whiteSpace=wrap;html=1;fillColor=#f5f5f5;fontColor=#333333;strokeColor=#666666;" vertex="1" parent="1">
          <mxGeometry x="5080" y="3560" width="120" height="80" as="geometry" />
        </mxCell>
        <mxCell id="8zTujfosPJd3p6IDFqLK-639" value="&lt;font size=&quot;1&quot;&gt;&lt;b style=&quot;font-size: 22px;&quot;&gt;Graph&lt;/b&gt;&lt;/font&gt;&lt;font size=&quot;1&quot;&gt;&lt;b style=&quot;font-size: 22px;&quot;&gt;2&lt;/b&gt;&lt;/font&gt;" style="ellipse;whiteSpace=wrap;html=1;fillColor=#dae8fc;strokeColor=#6c8ebf;" vertex="1" parent="1">
          <mxGeometry x="5360" y="3560" width="120" height="80" as="geometry" />
        </mxCell>
        <mxCell id="8zTujfosPJd3p6IDFqLK-640" value="&lt;font size=&quot;1&quot;&gt;&lt;b style=&quot;font-size: 22px;&quot;&gt;Graph&lt;/b&gt;&lt;/font&gt;&lt;font size=&quot;1&quot;&gt;&lt;b style=&quot;font-size: 22px;&quot;&gt;5&lt;/b&gt;&lt;/font&gt;" style="ellipse;whiteSpace=wrap;html=1;fillColor=#f8cecc;strokeColor=#b85450;" vertex="1" parent="1">
          <mxGeometry x="5360" y="3720" width="120" height="80" as="geometry" />
        </mxCell>
        <mxCell id="8zTujfosPJd3p6IDFqLK-641" value="&lt;font size=&quot;1&quot;&gt;&lt;b style=&quot;font-size: 22px;&quot;&gt;Graph&lt;/b&gt;&lt;/font&gt;&lt;font size=&quot;1&quot;&gt;&lt;b style=&quot;font-size: 22px;&quot;&gt;3&lt;/b&gt;&lt;/font&gt;" style="ellipse;whiteSpace=wrap;html=1;fillColor=#d5e8d4;strokeColor=#82b366;" vertex="1" parent="1">
          <mxGeometry x="5220" y="3640" width="120" height="80" as="geometry" />
        </mxCell>
        <mxCell id="8zTujfosPJd3p6IDFqLK-642" value="&lt;font size=&quot;1&quot;&gt;&lt;b style=&quot;font-size: 22px;&quot;&gt;Graph5&lt;/b&gt;&lt;/font&gt;" style="ellipse;whiteSpace=wrap;html=1;fillColor=#f8cecc;strokeColor=#b85450;" vertex="1" parent="1">
          <mxGeometry x="5080" y="3720" width="120" height="80" as="geometry" />
        </mxCell>
        <mxCell id="8zTujfosPJd3p6IDFqLK-643" value="" style="endArrow=none;html=1;rounded=0;entryX=0.5;entryY=1;entryDx=0;entryDy=0;exitX=0;exitY=0.5;exitDx=0;exitDy=0;" edge="1" parent="1" source="8zTujfosPJd3p6IDFqLK-624">
          <mxGeometry width="50" height="50" relative="1" as="geometry">
            <mxPoint x="4240" y="3759.4300000000003" as="sourcePoint" />
            <mxPoint x="4080" y="3759.4300000000003" as="targetPoint" />
          </mxGeometry>
        </mxCell>
        <mxCell id="8zTujfosPJd3p6IDFqLK-644" value="" style="endArrow=none;html=1;rounded=0;entryX=0.5;entryY=1;entryDx=0;entryDy=0;exitX=0;exitY=0.5;exitDx=0;exitDy=0;" edge="1" parent="1">
          <mxGeometry width="50" height="50" relative="1" as="geometry">
            <mxPoint x="5360" y="3759.44" as="sourcePoint" />
            <mxPoint x="5200" y="3759.44" as="targetPoint" />
          </mxGeometry>
        </mxCell>
        <mxCell id="8zTujfosPJd3p6IDFqLK-666" value="" style="curved=1;endArrow=none;html=1;rounded=0;startArrow=classic;startFill=1;endFill=0;exitX=0.5;exitY=0;exitDx=0;exitDy=0;strokeWidth=2;" edge="1" parent="1" source="8zTujfosPJd3p6IDFqLK-557">
          <mxGeometry width="50" height="50" relative="1" as="geometry">
            <mxPoint x="490" y="3490" as="sourcePoint" />
            <mxPoint x="830" y="3500" as="targetPoint" />
            <Array as="points">
              <mxPoint x="290" y="3400" />
              <mxPoint x="560" y="3320" />
              <mxPoint x="740" y="3400" />
            </Array>
          </mxGeometry>
        </mxCell>
        <mxCell id="8zTujfosPJd3p6IDFqLK-667" value="" style="curved=1;endArrow=none;html=1;rounded=0;startArrow=classic;startFill=1;endFill=0;strokeWidth=2;exitX=0.491;exitY=-0.019;exitDx=0;exitDy=0;exitPerimeter=0;" edge="1" parent="1" source="8zTujfosPJd3p6IDFqLK-560">
          <mxGeometry width="50" height="50" relative="1" as="geometry">
            <mxPoint x="320" y="3630" as="sourcePoint" />
            <mxPoint x="830" y="3500" as="targetPoint" />
            <Array as="points">
              <mxPoint x="340" y="3410" />
              <mxPoint x="570" y="3330" />
              <mxPoint x="740" y="3400" />
            </Array>
          </mxGeometry>
        </mxCell>
        <mxCell id="8zTujfosPJd3p6IDFqLK-668" value="" style="curved=1;endArrow=none;html=1;rounded=0;startArrow=classic;startFill=1;endFill=0;exitX=0.5;exitY=0;exitDx=0;exitDy=0;strokeWidth=2;" edge="1" parent="1" source="8zTujfosPJd3p6IDFqLK-558">
          <mxGeometry width="50" height="50" relative="1" as="geometry">
            <mxPoint x="317.5" y="3630" as="sourcePoint" />
            <mxPoint x="827.5" y="3500" as="targetPoint" />
            <Array as="points">
              <mxPoint x="430" y="3400" />
              <mxPoint x="560" y="3340" />
              <mxPoint x="737.5" y="3400" />
            </Array>
          </mxGeometry>
        </mxCell>
        <mxCell id="8zTujfosPJd3p6IDFqLK-670" value="" style="curved=1;endArrow=classic;html=1;rounded=0;entryX=0.627;entryY=0.993;entryDx=0;entryDy=0;entryPerimeter=0;exitX=0.5;exitY=1;exitDx=0;exitDy=0;strokeWidth=2;" edge="1" parent="1" source="8zTujfosPJd3p6IDFqLK-557" target="8zTujfosPJd3p6IDFqLK-663">
          <mxGeometry width="50" height="50" relative="1" as="geometry">
            <mxPoint x="220" y="3840" as="sourcePoint" />
            <mxPoint x="550" y="3780" as="targetPoint" />
            <Array as="points">
              <mxPoint x="340" y="3870" />
              <mxPoint x="700" y="3930" />
            </Array>
          </mxGeometry>
        </mxCell>
        <mxCell id="8zTujfosPJd3p6IDFqLK-673" value="" style="curved=1;endArrow=classic;html=1;rounded=0;entryX=0.627;entryY=0.993;entryDx=0;entryDy=0;entryPerimeter=0;exitX=0.5;exitY=1;exitDx=0;exitDy=0;strokeWidth=2;" edge="1" parent="1" source="8zTujfosPJd3p6IDFqLK-560">
          <mxGeometry width="50" height="50" relative="1" as="geometry">
            <mxPoint x="180" y="3640" as="sourcePoint" />
            <mxPoint x="894" y="3718" as="targetPoint" />
            <Array as="points">
              <mxPoint x="410" y="3850" />
              <mxPoint x="700" y="3890" />
            </Array>
          </mxGeometry>
        </mxCell>
        <mxCell id="8zTujfosPJd3p6IDFqLK-674" value="" style="curved=1;endArrow=classic;html=1;rounded=0;exitX=0.5;exitY=1;exitDx=0;exitDy=0;strokeWidth=2;" edge="1" parent="1" source="8zTujfosPJd3p6IDFqLK-558">
          <mxGeometry width="50" height="50" relative="1" as="geometry">
            <mxPoint x="320" y="3722" as="sourcePoint" />
            <mxPoint x="894" y="3720" as="targetPoint" />
            <Array as="points">
              <mxPoint x="490" y="3800" />
              <mxPoint x="690" y="3860" />
            </Array>
          </mxGeometry>
        </mxCell>
        <mxCell id="8zTujfosPJd3p6IDFqLK-676" value="&lt;b&gt;&lt;font style=&quot;font-size: 24px;&quot;&gt;Sending updated delete request&lt;br&gt;&lt;/font&gt;&lt;/b&gt;" style="text;html=1;strokeColor=none;fillColor=none;align=center;verticalAlign=middle;whiteSpace=wrap;rounded=0;" vertex="1" parent="1">
          <mxGeometry x="455" y="3920" width="250" height="120" as="geometry" />
        </mxCell>
        <mxCell id="8zTujfosPJd3p6IDFqLK-677" value="&lt;b&gt;&lt;font style=&quot;font-size: 24px;&quot;&gt;Sending updated graphs, values to nodes&lt;br&gt;&lt;/font&gt;&lt;/b&gt;" style="text;html=1;strokeColor=none;fillColor=none;align=center;verticalAlign=middle;whiteSpace=wrap;rounded=0;" vertex="1" parent="1">
          <mxGeometry x="455" y="3400" width="250" height="120" as="geometry" />
        </mxCell>
        <mxCell id="8zTujfosPJd3p6IDFqLK-687" value="" style="curved=1;endArrow=none;html=1;rounded=0;startArrow=classic;startFill=1;endFill=0;exitX=0.5;exitY=0;exitDx=0;exitDy=0;strokeWidth=2;" edge="1" parent="1">
          <mxGeometry width="50" height="50" relative="1" as="geometry">
            <mxPoint x="1260" y="3560" as="sourcePoint" />
            <mxPoint x="1910" y="3500" as="targetPoint" />
            <Array as="points">
              <mxPoint x="1370" y="3400" />
              <mxPoint x="1640" y="3320" />
              <mxPoint x="1820" y="3400" />
            </Array>
          </mxGeometry>
        </mxCell>
        <mxCell id="8zTujfosPJd3p6IDFqLK-688" value="" style="curved=1;endArrow=none;html=1;rounded=0;startArrow=classic;startFill=1;endFill=0;strokeWidth=2;exitX=0.491;exitY=-0.019;exitDx=0;exitDy=0;exitPerimeter=0;" edge="1" parent="1">
          <mxGeometry width="50" height="50" relative="1" as="geometry">
            <mxPoint x="1399" y="3638" as="sourcePoint" />
            <mxPoint x="1910" y="3500" as="targetPoint" />
            <Array as="points">
              <mxPoint x="1420" y="3410" />
              <mxPoint x="1650" y="3330" />
              <mxPoint x="1820" y="3400" />
            </Array>
          </mxGeometry>
        </mxCell>
        <mxCell id="8zTujfosPJd3p6IDFqLK-689" value="" style="curved=1;endArrow=none;html=1;rounded=0;startArrow=classic;startFill=1;endFill=0;exitX=0.5;exitY=0;exitDx=0;exitDy=0;strokeWidth=2;" edge="1" parent="1">
          <mxGeometry width="50" height="50" relative="1" as="geometry">
            <mxPoint x="1540" y="3560" as="sourcePoint" />
            <mxPoint x="1907.5" y="3500" as="targetPoint" />
            <Array as="points">
              <mxPoint x="1510" y="3400" />
              <mxPoint x="1640" y="3340" />
              <mxPoint x="1817.5" y="3400" />
            </Array>
          </mxGeometry>
        </mxCell>
        <mxCell id="8zTujfosPJd3p6IDFqLK-690" value="" style="curved=1;endArrow=classic;html=1;rounded=0;entryX=0.627;entryY=0.993;entryDx=0;entryDy=0;entryPerimeter=0;exitX=0.5;exitY=1;exitDx=0;exitDy=0;strokeWidth=2;" edge="1" parent="1">
          <mxGeometry width="50" height="50" relative="1" as="geometry">
            <mxPoint x="1260" y="3640" as="sourcePoint" />
            <mxPoint x="1974" y="3718" as="targetPoint" />
            <Array as="points">
              <mxPoint x="1420" y="3870" />
              <mxPoint x="1780" y="3930" />
            </Array>
          </mxGeometry>
        </mxCell>
        <mxCell id="8zTujfosPJd3p6IDFqLK-691" value="" style="curved=1;endArrow=classic;html=1;rounded=0;entryX=0.627;entryY=0.993;entryDx=0;entryDy=0;entryPerimeter=0;exitX=0.5;exitY=1;exitDx=0;exitDy=0;strokeWidth=2;" edge="1" parent="1">
          <mxGeometry width="50" height="50" relative="1" as="geometry">
            <mxPoint x="1400" y="3720" as="sourcePoint" />
            <mxPoint x="1974" y="3718" as="targetPoint" />
            <Array as="points">
              <mxPoint x="1490" y="3850" />
              <mxPoint x="1780" y="3890" />
            </Array>
          </mxGeometry>
        </mxCell>
        <mxCell id="8zTujfosPJd3p6IDFqLK-692" value="" style="curved=1;endArrow=classic;html=1;rounded=0;exitX=0.5;exitY=1;exitDx=0;exitDy=0;strokeWidth=2;" edge="1" parent="1">
          <mxGeometry width="50" height="50" relative="1" as="geometry">
            <mxPoint x="1540" y="3640" as="sourcePoint" />
            <mxPoint x="1974" y="3720" as="targetPoint" />
            <Array as="points">
              <mxPoint x="1570" y="3800" />
              <mxPoint x="1770" y="3860" />
            </Array>
          </mxGeometry>
        </mxCell>
        <mxCell id="8zTujfosPJd3p6IDFqLK-694" value="&lt;b&gt;&lt;font style=&quot;font-size: 24px;&quot;&gt;Sending updated graphs, values to nodes&lt;br&gt;&lt;/font&gt;&lt;/b&gt;" style="text;html=1;strokeColor=none;fillColor=none;align=center;verticalAlign=middle;whiteSpace=wrap;rounded=0;" vertex="1" parent="1">
          <mxGeometry x="1535" y="3400" width="250" height="120" as="geometry" />
        </mxCell>
        <mxCell id="8zTujfosPJd3p6IDFqLK-695" value="&lt;b&gt;&lt;font style=&quot;font-size: 24px;&quot;&gt;Parallel process:&lt;br&gt;&lt;/font&gt;&lt;/b&gt;" style="text;html=1;strokeColor=none;fillColor=none;align=center;verticalAlign=middle;whiteSpace=wrap;rounded=0;" vertex="1" parent="1">
          <mxGeometry x="475" y="3380" width="210" height="40" as="geometry" />
        </mxCell>
        <mxCell id="8zTujfosPJd3p6IDFqLK-696" value="&lt;b&gt;&lt;font style=&quot;font-size: 24px;&quot;&gt;Parallel process:&lt;br&gt;&lt;/font&gt;&lt;/b&gt;" style="text;html=1;strokeColor=none;fillColor=none;align=center;verticalAlign=middle;whiteSpace=wrap;rounded=0;" vertex="1" parent="1">
          <mxGeometry x="475" y="3910" width="210" height="40" as="geometry" />
        </mxCell>
        <mxCell id="8zTujfosPJd3p6IDFqLK-697" value="&lt;b&gt;&lt;font style=&quot;font-size: 24px;&quot;&gt;Parallel process:&lt;br&gt;&lt;/font&gt;&lt;/b&gt;" style="text;html=1;strokeColor=none;fillColor=none;align=center;verticalAlign=middle;whiteSpace=wrap;rounded=0;" vertex="1" parent="1">
          <mxGeometry x="2680" y="3380" width="210" height="40" as="geometry" />
        </mxCell>
        <mxCell id="8zTujfosPJd3p6IDFqLK-701" value="&lt;b&gt;&lt;font style=&quot;font-size: 24px;&quot;&gt;Sending updated delete request&lt;br&gt;&lt;/font&gt;&lt;/b&gt;" style="text;html=1;strokeColor=none;fillColor=none;align=center;verticalAlign=middle;whiteSpace=wrap;rounded=0;" vertex="1" parent="1">
          <mxGeometry x="1527.5" y="3920" width="250" height="120" as="geometry" />
        </mxCell>
        <mxCell id="8zTujfosPJd3p6IDFqLK-702" value="&lt;b&gt;&lt;font style=&quot;font-size: 24px;&quot;&gt;Parallel process:&lt;br&gt;&lt;/font&gt;&lt;/b&gt;" style="text;html=1;strokeColor=none;fillColor=none;align=center;verticalAlign=middle;whiteSpace=wrap;rounded=0;" vertex="1" parent="1">
          <mxGeometry x="1547.5" y="3910" width="210" height="40" as="geometry" />
        </mxCell>
        <mxCell id="8zTujfosPJd3p6IDFqLK-703" value="" style="curved=1;endArrow=none;html=1;rounded=0;startArrow=classic;startFill=1;endFill=0;exitX=0.5;exitY=0;exitDx=0;exitDy=0;strokeWidth=2;" edge="1" parent="1">
          <mxGeometry width="50" height="50" relative="1" as="geometry">
            <mxPoint x="2380" y="3560" as="sourcePoint" />
            <mxPoint x="3030" y="3500" as="targetPoint" />
            <Array as="points">
              <mxPoint x="2490" y="3400" />
              <mxPoint x="2760" y="3320" />
              <mxPoint x="2940" y="3400" />
            </Array>
          </mxGeometry>
        </mxCell>
        <mxCell id="8zTujfosPJd3p6IDFqLK-704" value="" style="curved=1;endArrow=none;html=1;rounded=0;startArrow=classic;startFill=1;endFill=0;strokeWidth=2;exitX=0.491;exitY=-0.019;exitDx=0;exitDy=0;exitPerimeter=0;" edge="1" parent="1">
          <mxGeometry width="50" height="50" relative="1" as="geometry">
            <mxPoint x="2519" y="3638" as="sourcePoint" />
            <mxPoint x="3030" y="3500" as="targetPoint" />
            <Array as="points">
              <mxPoint x="2540" y="3410" />
              <mxPoint x="2770" y="3330" />
              <mxPoint x="2940" y="3400" />
            </Array>
          </mxGeometry>
        </mxCell>
        <mxCell id="8zTujfosPJd3p6IDFqLK-705" value="" style="curved=1;endArrow=none;html=1;rounded=0;startArrow=classic;startFill=1;endFill=0;exitX=0.5;exitY=0;exitDx=0;exitDy=0;strokeWidth=2;" edge="1" parent="1">
          <mxGeometry width="50" height="50" relative="1" as="geometry">
            <mxPoint x="2660" y="3560" as="sourcePoint" />
            <mxPoint x="3027.5" y="3500" as="targetPoint" />
            <Array as="points">
              <mxPoint x="2630" y="3400" />
              <mxPoint x="2760" y="3340" />
              <mxPoint x="2937.5" y="3400" />
            </Array>
          </mxGeometry>
        </mxCell>
        <mxCell id="8zTujfosPJd3p6IDFqLK-706" value="" style="curved=1;endArrow=classic;html=1;rounded=0;entryX=0.627;entryY=0.993;entryDx=0;entryDy=0;entryPerimeter=0;exitX=0.5;exitY=1;exitDx=0;exitDy=0;strokeWidth=2;" edge="1" parent="1">
          <mxGeometry width="50" height="50" relative="1" as="geometry">
            <mxPoint x="2380" y="3640" as="sourcePoint" />
            <mxPoint x="3094" y="3718" as="targetPoint" />
            <Array as="points">
              <mxPoint x="2540" y="3870" />
              <mxPoint x="2900" y="3930" />
            </Array>
          </mxGeometry>
        </mxCell>
        <mxCell id="8zTujfosPJd3p6IDFqLK-707" value="" style="curved=1;endArrow=classic;html=1;rounded=0;entryX=0.627;entryY=0.993;entryDx=0;entryDy=0;entryPerimeter=0;exitX=0.5;exitY=1;exitDx=0;exitDy=0;strokeWidth=2;" edge="1" parent="1">
          <mxGeometry width="50" height="50" relative="1" as="geometry">
            <mxPoint x="2520" y="3720" as="sourcePoint" />
            <mxPoint x="3094" y="3718" as="targetPoint" />
            <Array as="points">
              <mxPoint x="2610" y="3850" />
              <mxPoint x="2900" y="3890" />
            </Array>
          </mxGeometry>
        </mxCell>
        <mxCell id="8zTujfosPJd3p6IDFqLK-708" value="" style="curved=1;endArrow=classic;html=1;rounded=0;exitX=0.5;exitY=1;exitDx=0;exitDy=0;strokeWidth=2;" edge="1" parent="1">
          <mxGeometry width="50" height="50" relative="1" as="geometry">
            <mxPoint x="2660" y="3640" as="sourcePoint" />
            <mxPoint x="3094" y="3720" as="targetPoint" />
            <Array as="points">
              <mxPoint x="2690" y="3800" />
              <mxPoint x="2890" y="3860" />
            </Array>
          </mxGeometry>
        </mxCell>
        <mxCell id="8zTujfosPJd3p6IDFqLK-709" value="&lt;b&gt;&lt;font style=&quot;font-size: 24px;&quot;&gt;Sending updated graphs, values to nodes&lt;br&gt;&lt;/font&gt;&lt;/b&gt;" style="text;html=1;strokeColor=none;fillColor=none;align=center;verticalAlign=middle;whiteSpace=wrap;rounded=0;" vertex="1" parent="1">
          <mxGeometry x="2655" y="3400" width="250" height="120" as="geometry" />
        </mxCell>
        <mxCell id="8zTujfosPJd3p6IDFqLK-710" value="&lt;b&gt;&lt;font style=&quot;font-size: 24px;&quot;&gt;Sending updated delete request&lt;br&gt;&lt;/font&gt;&lt;/b&gt;" style="text;html=1;strokeColor=none;fillColor=none;align=center;verticalAlign=middle;whiteSpace=wrap;rounded=0;" vertex="1" parent="1">
          <mxGeometry x="2647.5" y="3920" width="250" height="120" as="geometry" />
        </mxCell>
        <mxCell id="8zTujfosPJd3p6IDFqLK-711" value="&lt;b&gt;&lt;font style=&quot;font-size: 24px;&quot;&gt;Parallel process:&lt;br&gt;&lt;/font&gt;&lt;/b&gt;" style="text;html=1;strokeColor=none;fillColor=none;align=center;verticalAlign=middle;whiteSpace=wrap;rounded=0;" vertex="1" parent="1">
          <mxGeometry x="2667.5" y="3910" width="210" height="40" as="geometry" />
        </mxCell>
        <mxCell id="8zTujfosPJd3p6IDFqLK-717" value="" style="curved=1;endArrow=none;html=1;rounded=0;startArrow=classic;startFill=1;endFill=0;exitX=0.537;exitY=-0.007;exitDx=0;exitDy=0;exitPerimeter=0;entryX=0.306;entryY=0.042;entryDx=0;entryDy=0;entryPerimeter=0;" edge="1" parent="1" source="8zTujfosPJd3p6IDFqLK-615" target="8zTujfosPJd3p6IDFqLK-714">
          <mxGeometry width="50" height="50" relative="1" as="geometry">
            <mxPoint x="3770" y="3700" as="sourcePoint" />
            <mxPoint x="4070" y="3700" as="targetPoint" />
            <Array as="points">
              <mxPoint x="3900" y="3600" />
            </Array>
          </mxGeometry>
        </mxCell>
        <mxCell id="8zTujfosPJd3p6IDFqLK-720" value="" style="curved=1;endArrow=none;html=1;rounded=0;startArrow=classic;startFill=1;endFill=0;entryX=0.307;entryY=0.042;entryDx=0;entryDy=0;entryPerimeter=0;exitX=0.307;exitY=0.053;exitDx=0;exitDy=0;exitPerimeter=0;" edge="1" parent="1" source="8zTujfosPJd3p6IDFqLK-613" target="8zTujfosPJd3p6IDFqLK-714">
          <mxGeometry width="50" height="50" relative="1" as="geometry">
            <mxPoint x="3510" y="3720" as="sourcePoint" />
            <mxPoint x="4067" y="3698" as="targetPoint" />
            <Array as="points">
              <mxPoint x="3892" y="3621" />
            </Array>
          </mxGeometry>
        </mxCell>
        <mxCell id="8zTujfosPJd3p6IDFqLK-722" value="" style="curved=1;endArrow=none;html=1;rounded=0;startArrow=classic;startFill=1;endFill=0;exitX=0.304;exitY=0.962;exitDx=0;exitDy=0;exitPerimeter=0;entryX=0.561;entryY=0.988;entryDx=0;entryDy=0;entryPerimeter=0;" edge="1" parent="1" source="8zTujfosPJd3p6IDFqLK-714" target="8zTujfosPJd3p6IDFqLK-615">
          <mxGeometry width="50" height="50" relative="1" as="geometry">
            <mxPoint x="4090" y="3910" as="sourcePoint" />
            <mxPoint x="3514" y="3929" as="targetPoint" />
            <Array as="points">
              <mxPoint x="3930" y="3870" />
              <mxPoint x="3730" y="3870" />
            </Array>
          </mxGeometry>
        </mxCell>
        <mxCell id="8zTujfosPJd3p6IDFqLK-723" value="" style="curved=1;endArrow=none;html=1;rounded=0;startArrow=classic;startFill=1;endFill=0;entryX=0.345;entryY=0.999;entryDx=0;entryDy=0;entryPerimeter=0;exitX=0.307;exitY=0.962;exitDx=0;exitDy=0;exitPerimeter=0;" edge="1" parent="1" source="8zTujfosPJd3p6IDFqLK-714" target="8zTujfosPJd3p6IDFqLK-613">
          <mxGeometry width="50" height="50" relative="1" as="geometry">
            <mxPoint x="4080" y="3919" as="sourcePoint" />
            <mxPoint x="3757" y="3943" as="targetPoint" />
            <Array as="points">
              <mxPoint x="3890" y="3880" />
            </Array>
          </mxGeometry>
        </mxCell>
        <mxCell id="8zTujfosPJd3p6IDFqLK-724" value="&lt;b&gt;&lt;font style=&quot;font-size: 24px;&quot;&gt;Parallel process:&lt;br&gt;&lt;/font&gt;&lt;/b&gt;" style="text;html=1;strokeColor=none;fillColor=none;align=center;verticalAlign=middle;whiteSpace=wrap;rounded=0;" vertex="1" parent="1">
          <mxGeometry x="1555" y="3380" width="210" height="40" as="geometry" />
        </mxCell>
        <mxCell id="8zTujfosPJd3p6IDFqLK-725" value="&lt;b&gt;&lt;font style=&quot;font-size: 24px;&quot;&gt;Parallel process:&lt;br&gt;&lt;/font&gt;&lt;/b&gt;" style="text;html=1;strokeColor=none;fillColor=none;align=center;verticalAlign=middle;whiteSpace=wrap;rounded=0;" vertex="1" parent="1">
          <mxGeometry x="3792.5" y="3610" width="210" height="40" as="geometry" />
        </mxCell>
        <mxCell id="8zTujfosPJd3p6IDFqLK-726" value="&lt;b&gt;&lt;font style=&quot;font-size: 24px;&quot;&gt;Sending updated graphs, values to nodes&lt;br&gt;&lt;/font&gt;&lt;/b&gt;" style="text;html=1;strokeColor=none;fillColor=none;align=center;verticalAlign=middle;whiteSpace=wrap;rounded=0;" vertex="1" parent="1">
          <mxGeometry x="3767.5" y="3630" width="250" height="120" as="geometry" />
        </mxCell>
        <mxCell id="8zTujfosPJd3p6IDFqLK-727" value="&lt;b&gt;&lt;font style=&quot;font-size: 24px;&quot;&gt;Sending updated delete request&lt;br&gt;&lt;/font&gt;&lt;/b&gt;" style="text;html=1;strokeColor=none;fillColor=none;align=center;verticalAlign=middle;whiteSpace=wrap;rounded=0;" vertex="1" parent="1">
          <mxGeometry x="3755" y="3860" width="250" height="120" as="geometry" />
        </mxCell>
        <mxCell id="8zTujfosPJd3p6IDFqLK-728" value="&lt;b&gt;&lt;font style=&quot;font-size: 24px;&quot;&gt;Parallel process:&lt;br&gt;&lt;/font&gt;&lt;/b&gt;" style="text;html=1;strokeColor=none;fillColor=none;align=center;verticalAlign=middle;whiteSpace=wrap;rounded=0;" vertex="1" parent="1">
          <mxGeometry x="3775" y="3850" width="210" height="40" as="geometry" />
        </mxCell>
        <mxCell id="8zTujfosPJd3p6IDFqLK-729" value="" style="curved=1;endArrow=none;html=1;rounded=0;startArrow=classic;startFill=1;endFill=0;exitX=0.537;exitY=-0.007;exitDx=0;exitDy=0;exitPerimeter=0;entryX=0.306;entryY=0.042;entryDx=0;entryDy=0;entryPerimeter=0;" edge="1" parent="1">
          <mxGeometry width="50" height="50" relative="1" as="geometry">
            <mxPoint x="4624" y="3719" as="sourcePoint" />
            <mxPoint x="5200" y="3700" as="targetPoint" />
            <Array as="points">
              <mxPoint x="5020" y="3600" />
            </Array>
          </mxGeometry>
        </mxCell>
        <mxCell id="8zTujfosPJd3p6IDFqLK-730" value="" style="curved=1;endArrow=none;html=1;rounded=0;startArrow=classic;startFill=1;endFill=0;entryX=0.307;entryY=0.042;entryDx=0;entryDy=0;entryPerimeter=0;exitX=0.307;exitY=0.053;exitDx=0;exitDy=0;exitPerimeter=0;" edge="1" parent="1">
          <mxGeometry width="50" height="50" relative="1" as="geometry">
            <mxPoint x="4877" y="3724" as="sourcePoint" />
            <mxPoint x="5200" y="3700" as="targetPoint" />
            <Array as="points">
              <mxPoint x="5012" y="3621" />
            </Array>
          </mxGeometry>
        </mxCell>
        <mxCell id="8zTujfosPJd3p6IDFqLK-731" value="" style="curved=1;endArrow=none;html=1;rounded=0;startArrow=classic;startFill=1;endFill=0;exitX=0.549;exitY=1.011;exitDx=0;exitDy=0;exitPerimeter=0;entryX=0.549;entryY=1.011;entryDx=0;entryDy=0;entryPerimeter=0;" edge="1" parent="1" target="8zTujfosPJd3p6IDFqLK-631">
          <mxGeometry width="50" height="50" relative="1" as="geometry">
            <mxPoint x="5199" y="3820" as="sourcePoint" />
            <mxPoint x="4630" y="3803" as="targetPoint" />
            <Array as="points">
              <mxPoint x="5050" y="3870" />
              <mxPoint x="4850" y="3870" />
            </Array>
          </mxGeometry>
        </mxCell>
        <mxCell id="8zTujfosPJd3p6IDFqLK-732" value="" style="curved=1;endArrow=none;html=1;rounded=0;startArrow=classic;startFill=1;endFill=0;entryX=0.307;entryY=0.962;entryDx=0;entryDy=0;entryPerimeter=0;exitX=0.345;exitY=0.999;exitDx=0;exitDy=0;exitPerimeter=0;" edge="1" parent="1">
          <mxGeometry width="50" height="50" relative="1" as="geometry">
            <mxPoint x="5200" y="3820" as="sourcePoint" />
            <mxPoint x="4881" y="3800" as="targetPoint" />
            <Array as="points">
              <mxPoint x="5010" y="3880" />
            </Array>
          </mxGeometry>
        </mxCell>
        <mxCell id="8zTujfosPJd3p6IDFqLK-733" value="&lt;b&gt;&lt;font style=&quot;font-size: 24px;&quot;&gt;Parallel process:&lt;br&gt;&lt;/font&gt;&lt;/b&gt;" style="text;html=1;strokeColor=none;fillColor=none;align=center;verticalAlign=middle;whiteSpace=wrap;rounded=0;" vertex="1" parent="1">
          <mxGeometry x="4912.5" y="3610" width="210" height="40" as="geometry" />
        </mxCell>
        <mxCell id="8zTujfosPJd3p6IDFqLK-734" value="&lt;b&gt;&lt;font style=&quot;font-size: 24px;&quot;&gt;Sending updated graphs, values to nodes&lt;br&gt;&lt;/font&gt;&lt;/b&gt;" style="text;html=1;strokeColor=none;fillColor=none;align=center;verticalAlign=middle;whiteSpace=wrap;rounded=0;" vertex="1" parent="1">
          <mxGeometry x="4887.5" y="3630" width="250" height="120" as="geometry" />
        </mxCell>
        <mxCell id="8zTujfosPJd3p6IDFqLK-735" value="&lt;b&gt;&lt;font style=&quot;font-size: 24px;&quot;&gt;Sending updated delete request&lt;br&gt;&lt;/font&gt;&lt;/b&gt;" style="text;html=1;strokeColor=none;fillColor=none;align=center;verticalAlign=middle;whiteSpace=wrap;rounded=0;" vertex="1" parent="1">
          <mxGeometry x="4875" y="3860" width="250" height="120" as="geometry" />
        </mxCell>
        <mxCell id="8zTujfosPJd3p6IDFqLK-736" value="&lt;b&gt;&lt;font style=&quot;font-size: 24px;&quot;&gt;Parallel process:&lt;br&gt;&lt;/font&gt;&lt;/b&gt;" style="text;html=1;strokeColor=none;fillColor=none;align=center;verticalAlign=middle;whiteSpace=wrap;rounded=0;" vertex="1" parent="1">
          <mxGeometry x="4895" y="3850" width="210" height="40" as="geometry" />
        </mxCell>
        <mxCell id="8zTujfosPJd3p6IDFqLK-738" value="" style="html=1;shadow=0;dashed=0;align=center;verticalAlign=middle;shape=mxgraph.arrows2.arrow;dy=0.6;dx=40;direction=south;notch=0;strokeWidth=2;" vertex="1" parent="1">
          <mxGeometry x="535" y="3210" width="70" height="100" as="geometry" />
        </mxCell>
        <mxCell id="8zTujfosPJd3p6IDFqLK-739" value="&lt;b&gt;&lt;font style=&quot;font-size: 24px;&quot;&gt;Parallel process:&lt;br&gt;&lt;/font&gt;&lt;/b&gt;" style="text;html=1;strokeColor=none;fillColor=none;align=center;verticalAlign=middle;whiteSpace=wrap;rounded=0;" vertex="1" parent="1">
          <mxGeometry x="485" y="3160" width="210" height="40" as="geometry" />
        </mxCell>
        <mxCell id="8zTujfosPJd3p6IDFqLK-745" value="" style="html=1;shadow=0;dashed=0;align=center;verticalAlign=middle;shape=mxgraph.arrows2.arrow;dy=0.6;dx=40;direction=south;notch=0;strokeWidth=2;" vertex="1" parent="1">
          <mxGeometry x="1617.5" y="3210" width="70" height="100" as="geometry" />
        </mxCell>
        <mxCell id="8zTujfosPJd3p6IDFqLK-746" value="&lt;b&gt;&lt;font style=&quot;font-size: 24px;&quot;&gt;Parallel process:&lt;br&gt;&lt;/font&gt;&lt;/b&gt;" style="text;html=1;strokeColor=none;fillColor=none;align=center;verticalAlign=middle;whiteSpace=wrap;rounded=0;" vertex="1" parent="1">
          <mxGeometry x="1567.5" y="3160" width="210" height="40" as="geometry" />
        </mxCell>
        <mxCell id="8zTujfosPJd3p6IDFqLK-747" value="" style="html=1;shadow=0;dashed=0;align=center;verticalAlign=middle;shape=mxgraph.arrows2.arrow;dy=0.6;dx=40;direction=south;notch=0;strokeWidth=2;" vertex="1" parent="1">
          <mxGeometry x="2705" y="3200" width="70" height="100" as="geometry" />
        </mxCell>
        <mxCell id="8zTujfosPJd3p6IDFqLK-748" value="&lt;b&gt;&lt;font style=&quot;font-size: 24px;&quot;&gt;Parallel process:&lt;br&gt;&lt;/font&gt;&lt;/b&gt;" style="text;html=1;strokeColor=none;fillColor=none;align=center;verticalAlign=middle;whiteSpace=wrap;rounded=0;" vertex="1" parent="1">
          <mxGeometry x="2655" y="3150" width="210" height="40" as="geometry" />
        </mxCell>
        <mxCell id="8zTujfosPJd3p6IDFqLK-749" value="" style="html=1;shadow=0;dashed=0;align=center;verticalAlign=middle;shape=mxgraph.arrows2.arrow;dy=0.6;dx=40;direction=south;notch=0;strokeWidth=2;" vertex="1" parent="1">
          <mxGeometry x="3825" y="3200" width="70" height="100" as="geometry" />
        </mxCell>
        <mxCell id="8zTujfosPJd3p6IDFqLK-750" value="&lt;b&gt;&lt;font style=&quot;font-size: 24px;&quot;&gt;Parallel process:&lt;br&gt;&lt;/font&gt;&lt;/b&gt;" style="text;html=1;strokeColor=none;fillColor=none;align=center;verticalAlign=middle;whiteSpace=wrap;rounded=0;" vertex="1" parent="1">
          <mxGeometry x="3775" y="3150" width="210" height="40" as="geometry" />
        </mxCell>
        <mxCell id="8zTujfosPJd3p6IDFqLK-751" value="" style="html=1;shadow=0;dashed=0;align=center;verticalAlign=middle;shape=mxgraph.arrows2.arrow;dy=0.6;dx=40;direction=south;notch=0;strokeWidth=2;" vertex="1" parent="1">
          <mxGeometry x="4930" y="3200" width="70" height="100" as="geometry" />
        </mxCell>
        <mxCell id="8zTujfosPJd3p6IDFqLK-752" value="&lt;b&gt;&lt;font style=&quot;font-size: 24px;&quot;&gt;Parallel process:&lt;br&gt;&lt;/font&gt;&lt;/b&gt;" style="text;html=1;strokeColor=none;fillColor=none;align=center;verticalAlign=middle;whiteSpace=wrap;rounded=0;" vertex="1" parent="1">
          <mxGeometry x="4880" y="3150" width="210" height="40" as="geometry" />
        </mxCell>
        <mxCell id="8zTujfosPJd3p6IDFqLK-764" value="&lt;b&gt;&lt;font style=&quot;font-size: 24px;&quot;&gt;Max&lt;br&gt;&lt;/font&gt;&lt;/b&gt;" style="text;html=1;strokeColor=none;fillColor=none;align=center;verticalAlign=middle;whiteSpace=wrap;rounded=0;" vertex="1" parent="1">
          <mxGeometry x="740" y="3530" width="210" height="40" as="geometry" />
        </mxCell>
        <mxCell id="8zTujfosPJd3p6IDFqLK-765" value="&lt;b&gt;&lt;font style=&quot;font-size: 24px;&quot;&gt;Max&lt;br&gt;&lt;/font&gt;&lt;/b&gt;" style="text;html=1;strokeColor=none;fillColor=none;align=center;verticalAlign=middle;whiteSpace=wrap;rounded=0;" vertex="1" parent="1">
          <mxGeometry x="4060" y="3780" width="210" height="40" as="geometry" />
        </mxCell>
        <mxCell id="8zTujfosPJd3p6IDFqLK-768" value="" style="html=1;shadow=0;dashed=0;align=center;verticalAlign=middle;shape=mxgraph.arrows2.arrow;dy=0.6;dx=40;direction=south;notch=0;strokeWidth=2;" vertex="1" parent="1">
          <mxGeometry x="535" y="4040" width="70" height="100" as="geometry" />
        </mxCell>
        <mxCell id="8zTujfosPJd3p6IDFqLK-769" value="" style="html=1;shadow=0;dashed=0;align=center;verticalAlign=middle;shape=mxgraph.arrows2.arrow;dy=0.6;dx=40;direction=south;notch=0;strokeWidth=2;" vertex="1" parent="1">
          <mxGeometry x="1637.5" y="4040" width="70" height="100" as="geometry" />
        </mxCell>
        <mxCell id="8zTujfosPJd3p6IDFqLK-770" value="" style="html=1;shadow=0;dashed=0;align=center;verticalAlign=middle;shape=mxgraph.arrows2.arrow;dy=0.6;dx=40;direction=south;notch=0;strokeWidth=2;" vertex="1" parent="1">
          <mxGeometry x="2720" y="4040" width="70" height="100" as="geometry" />
        </mxCell>
        <mxCell id="8zTujfosPJd3p6IDFqLK-771" value="" style="html=1;shadow=0;dashed=0;align=center;verticalAlign=middle;shape=mxgraph.arrows2.arrow;dy=0.6;dx=40;direction=south;notch=0;strokeWidth=2;" vertex="1" parent="1">
          <mxGeometry x="3822.5" y="4040" width="70" height="100" as="geometry" />
        </mxCell>
        <mxCell id="8zTujfosPJd3p6IDFqLK-776" value="" style="html=1;shadow=0;dashed=0;align=center;verticalAlign=middle;shape=mxgraph.arrows2.arrow;dy=0.6;dx=40;direction=south;notch=0;strokeWidth=2;" vertex="1" parent="1">
          <mxGeometry x="4925" y="4040" width="70" height="100" as="geometry" />
        </mxCell>
        <mxCell id="8zTujfosPJd3p6IDFqLK-777" value="" style="ellipse;whiteSpace=wrap;html=1;fillColor=#f5f5f5;fontColor=#333333;strokeColor=#666666;strokeWidth=4;" vertex="1" parent="1">
          <mxGeometry x="627.5" y="4180" width="425" height="220" as="geometry" />
        </mxCell>
        <mxCell id="8zTujfosPJd3p6IDFqLK-778" value="&lt;font size=&quot;1&quot;&gt;&lt;b style=&quot;font-size: 22px;&quot;&gt;Node1&lt;/b&gt;&lt;/font&gt;" style="ellipse;whiteSpace=wrap;html=1;fillColor=#f5f5f5;fontColor=#333333;strokeColor=#666666;" vertex="1" parent="1">
          <mxGeometry x="120" y="4240" width="120" height="80" as="geometry" />
        </mxCell>
        <mxCell id="8zTujfosPJd3p6IDFqLK-779" value="&lt;font size=&quot;1&quot;&gt;&lt;b style=&quot;font-size: 22px;&quot;&gt;Node2&lt;/b&gt;&lt;/font&gt;" style="ellipse;whiteSpace=wrap;html=1;fillColor=#f5f5f5;strokeColor=#666666;fontColor=#333333;" vertex="1" parent="1">
          <mxGeometry x="400" y="4240" width="120" height="80" as="geometry" />
        </mxCell>
        <mxCell id="8zTujfosPJd3p6IDFqLK-781" value="&lt;font size=&quot;1&quot;&gt;&lt;b style=&quot;font-size: 22px;&quot;&gt;Node3&lt;/b&gt;&lt;/font&gt;" style="ellipse;whiteSpace=wrap;html=1;fillColor=#f5f5f5;strokeColor=#666666;fontColor=#333333;" vertex="1" parent="1">
          <mxGeometry x="260" y="4320" width="120" height="80" as="geometry" />
        </mxCell>
        <mxCell id="8zTujfosPJd3p6IDFqLK-783" value="" style="endArrow=none;html=1;rounded=0;entryX=0.5;entryY=1;entryDx=0;entryDy=0;exitX=0;exitY=0.5;exitDx=0;exitDy=0;" edge="1" parent="1" source="8zTujfosPJd3p6IDFqLK-781" target="8zTujfosPJd3p6IDFqLK-778">
          <mxGeometry width="50" height="50" relative="1" as="geometry">
            <mxPoint x="260" y="4400" as="sourcePoint" />
            <mxPoint x="500" y="4360" as="targetPoint" />
          </mxGeometry>
        </mxCell>
        <mxCell id="8zTujfosPJd3p6IDFqLK-784" value="" style="endArrow=none;html=1;rounded=0;entryX=0.5;entryY=1;entryDx=0;entryDy=0;exitX=0;exitY=0.5;exitDx=0;exitDy=0;" edge="1" parent="1" source="8zTujfosPJd3p6IDFqLK-779">
          <mxGeometry width="50" height="50" relative="1" as="geometry">
            <mxPoint x="325" y="4360" as="sourcePoint" />
            <mxPoint x="240" y="4280" as="targetPoint" />
          </mxGeometry>
        </mxCell>
        <mxCell id="8zTujfosPJd3p6IDFqLK-785" value="&lt;b&gt;&lt;font style=&quot;font-size: 24px;&quot;&gt;link (1,2)&lt;/font&gt;&lt;/b&gt;" style="text;html=1;strokeColor=none;fillColor=none;align=center;verticalAlign=middle;whiteSpace=wrap;rounded=0;" vertex="1" parent="1">
          <mxGeometry x="270" y="4250" width="100" height="30" as="geometry" />
        </mxCell>
        <mxCell id="8zTujfosPJd3p6IDFqLK-786" value="&lt;b&gt;&lt;font style=&quot;font-size: 24px;&quot;&gt;link (1,3)&lt;/font&gt;&lt;/b&gt;" style="text;html=1;strokeColor=none;fillColor=none;align=center;verticalAlign=middle;whiteSpace=wrap;rounded=0;" vertex="1" parent="1">
          <mxGeometry x="120" y="4340" width="120" height="30" as="geometry" />
        </mxCell>
        <mxCell id="8zTujfosPJd3p6IDFqLK-789" value="&lt;font size=&quot;1&quot;&gt;&lt;b style=&quot;font-size: 22px;&quot;&gt;Graph&lt;/b&gt;&lt;/font&gt;&lt;font size=&quot;1&quot;&gt;&lt;b style=&quot;font-size: 22px;&quot;&gt;1&lt;/b&gt;&lt;/font&gt;" style="ellipse;whiteSpace=wrap;html=1;fillColor=#f5f5f5;fontColor=#333333;strokeColor=#666666;" vertex="1" parent="1">
          <mxGeometry x="640" y="4240" width="120" height="80" as="geometry" />
        </mxCell>
        <mxCell id="8zTujfosPJd3p6IDFqLK-790" value="&lt;font size=&quot;1&quot;&gt;&lt;b style=&quot;font-size: 22px;&quot;&gt;Graph&lt;/b&gt;&lt;/font&gt;&lt;font size=&quot;1&quot;&gt;&lt;b style=&quot;font-size: 22px;&quot;&gt;1&lt;/b&gt;&lt;/font&gt;" style="ellipse;whiteSpace=wrap;html=1;fillColor=#f5f5f5;strokeColor=#666666;fontColor=#333333;" vertex="1" parent="1">
          <mxGeometry x="920" y="4240" width="120" height="80" as="geometry" />
        </mxCell>
        <mxCell id="8zTujfosPJd3p6IDFqLK-792" value="&lt;font size=&quot;1&quot;&gt;&lt;b style=&quot;font-size: 22px;&quot;&gt;Graph&lt;/b&gt;&lt;/font&gt;&lt;font size=&quot;1&quot;&gt;&lt;b style=&quot;font-size: 22px;&quot;&gt;1&lt;/b&gt;&lt;/font&gt;" style="ellipse;whiteSpace=wrap;html=1;fillColor=#f5f5f5;strokeColor=#666666;fontColor=#333333;" vertex="1" parent="1">
          <mxGeometry x="780" y="4320" width="120" height="80" as="geometry" />
        </mxCell>
        <mxCell id="8zTujfosPJd3p6IDFqLK-794" value="" style="endArrow=none;html=1;rounded=0;entryX=0.5;entryY=1;entryDx=0;entryDy=0;exitX=0;exitY=0.5;exitDx=0;exitDy=0;" edge="1" parent="1">
          <mxGeometry width="50" height="50" relative="1" as="geometry">
            <mxPoint x="780" y="4360" as="sourcePoint" />
            <mxPoint x="700" y="4320" as="targetPoint" />
          </mxGeometry>
        </mxCell>
        <mxCell id="8zTujfosPJd3p6IDFqLK-795" value="" style="endArrow=none;html=1;rounded=0;entryX=0.5;entryY=1;entryDx=0;entryDy=0;exitX=0;exitY=0.5;exitDx=0;exitDy=0;" edge="1" parent="1">
          <mxGeometry width="50" height="50" relative="1" as="geometry">
            <mxPoint x="920" y="4280" as="sourcePoint" />
            <mxPoint x="760" y="4280" as="targetPoint" />
          </mxGeometry>
        </mxCell>
        <mxCell id="8zTujfosPJd3p6IDFqLK-798" value="&lt;b&gt;&lt;font style=&quot;font-size: 24px;&quot;&gt;Non max graphs are pruned.&lt;br&gt;&lt;/font&gt;&lt;/b&gt;" style="text;html=1;strokeColor=none;fillColor=none;align=center;verticalAlign=middle;whiteSpace=wrap;rounded=0;" vertex="1" parent="1">
          <mxGeometry x="1520" y="4160" width="332.5" height="120" as="geometry" />
        </mxCell>
        <mxCell id="8zTujfosPJd3p6IDFqLK-799" value="&lt;b&gt;&lt;font style=&quot;font-size: 24px;&quot;&gt;Non max graphs are pruned.&lt;br&gt;&lt;/font&gt;&lt;/b&gt;" style="text;html=1;strokeColor=none;fillColor=none;align=center;verticalAlign=middle;whiteSpace=wrap;rounded=0;" vertex="1" parent="1">
          <mxGeometry x="2588.75" y="4150" width="332.5" height="120" as="geometry" />
        </mxCell>
        <mxCell id="8zTujfosPJd3p6IDFqLK-800" value="&lt;b&gt;&lt;font style=&quot;font-size: 24px;&quot;&gt;Non max graphs are pruned.&lt;br&gt;&lt;/font&gt;&lt;/b&gt;" style="text;html=1;strokeColor=none;fillColor=none;align=center;verticalAlign=middle;whiteSpace=wrap;rounded=0;" vertex="1" parent="1">
          <mxGeometry x="4793.75" y="4150" width="332.5" height="120" as="geometry" />
        </mxCell>
        <mxCell id="8zTujfosPJd3p6IDFqLK-801" value="" style="ellipse;whiteSpace=wrap;html=1;fillColor=#ffe6cc;strokeColor=#d79b00;strokeWidth=4;" vertex="1" parent="1">
          <mxGeometry x="3950" y="4375" width="425" height="130" as="geometry" />
        </mxCell>
        <mxCell id="8zTujfosPJd3p6IDFqLK-804" value="&lt;font size=&quot;1&quot;&gt;&lt;b style=&quot;font-size: 22px;&quot;&gt;Node5&lt;/b&gt;&lt;/font&gt;" style="ellipse;whiteSpace=wrap;html=1;fillColor=#ffe6cc;strokeColor=#d79b00;" vertex="1" parent="1">
          <mxGeometry x="3720" y="4400" width="120" height="80" as="geometry" />
        </mxCell>
        <mxCell id="8zTujfosPJd3p6IDFqLK-806" value="&lt;font size=&quot;1&quot;&gt;&lt;b style=&quot;font-size: 22px;&quot;&gt;Node4&lt;/b&gt;&lt;/font&gt;" style="ellipse;whiteSpace=wrap;html=1;fillColor=#ffe6cc;strokeColor=#d79b00;" vertex="1" parent="1">
          <mxGeometry x="3440" y="4400" width="120" height="80" as="geometry" />
        </mxCell>
        <mxCell id="8zTujfosPJd3p6IDFqLK-811" value="&lt;b&gt;&lt;font style=&quot;font-size: 24px;&quot;&gt;link (4,5)&lt;/font&gt;&lt;/b&gt;" style="text;html=1;strokeColor=none;fillColor=none;align=center;verticalAlign=middle;whiteSpace=wrap;rounded=0;" vertex="1" parent="1">
          <mxGeometry x="3570" y="4440" width="130" height="30" as="geometry" />
        </mxCell>
        <mxCell id="8zTujfosPJd3p6IDFqLK-812" value="" style="endArrow=none;html=1;rounded=0;entryX=0.5;entryY=1;entryDx=0;entryDy=0;exitX=0;exitY=0.5;exitDx=0;exitDy=0;" edge="1" parent="1" source="8zTujfosPJd3p6IDFqLK-804">
          <mxGeometry width="50" height="50" relative="1" as="geometry">
            <mxPoint x="3640" y="4480" as="sourcePoint" />
            <mxPoint x="3560" y="4440" as="targetPoint" />
          </mxGeometry>
        </mxCell>
        <mxCell id="8zTujfosPJd3p6IDFqLK-815" value="&lt;font size=&quot;1&quot;&gt;&lt;b style=&quot;font-size: 22px;&quot;&gt;Graph&lt;/b&gt;&lt;/font&gt;&lt;font size=&quot;1&quot;&gt;&lt;b style=&quot;font-size: 22px;&quot;&gt;4&lt;/b&gt;&lt;/font&gt;" style="ellipse;whiteSpace=wrap;html=1;fillColor=#ffe6cc;strokeColor=#d79b00;" vertex="1" parent="1">
          <mxGeometry x="4240" y="4400" width="120" height="80" as="geometry" />
        </mxCell>
        <mxCell id="8zTujfosPJd3p6IDFqLK-817" value="&lt;font size=&quot;1&quot;&gt;&lt;b style=&quot;font-size: 22px;&quot;&gt;Graph4&lt;/b&gt;&lt;/font&gt;" style="ellipse;whiteSpace=wrap;html=1;fillColor=#ffe6cc;strokeColor=#d79b00;" vertex="1" parent="1">
          <mxGeometry x="3960" y="4400" width="120" height="80" as="geometry" />
        </mxCell>
        <mxCell id="8zTujfosPJd3p6IDFqLK-818" value="" style="endArrow=none;html=1;rounded=0;entryX=0.5;entryY=1;entryDx=0;entryDy=0;exitX=0;exitY=0.5;exitDx=0;exitDy=0;" edge="1" parent="1" source="8zTujfosPJd3p6IDFqLK-815">
          <mxGeometry width="50" height="50" relative="1" as="geometry">
            <mxPoint x="4240" y="4439.43" as="sourcePoint" />
            <mxPoint x="4080" y="4439.43" as="targetPoint" />
          </mxGeometry>
        </mxCell>
        <mxCell id="8zTujfosPJd3p6IDFqLK-828" value="&lt;font size=&quot;1&quot;&gt;&lt;b style=&quot;font-size: 22px;&quot;&gt;Node1&lt;/b&gt;&lt;/font&gt;" style="ellipse;whiteSpace=wrap;html=1;fillColor=#f5f5f5;fontColor=#333333;strokeColor=#666666;" vertex="1" parent="1">
          <mxGeometry x="2200" y="2600" width="120" height="80" as="geometry" />
        </mxCell>
        <mxCell id="8zTujfosPJd3p6IDFqLK-829" value="&lt;font size=&quot;1&quot;&gt;&lt;b style=&quot;font-size: 22px;&quot;&gt;Node2&lt;/b&gt;&lt;/font&gt;" style="ellipse;whiteSpace=wrap;html=1;fillColor=#dae8fc;strokeColor=#6c8ebf;" vertex="1" parent="1">
          <mxGeometry x="2480" y="2600" width="120" height="80" as="geometry" />
        </mxCell>
        <mxCell id="8zTujfosPJd3p6IDFqLK-830" value="&lt;font size=&quot;1&quot;&gt;&lt;b style=&quot;font-size: 22px;&quot;&gt;Node5&lt;/b&gt;&lt;/font&gt;" style="ellipse;whiteSpace=wrap;html=1;fillColor=#f8cecc;strokeColor=#b85450;" vertex="1" parent="1">
          <mxGeometry x="2480" y="2760" width="120" height="80" as="geometry" />
        </mxCell>
        <mxCell id="8zTujfosPJd3p6IDFqLK-831" value="&lt;font size=&quot;1&quot;&gt;&lt;b style=&quot;font-size: 22px;&quot;&gt;Node3&lt;/b&gt;&lt;/font&gt;" style="ellipse;whiteSpace=wrap;html=1;fillColor=#d5e8d4;strokeColor=#82b366;" vertex="1" parent="1">
          <mxGeometry x="2340" y="2680" width="120" height="80" as="geometry" />
        </mxCell>
        <mxCell id="8zTujfosPJd3p6IDFqLK-832" value="&lt;font size=&quot;1&quot;&gt;&lt;b style=&quot;font-size: 22px;&quot;&gt;Node4&lt;/b&gt;&lt;/font&gt;" style="ellipse;whiteSpace=wrap;html=1;fillColor=#ffe6cc;strokeColor=#d79b00;" vertex="1" parent="1">
          <mxGeometry x="2200" y="2760" width="120" height="80" as="geometry" />
        </mxCell>
        <mxCell id="8zTujfosPJd3p6IDFqLK-833" value="" style="endArrow=none;html=1;rounded=0;entryX=0.5;entryY=1;entryDx=0;entryDy=0;exitX=0;exitY=0.5;exitDx=0;exitDy=0;" edge="1" parent="1" source="8zTujfosPJd3p6IDFqLK-831" target="8zTujfosPJd3p6IDFqLK-828">
          <mxGeometry width="50" height="50" relative="1" as="geometry">
            <mxPoint x="2340" y="2760" as="sourcePoint" />
            <mxPoint x="2580" y="2720" as="targetPoint" />
          </mxGeometry>
        </mxCell>
        <mxCell id="8zTujfosPJd3p6IDFqLK-834" value="" style="endArrow=none;html=1;rounded=0;entryX=0.5;entryY=1;entryDx=0;entryDy=0;exitX=0;exitY=0.5;exitDx=0;exitDy=0;" edge="1" parent="1" source="8zTujfosPJd3p6IDFqLK-829">
          <mxGeometry width="50" height="50" relative="1" as="geometry">
            <mxPoint x="2405" y="2720" as="sourcePoint" />
            <mxPoint x="2320" y="2640" as="targetPoint" />
          </mxGeometry>
        </mxCell>
        <mxCell id="8zTujfosPJd3p6IDFqLK-835" value="&lt;b&gt;&lt;font style=&quot;font-size: 24px;&quot;&gt;link (1,2)&lt;/font&gt;&lt;/b&gt;" style="text;html=1;strokeColor=none;fillColor=none;align=center;verticalAlign=middle;whiteSpace=wrap;rounded=0;" vertex="1" parent="1">
          <mxGeometry x="2350" y="2610" width="100" height="30" as="geometry" />
        </mxCell>
        <mxCell id="8zTujfosPJd3p6IDFqLK-836" value="&lt;b&gt;&lt;font style=&quot;font-size: 24px;&quot;&gt;link (1,3)&lt;/font&gt;&lt;/b&gt;" style="text;html=1;strokeColor=none;fillColor=none;align=center;verticalAlign=middle;whiteSpace=wrap;rounded=0;" vertex="1" parent="1">
          <mxGeometry x="2200" y="2700" width="120" height="30" as="geometry" />
        </mxCell>
        <mxCell id="8zTujfosPJd3p6IDFqLK-837" value="&lt;b&gt;&lt;font style=&quot;font-size: 24px;&quot;&gt;link (4,5)&lt;/font&gt;&lt;/b&gt;" style="text;html=1;strokeColor=none;fillColor=none;align=center;verticalAlign=middle;whiteSpace=wrap;rounded=0;" vertex="1" parent="1">
          <mxGeometry x="2330" y="2800" width="130" height="30" as="geometry" />
        </mxCell>
        <mxCell id="8zTujfosPJd3p6IDFqLK-838" value="" style="endArrow=none;html=1;rounded=0;entryX=0.5;entryY=1;entryDx=0;entryDy=0;exitX=0;exitY=0.5;exitDx=0;exitDy=0;" edge="1" parent="1" source="8zTujfosPJd3p6IDFqLK-830">
          <mxGeometry width="50" height="50" relative="1" as="geometry">
            <mxPoint x="2400" y="2840" as="sourcePoint" />
            <mxPoint x="2320" y="2800" as="targetPoint" />
          </mxGeometry>
        </mxCell>
        <mxCell id="8zTujfosPJd3p6IDFqLK-873" value="&lt;font size=&quot;1&quot;&gt;&lt;b style=&quot;font-size: 22px;&quot;&gt;Graph&lt;/b&gt;&lt;/font&gt;&lt;font size=&quot;1&quot;&gt;&lt;b style=&quot;font-size: 22px;&quot;&gt;4&lt;/b&gt;&lt;/font&gt;" style="ellipse;whiteSpace=wrap;html=1;fillColor=#ffe6cc;strokeColor=#d79b00;" vertex="1" parent="1">
          <mxGeometry x="3110" y="2730" width="120" height="80" as="geometry" />
        </mxCell>
        <mxCell id="8zTujfosPJd3p6IDFqLK-875" value="&lt;font size=&quot;1&quot;&gt;&lt;b style=&quot;font-size: 22px;&quot;&gt;Graph4&lt;/b&gt;&lt;/font&gt;" style="ellipse;whiteSpace=wrap;html=1;fillColor=#ffe6cc;strokeColor=#d79b00;" vertex="1" parent="1">
          <mxGeometry x="2830" y="2730" width="120" height="80" as="geometry" />
        </mxCell>
        <mxCell id="8zTujfosPJd3p6IDFqLK-876" value="" style="endArrow=none;html=1;rounded=0;entryX=0.5;entryY=1;entryDx=0;entryDy=0;exitX=0;exitY=0.5;exitDx=0;exitDy=0;" edge="1" parent="1">
          <mxGeometry width="50" height="50" relative="1" as="geometry">
            <mxPoint x="3110" y="2769.4300000000003" as="sourcePoint" />
            <mxPoint x="2950" y="2769.4300000000003" as="targetPoint" />
          </mxGeometry>
        </mxCell>
        <mxCell id="8zTujfosPJd3p6IDFqLK-864" value="&lt;font size=&quot;1&quot;&gt;&lt;b style=&quot;font-size: 22px;&quot;&gt;Graph&lt;/b&gt;&lt;/font&gt;&lt;font size=&quot;1&quot;&gt;&lt;b style=&quot;font-size: 22px;&quot;&gt;3&lt;/b&gt;&lt;/font&gt;" style="ellipse;whiteSpace=wrap;html=1;fillColor=#d5e8d4;strokeColor=#82b366;" vertex="1" parent="1">
          <mxGeometry x="2790" y="2620" width="120" height="80" as="geometry" />
        </mxCell>
        <mxCell id="8zTujfosPJd3p6IDFqLK-865" value="&lt;font size=&quot;1&quot;&gt;&lt;b style=&quot;font-size: 22px;&quot;&gt;Graph&lt;/b&gt;&lt;/font&gt;&lt;font size=&quot;1&quot;&gt;&lt;b style=&quot;font-size: 22px;&quot;&gt;3&lt;/b&gt;&lt;/font&gt;" style="ellipse;whiteSpace=wrap;html=1;fillColor=#d5e8d4;strokeColor=#82b366;" vertex="1" parent="1">
          <mxGeometry x="3070" y="2620" width="120" height="80" as="geometry" />
        </mxCell>
        <mxCell id="8zTujfosPJd3p6IDFqLK-867" value="&lt;font size=&quot;1&quot;&gt;&lt;b style=&quot;font-size: 22px;&quot;&gt;Graph&lt;/b&gt;&lt;/font&gt;&lt;font size=&quot;1&quot;&gt;&lt;b style=&quot;font-size: 22px;&quot;&gt;3&lt;/b&gt;&lt;/font&gt;" style="ellipse;whiteSpace=wrap;html=1;fillColor=#d5e8d4;strokeColor=#82b366;" vertex="1" parent="1">
          <mxGeometry x="2930" y="2700" width="120" height="80" as="geometry" />
        </mxCell>
        <mxCell id="8zTujfosPJd3p6IDFqLK-869" value="" style="endArrow=none;html=1;rounded=0;entryX=0.5;entryY=1;entryDx=0;entryDy=0;exitX=0;exitY=0.5;exitDx=0;exitDy=0;" edge="1" parent="1">
          <mxGeometry width="50" height="50" relative="1" as="geometry">
            <mxPoint x="2930" y="2740" as="sourcePoint" />
            <mxPoint x="2850" y="2700" as="targetPoint" />
          </mxGeometry>
        </mxCell>
        <mxCell id="8zTujfosPJd3p6IDFqLK-870" value="" style="endArrow=none;html=1;rounded=0;entryX=0.5;entryY=1;entryDx=0;entryDy=0;exitX=0;exitY=0.5;exitDx=0;exitDy=0;" edge="1" parent="1">
          <mxGeometry width="50" height="50" relative="1" as="geometry">
            <mxPoint x="3070" y="2658.95" as="sourcePoint" />
            <mxPoint x="2910" y="2658.95" as="targetPoint" />
          </mxGeometry>
        </mxCell>
        <mxCell id="8zTujfosPJd3p6IDFqLK-857" value="&lt;font size=&quot;1&quot;&gt;&lt;b style=&quot;font-size: 22px;&quot;&gt;Graph&lt;/b&gt;&lt;/font&gt;&lt;font size=&quot;1&quot;&gt;&lt;b style=&quot;font-size: 22px;&quot;&gt;2&lt;/b&gt;&lt;/font&gt;" style="ellipse;whiteSpace=wrap;html=1;fillColor=#dae8fc;strokeColor=#6c8ebf;" vertex="1" parent="1">
          <mxGeometry x="2830" y="2570" width="120" height="80" as="geometry" />
        </mxCell>
        <mxCell id="8zTujfosPJd3p6IDFqLK-858" value="&lt;font size=&quot;1&quot;&gt;&lt;b style=&quot;font-size: 22px;&quot;&gt;Graph&lt;/b&gt;&lt;/font&gt;&lt;font size=&quot;1&quot;&gt;&lt;b style=&quot;font-size: 22px;&quot;&gt;2&lt;/b&gt;&lt;/font&gt;" style="ellipse;whiteSpace=wrap;html=1;fillColor=#dae8fc;strokeColor=#6c8ebf;" vertex="1" parent="1">
          <mxGeometry x="3110" y="2570" width="120" height="80" as="geometry" />
        </mxCell>
        <mxCell id="8zTujfosPJd3p6IDFqLK-860" value="&lt;font size=&quot;1&quot;&gt;&lt;b style=&quot;font-size: 22px;&quot;&gt;Graph2&lt;/b&gt;&lt;/font&gt;" style="ellipse;whiteSpace=wrap;html=1;fillColor=#dae8fc;strokeColor=#6c8ebf;" vertex="1" parent="1">
          <mxGeometry x="2970" y="2650" width="120" height="80" as="geometry" />
        </mxCell>
        <mxCell id="8zTujfosPJd3p6IDFqLK-862" value="" style="endArrow=none;html=1;rounded=0;entryX=0.5;entryY=1;entryDx=0;entryDy=0;exitX=0;exitY=0.5;exitDx=0;exitDy=0;" edge="1" parent="1">
          <mxGeometry width="50" height="50" relative="1" as="geometry">
            <mxPoint x="3110" y="2612.21" as="sourcePoint" />
            <mxPoint x="2950" y="2612.21" as="targetPoint" />
          </mxGeometry>
        </mxCell>
        <mxCell id="8zTujfosPJd3p6IDFqLK-863" value="" style="endArrow=none;html=1;rounded=0;entryX=0.5;entryY=1;entryDx=0;entryDy=0;exitX=0;exitY=0.5;exitDx=0;exitDy=0;" edge="1" parent="1">
          <mxGeometry width="50" height="50" relative="1" as="geometry">
            <mxPoint x="2970" y="2690" as="sourcePoint" />
            <mxPoint x="2890" y="2650" as="targetPoint" />
          </mxGeometry>
        </mxCell>
        <mxCell id="8zTujfosPJd3p6IDFqLK-850" value="&lt;font size=&quot;1&quot;&gt;&lt;b style=&quot;font-size: 22px;&quot;&gt;Graph&lt;/b&gt;&lt;/font&gt;&lt;font size=&quot;1&quot;&gt;&lt;b style=&quot;font-size: 22px;&quot;&gt;1&lt;/b&gt;&lt;/font&gt;" style="ellipse;whiteSpace=wrap;html=1;fillColor=#f5f5f5;fontColor=#333333;strokeColor=#666666;" vertex="1" parent="1">
          <mxGeometry x="2870" y="2520" width="120" height="80" as="geometry" />
        </mxCell>
        <mxCell id="8zTujfosPJd3p6IDFqLK-851" value="&lt;font size=&quot;1&quot;&gt;&lt;b style=&quot;font-size: 22px;&quot;&gt;Graph&lt;/b&gt;&lt;/font&gt;&lt;font size=&quot;1&quot;&gt;&lt;b style=&quot;font-size: 22px;&quot;&gt;1&lt;/b&gt;&lt;/font&gt;" style="ellipse;whiteSpace=wrap;html=1;fillColor=#f5f5f5;strokeColor=#666666;fontColor=#333333;" vertex="1" parent="1">
          <mxGeometry x="3150" y="2520" width="120" height="80" as="geometry" />
        </mxCell>
        <mxCell id="8zTujfosPJd3p6IDFqLK-853" value="&lt;font size=&quot;1&quot;&gt;&lt;b style=&quot;font-size: 22px;&quot;&gt;Graph&lt;/b&gt;&lt;/font&gt;&lt;font size=&quot;1&quot;&gt;&lt;b style=&quot;font-size: 22px;&quot;&gt;1&lt;/b&gt;&lt;/font&gt;" style="ellipse;whiteSpace=wrap;html=1;fillColor=#f5f5f5;strokeColor=#666666;fontColor=#333333;" vertex="1" parent="1">
          <mxGeometry x="3010" y="2600" width="120" height="80" as="geometry" />
        </mxCell>
        <mxCell id="8zTujfosPJd3p6IDFqLK-855" value="" style="endArrow=none;html=1;rounded=0;entryX=0.5;entryY=1;entryDx=0;entryDy=0;exitX=0;exitY=0.5;exitDx=0;exitDy=0;" edge="1" parent="1">
          <mxGeometry width="50" height="50" relative="1" as="geometry">
            <mxPoint x="3010" y="2640" as="sourcePoint" />
            <mxPoint x="2930" y="2600" as="targetPoint" />
          </mxGeometry>
        </mxCell>
        <mxCell id="8zTujfosPJd3p6IDFqLK-856" value="" style="endArrow=none;html=1;rounded=0;entryX=0.5;entryY=1;entryDx=0;entryDy=0;exitX=0;exitY=0.5;exitDx=0;exitDy=0;" edge="1" parent="1">
          <mxGeometry width="50" height="50" relative="1" as="geometry">
            <mxPoint x="3150" y="2560" as="sourcePoint" />
            <mxPoint x="2990" y="2560" as="targetPoint" />
          </mxGeometry>
        </mxCell>
        <mxCell id="8zTujfosPJd3p6IDFqLK-883" value="&lt;font style=&quot;font-size: 24px;&quot;&gt;&lt;b&gt;Overlapping graphs at the end of cycle 1&lt;br&gt;&lt;/b&gt;&lt;/font&gt;" style="text;html=1;strokeColor=none;fillColor=none;align=center;verticalAlign=middle;whiteSpace=wrap;rounded=0;" vertex="1" parent="1">
          <mxGeometry x="2415" y="2400" width="580" height="40" as="geometry" />
        </mxCell>
      </root>
    </mxGraphModel>
  </diagram>
</mxfile>
